<?xml version="1.0" encoding="UTF-8" standalone="no"?>
<!-- Created with Inkscape (http://www.inkscape.org/) -->

<svg
   xmlns:dc="http://purl.org/dc/elements/1.1/"
   xmlns:cc="http://creativecommons.org/ns#"
   xmlns:rdf="http://www.w3.org/1999/02/22-rdf-syntax-ns#"
   xmlns:svg="http://www.w3.org/2000/svg"
   xmlns="http://www.w3.org/2000/svg"
   xmlns:sodipodi="http://sodipodi.sourceforge.net/DTD/sodipodi-0.dtd"
   xmlns:inkscape="http://www.inkscape.org/namespaces/inkscape"
   sodipodi:docname="tgit_logo.svg"
   height="48.359386"
   width="82.856339"
   inkscape:version="0.91 r13725"
   sodipodi:version="0.32"
   id="svg1340"
   inkscape:output_extension="org.inkscape.output.svg.inkscape"
   version="1.0"
   inkscape:export-filename="J:\tgit\logo\logo.png"
   inkscape:export-xdpi="107.64995"
   inkscape:export-ydpi="107.64995">
  <metadata
     id="metadata1345">
    <rdf:RDF>
      <cc:Work
         rdf:about="">
        <dc:format>image/svg+xml</dc:format>
        <dc:type
           rdf:resource="http://purl.org/dc/dcmitype/StillImage" />
      </cc:Work>
    </rdf:RDF>
  </metadata>
  <defs
     id="defs1343" />
  <sodipodi:namedview
     inkscape:current-layer="g4212"
     inkscape:window-y="-8"
     inkscape:window-x="-8"
     inkscape:cy="16.323747"
     inkscape:cx="194.55684"
     inkscape:zoom="2.5482027"
     inkscape:window-height="1138"
     inkscape:window-width="1920"
     inkscape:pageshadow="2"
     inkscape:pageopacity="0.0"
     borderopacity="1.0"
     bordercolor="#666666"
     pagecolor="#ffffff"
     id="base"
     showgrid="false"
     inkscape:window-maximized="1" />
  <g
     style="font-style:normal;font-weight:normal;font-size:17.38614845px;line-height:125%;font-family:sans-serif;letter-spacing:0px;word-spacing:0px;fill:#000000;fill-opacity:1;stroke:none;stroke-width:1px;stroke-linecap:butt;stroke-linejoin:miter;stroke-opacity:1"
     id="text4157"
     transform="translate(0.26516528,0.22097018)">
    <g
       id="g4212">
      <path
         style="fill:#ffffff;fill-opacity:1;fill-rule:evenodd;stroke:#000000;stroke-width:1px;stroke-linecap:butt;stroke-linejoin:miter;stroke-opacity:1"
         d="m 12.259199,27.496564 0,0 c -5.3750006,-3.1875 -9.8750006,-6.875 -9.8750006,-6.875 -3.25000002,-3.5625 2.25,-1.375 2.25,-1.375 l 9.4375006,3.3125 -0.125,0.875 -2.75,1.1875 1.0625,2.875 z"
         id="path3580"
         sodipodi:nodetypes="cccccccc"
         inkscape:connector-curvature="0" />
      <path
         style="fill:#4b8eb4;fill-opacity:1;fill-rule:evenodd;stroke:#000000;stroke-width:1px;stroke-linecap:butt;stroke-linejoin:miter;stroke-opacity:1"
         d="m 20.134199,11.809064 c 3.0625,-3.1250004 7.1875,-5.0000004 13.4375,-5.6875004 5.9375,0.0625 8.6875,-0.25 15.5,3.6875002 1.8125,1.3750002 5.875,3.0000002 4.6875,5.8125002 -1.875,3.6875 -1.9375,3.4375 -2.875,6.8125 -0.9375,3.375 -0.1875,3.0625 -1.3125,4.625 -2,2.125 -0.5625,2 -3.125,3.125 -3.9375,-1.625 -3.1875,-1.3125 -5.375,-1.625 -3.75,-0.3125 -3.75,-0.4375 -8.4375,1.8125 -3.125,0.5 -0.6875,0.75 -3.875,0.375 -7.625,-3.75 -5.625,-4.9375 -9.5,-5.875 -3.875,-0.9375 -4.625,-0.125 -5,-1.875 0.125,-3.5 3.25,-8.4375 5.875,-11.1875 z"
         id="path3584"
         sodipodi:nodetypes="ccccccccccccc"
         inkscape:connector-curvature="0" />
      <path
         sodipodi:nodetypes="ccccccccccccc"
         style="fill:#ffffff;fill-opacity:1;fill-rule:evenodd;stroke:#000000;stroke-width:1px;stroke-linecap:butt;stroke-linejoin:miter;stroke-opacity:1"
         d="m 13.384199,27.996564 c 5.297585,0.188943 6.638919,3.826419 9.1875,5 3.074052,0.761552 5.028429,2.375 8.5625,2.5 3.897756,-1.875 9.678738,-1.6875 15.0625,-0.1875 2.854167,0.0625 4.195624,-1.969995 6.75,-7.5 1.365401,-4.211602 1.595132,-8.071349 3.6875,-10.125 1.218522,-0.992016 2.095584,-2.3125 -0.375,-3.3125 -2.751678,-0.5625 -3.917604,2.585208 -5.375,7.3125 -0.866148,4.169795 -2.550477,9.243988 -5.5,7.5 -5.193279,-1.74711 -3.085821,-1.1875 -5.5625,-1.3125 -4.636849,0.3125 -8.395754,3.890684 -14.4375,0.625 -4.474361,-3.277646 -5.971089,-4.108205 -11.3125,-5.4375 -1.183531,-0.314484 -6.3172856,0.272129 -0.6875,4.9375 z"
         id="path3590"
         inkscape:connector-curvature="0" />
      <path
         sodipodi:nodetypes="ccccccccc"
         style="fill:#ffffff;fill-opacity:1;fill-rule:evenodd;stroke:#000000;stroke-width:1px;stroke-linecap:butt;stroke-linejoin:miter;stroke-opacity:1"
         d="m 12.852949,27.934064 c -0.368475,0.368475 -2.536534,2.323069 -3.7187506,4.5 -1.20044,2.21338 -1.463531,4.510439 -0.0625,7.5625 1.0989356,2.885369 4.2408836,3.216471 7.9375006,4.3125 1.571769,-0.263308 2.720072,0.717428 4.125,-0.875 1.14471,-1.26971 1.986444,-0.888556 0.9375,-3.25 -2.196366,-3.508866 -2.6875,-5.781912 -0.6875,-7.75 -0.5625,-1.440459 -1.226332,-2.163832 -4.25,-3.9375 -1.083493,-0.395993 -2.457936,-0.807093 -4.28125,-0.5625"
         id="path3593"
         inkscape:connector-curvature="0" />
      <path
         sodipodi:nodetypes="ccccc"
         style="fill:#424242;fill-opacity:0.80740739;fill-rule:evenodd;stroke:#000000;stroke-width:1px;stroke-linecap:butt;stroke-linejoin:miter;stroke-opacity:1"
         d="m 25.134199,34.121564 c -0.970491,1.282992 -0.875,1.449858 -0.625,3.1875 0.6875,1.629297 0.440925,2.282106 3.25,2.625 3.246444,-0.985264 3.28186,-2.9375 3.3125,-4.375 -3.60364,-0.125 -5.315448,-1.73809 -5.9375,-1.4375 z"
         id="path3599"
         inkscape:connector-curvature="0" />
      <path
         sodipodi:nodetypes="cccccc"
         style="fill:#ffffff;fill-opacity:1;fill-rule:evenodd;stroke:#000000;stroke-width:1px;stroke-linecap:butt;stroke-linejoin:miter;stroke-opacity:1"
         d="m 30.259199,41.059064 c 0.22531,2.338738 3.310118,3.582539 8.125,4.375 3.634372,-0.246876 6.751263,1.432448 9.125,-2.125 0.428475,-2.651398 -0.180582,-6.5625 -2.1875,-8.1875 -2.136891,-1.875 -9.244146,-2.014842 -12.375,-0.8125 -2.713651,1.485461 -3.104781,4.643376 -2.6875,6.75 z"
         id="path3601"
         inkscape:connector-curvature="0" />
      <path
         sodipodi:nodetypes="cccc"
         style="fill:none;fill-opacity:0.75;fill-rule:evenodd;stroke:#000000;stroke-width:1px;stroke-linecap:butt;stroke-linejoin:miter;stroke-opacity:1"
         d="m 20.321699,36.621564 c -4.354419,-0.625 -7.480252,-0.911169 -9,5.6875 5.003264,2.233519 8.318519,2.479861 9.5625,1.5625 3.447557,-2.429417 -0.106135,-5.030674 -0.5625,-7.25 z"
         id="path3604"
         inkscape:connector-curvature="0" />
      <path
         sodipodi:nodetypes="ccccc"
         style="fill:none;fill-opacity:0.75;fill-rule:evenodd;stroke:#000000;stroke-width:1px;stroke-linecap:butt;stroke-linejoin:miter;stroke-opacity:1"
         d="m 46.571699,37.371564 c -3.9375,0.210921 -7.545211,1.590422 -9.8125,7.3125 0.62799,0.74402 0.848073,0.736537 1.9375,0.8125 2.557194,-0.127653 5.252318,0.404511 7.125,-0.4375 3.19373,-2.098423 1.23591,-7.479771 0.6875,-7.5625"
         id="path3606"
         inkscape:connector-curvature="0" />
      <path
         sodipodi:nodetypes="cc"
         style="fill:none;fill-opacity:0.75;fill-rule:evenodd;stroke:#000000;stroke-width:1px;stroke-linecap:butt;stroke-linejoin:miter;stroke-opacity:1"
         d="m 15.634199,36.559064 c 0.983548,1.575644 2.169877,2.910245 1.3125,7.4375"
         id="path3608"
         inkscape:connector-curvature="0" />
      <path
         sodipodi:nodetypes="cc"
         style="fill:none;fill-opacity:0.75;fill-rule:evenodd;stroke:#000000;stroke-width:1px;stroke-linecap:butt;stroke-linejoin:miter;stroke-opacity:1"
         d="m 18.134199,36.371564 c 1.116487,2.079526 2.1875,4.098693 1.5625,7.8125"
         id="path3610"
         inkscape:connector-curvature="0" />
      <path
         sodipodi:nodetypes="cc"
         style="fill:none;fill-opacity:0.75;fill-rule:evenodd;stroke:#000000;stroke-width:1px;stroke-linecap:butt;stroke-linejoin:miter;stroke-opacity:1"
         d="m 39.759199,39.684064 c 1.378245,0.453726 3.221517,2.26107 3.6875,5.9375"
         id="path3612"
         inkscape:connector-curvature="0" />
      <path
         sodipodi:nodetypes="cc"
         style="fill:none;fill-opacity:0.75;fill-rule:evenodd;stroke:#000000;stroke-width:1px;stroke-linecap:butt;stroke-linejoin:miter;stroke-opacity:1"
         d="m 42.571699,37.934064 c 1.582853,1.518914 3.337186,2.661244 3.4375,6.8125"
         id="path3614"
         inkscape:connector-curvature="0" />
      <path
         sodipodi:nodetypes="cccccc"
         style="fill:#ffffff;fill-opacity:1;fill-rule:evenodd;stroke:#000000;stroke-width:1px;stroke-linecap:butt;stroke-linejoin:miter;stroke-opacity:1"
         d="m 48.884199,34.621564 c -0.386501,3.141495 0.973032,7.860089 4.625,7.875 5.564984,0.573331 6.946372,-1.419357 8.25,-3.375 1.022706,-3.738528 -2.875055,-7.687541 -5.625,-10.1875 -1.095655,-0.977991 -1.259482,-0.9375 -2.625,-1 -2.085081,0.75 -2.547312,6.109812 -4.6875,6.6875"
         id="path3616"
         inkscape:connector-curvature="0" />
      <path
         sodipodi:nodetypes="cccc"
         style="fill:#ffffff;fill-opacity:1;fill-rule:evenodd;stroke:#000000;stroke-width:1px;stroke-linecap:butt;stroke-linejoin:miter;stroke-opacity:1"
         d="m 53.009199,42.246564 c 4.225947,1.350947 5.137967,0.112034 8,-1.9375 1.905568,-1.905567 0.684269,-6.128231 -2,-8.375 -2.573657,0.676343 -8.64878,5.28872 -6,10.3125 z"
         id="path3618"
         inkscape:connector-curvature="0" />
      <path
         sodipodi:nodetypes="cc"
         style="fill:none;fill-opacity:0.75;fill-rule:evenodd;stroke:#000000;stroke-width:1px;stroke-linecap:butt;stroke-linejoin:miter;stroke-opacity:1"
         d="m 53.759199,35.809064 c -0.02083,-0.02083 3.092115,1.555961 3.9375,6.1875"
         id="path3620"
         inkscape:connector-curvature="0" />
      <path
         sodipodi:nodetypes="cc"
         style="fill:none;fill-opacity:0.75;fill-rule:evenodd;stroke:#000000;stroke-width:1px;stroke-linecap:butt;stroke-linejoin:miter;stroke-opacity:1"
         d="m 56.134199,33.934064 c 1.092934,0.982335 3.503651,2.540377 4.375,6.5625"
         id="path3622"
         inkscape:connector-curvature="0" />
      <path
         sodipodi:nodetypes="ccccccccccc"
         style="fill:#ffffff;fill-opacity:1;fill-rule:evenodd;stroke:#000000;stroke-width:1px;stroke-linecap:butt;stroke-linejoin:miter;stroke-opacity:1"
         d="m 64.071699,12.496564 c 0.926831,-5.5411624 0.93441,-5.6070574 2.6875,-7.3125004 4.095083,-2.618187 -0.834907,12.5534584 7.625,7.1875004 0.414846,0.698961 2.976162,0.388372 3.8125,1.375 2.113032,1.881649 2.4375,2.720856 1.875,3.5625 -2.125,3.584757 -2.966594,1.966594 -5.8125,2.9375 -0.59465,1.71965 -2.022981,2.11512 -6.875,2.1875 -3.14781,0.271328 -3.613269,2.325192 -5,3.625 -1.526518,1.19413 -3.142417,3.587086 -9.3125,1.5625 1.449552,-4.122757 0.669419,-8.002064 4.0625,-10.375 5.133149,0.759513 5.675532,-2.226064 6.9375,-4.75 z"
         id="path3624"
         inkscape:connector-curvature="0" />
      <path
         sodipodi:nodetypes="cc"
         style="fill:none;fill-opacity:0.75;fill-rule:evenodd;stroke:#000000;stroke-width:1px;stroke-linecap:butt;stroke-linejoin:miter;stroke-opacity:1"
         d="m 68.509199,16.434064 c 1.18154,2.09822 2.756263,3.4375 6.25,3.5625"
         id="path3626"
         inkscape:connector-curvature="0" />
      <ellipse
         style="fill:#0079bb;fill-opacity:1;fill-rule:evenodd;stroke:#000000;stroke-width:1px;stroke-linecap:butt;stroke-linejoin:miter;stroke-opacity:1"
         id="path3628"
         cx="75.634201"
         cy="7.6840639"
         rx="3.375"
         ry="5.375" />
      <ellipse
         style="fill:#0079bb;fill-opacity:1;fill-rule:evenodd;stroke:#000000;stroke-width:1px;stroke-linecap:butt;stroke-linejoin:miter;stroke-opacity:1"
         id="path5148"
         cx="71.696701"
         cy="8.3715639"
         rx="3.375"
         ry="5.375" />
      <ellipse
         style="fill:#000000;fill-opacity:1"
         id="path5150"
         cx="72.884216"
         cy="9.0903034"
         rx="1.4375002"
         ry="2.2187495" />
      <ellipse
         style="fill:#000000;fill-opacity:1"
         id="path5912"
         cx="77.009224"
         cy="8.152812"
         rx="1.3125004"
         ry="2.1249998" />
      <text
         xml:space="preserve"
         style="font-style:normal;font-weight:normal;font-size:40px;line-height:125%;font-family:sans-serif;letter-spacing:0px;word-spacing:0px;fill:#000000;fill-opacity:1;stroke:none;stroke-width:1px;stroke-linecap:butt;stroke-linejoin:miter;stroke-opacity:1"
         x="24.107592"
         y="23.759119"
         id="text3361"
         sodipodi:linespacing="125%"><tspan
           sodipodi:role="line"
           id="tspan3363"
           x="24.107592"
           y="23.759119"
           style="font-style:normal;font-variant:normal;font-weight:normal;font-stretch:normal;font-size:16.25px;font-family:Arial;-inkscape-font-specification:Arial">Git</tspan></text>
    </g>
  </g>
</svg>
