<?xml version="1.0" encoding="UTF-8" standalone="no"?>
<!-- Created with Inkscape (http://www.inkscape.org/) -->
<svg
   xmlns:dc="http://purl.org/dc/elements/1.1/"
   xmlns:cc="http://web.resource.org/cc/"
   xmlns:rdf="http://www.w3.org/1999/02/22-rdf-syntax-ns#"
   xmlns:svg="http://www.w3.org/2000/svg"
   xmlns="http://www.w3.org/2000/svg"
   xmlns:sodipodi="http://sodipodi.sourceforge.net/DTD/sodipodi-0.dtd"
   xmlns:inkscape="http://www.inkscape.org/namespaces/inkscape"
   id="svg1340"
   sodipodi:version="0.32"
   inkscape:version="0.45.1"
   width="79.958923"
   height="44.3125"
   sodipodi:docbase="C:\Dokumente und Einstellungen\kueng.RUETHI\Eigene Dateien\SVN\TortoiseGit\doc\logo"
   sodipodi:docname="tsvn_logo_front.svg"
   inkscape:output_extension="org.inkscape.output.svg.inkscape"
   version="1.0">
  <metadata
     id="metadata1345">
    <rdf:RDF>
      <cc:Work
         rdf:about="">
        <dc:format>image/svg+xml</dc:format>
        <dc:type
           rdf:resource="http://purl.org/dc/dcmitype/StillImage" />
      </cc:Work>
    </rdf:RDF>
  </metadata>
  <defs
     id="defs1343" />
  <sodipodi:namedview
     id="base"
     pagecolor="#ffffff"
     bordercolor="#666666"
     borderopacity="1.0"
     inkscape:pageopacity="0.0"
     inkscape:pageshadow="2"
     inkscape:window-width="1280"
     inkscape:window-height="976"
     inkscape:zoom="1"
     inkscape:cx="408.96523"
     inkscape:cy="92.123392"
     inkscape:window-x="0"
     inkscape:window-y="14"
     inkscape:current-layer="svg1340"
     width="131.10236px"
     height="92.125984px" />
  <path
     id="path5328"
     d="M 24.251467,32.247885 L 26.50537,32.910798 L 29.422186,33.573711 L 30.261875,33.617905 L 29.819933,34.722759 L 29.333797,36.181167 L 28.891856,37.020856 L 27.742807,37.816352 L 26.328593,38.169905 L 25.135351,37.816352 L 24.339855,37.065051 L 23.676943,35.164701 L 23.500166,33.838876 L 23.765331,32.778216 L 24.251467,32.247885 z "
     style="fill:#497fff;fill-opacity:1;fill-rule:evenodd;stroke:#000000;stroke-width:1px;stroke-linecap:butt;stroke-linejoin:miter;stroke-opacity:1" />
  <path
     style="fill:#ffffff;fill-opacity:1;fill-rule:evenodd;stroke:#000000;stroke-width:1px;stroke-linecap:butt;stroke-linejoin:miter;stroke-opacity:1"
     d="M 11.402316,25.6875 L 11.402316,25.6875 C 6.0273161,22.5 1.5273161,18.8125 1.5273161,18.8125 C -1.7226839,15.25 3.7773161,17.4375 3.7773161,17.4375 L 13.214816,20.75 L 13.089816,21.625 L 10.339816,22.8125 L 11.402316,25.6875 z "
     id="path3580"
     sodipodi:nodetypes="cccccccc" />
  <path
     style="fill:#ffffff;fill-opacity:0.56666667;fill-rule:evenodd;stroke:#000000;stroke-width:1px;stroke-linecap:butt;stroke-linejoin:miter;stroke-opacity:1"
     d="M 19.277316,10 C 22.339816,6.8749999 26.464816,4.9999999 32.714816,4.3124999 C 38.652316,4.3749999 41.402316,4.0624999 48.214816,7.9999999 C 50.027316,9.3750003 54.089816,11 52.902316,13.8125 C 51.027316,17.5 50.964816,17.25 50.027316,20.625 C 49.089816,24 49.839816,23.6875 48.714816,25.25 C 46.714816,27.375 48.152316,27.25 45.589816,28.375 C 41.652316,26.75 42.402316,27.0625 40.214816,26.75 C 36.464816,26.4375 36.464816,26.3125 31.777316,28.5625 C 28.652316,29.0625 31.089816,29.3125 27.902316,28.9375 C 20.277316,25.1875 22.277316,24 18.402316,23.0625 C 14.527316,22.125 13.777316,22.9375 13.402316,21.1875 C 13.527316,17.6875 16.652316,12.75 19.277316,10 z "
     id="path3584"
     sodipodi:nodetypes="ccccccccccccc" />
  <path
     sodipodi:nodetypes="ccccccccccccc"
     style="fill:#ffffff;fill-opacity:1;fill-rule:evenodd;stroke:#000000;stroke-width:1px;stroke-linecap:butt;stroke-linejoin:miter;stroke-opacity:1"
     d="M 12.527316,26.1875 C 17.824901,26.376443 19.166235,30.013919 21.714816,31.1875 C 24.788868,31.949052 26.743245,33.5625 30.277316,33.6875 C 34.175072,31.8125 39.956054,32 45.339816,33.5 C 48.193983,33.5625 49.53544,31.530005 52.089816,26 C 53.455217,21.788398 53.684948,17.928651 55.777316,15.875 C 56.995838,14.882984 57.8729,13.5625 55.402316,12.5625 C 52.650638,12 51.484712,15.147708 50.027316,19.875 C 49.161168,24.044795 47.476839,29.118988 44.527316,27.375 C 39.334037,25.62789 41.441495,26.1875 38.964816,26.0625 C 34.327967,26.375 30.569062,29.953184 24.527316,26.6875 C 20.052955,23.409854 18.556227,22.579295 13.214816,21.25 C 12.031285,20.935516 6.8975311,21.522129 12.527316,26.1875 z "
     id="path3590" />
  <path
     sodipodi:nodetypes="ccccccccc"
     style="fill:#ffffff;fill-opacity:1;fill-rule:evenodd;stroke:#000000;stroke-width:1px;stroke-linecap:butt;stroke-linejoin:miter;stroke-opacity:1"
     d="M 11.996066,26.125 C 11.627591,26.493475 9.4595321,28.448069 8.2773161,30.625 C 7.0768761,32.83838 6.8137851,35.135439 8.2148161,38.1875 C 9.3137511,41.072869 12.455699,41.403971 16.152316,42.5 C 17.724085,42.236692 18.872388,43.217428 20.277316,41.625 C 21.422026,40.35529 22.26376,40.736444 21.214816,38.375 C 19.01845,34.866134 18.527316,32.593088 20.527316,30.625 C 19.964816,29.184541 19.300984,28.461168 16.277316,26.6875 C 15.193823,26.291507 13.81938,25.880407 11.996066,26.125"
     id="path3593" />
  <path
     sodipodi:nodetypes="ccccc"
     style="fill:#424242;fill-opacity:0.80740739;fill-rule:evenodd;stroke:#000000;stroke-width:1px;stroke-linecap:butt;stroke-linejoin:miter;stroke-opacity:1"
     d="M 24.277316,32.3125 C 23.306825,33.595492 23.402316,33.762358 23.652316,35.5 C 24.339816,37.129297 24.093241,37.782106 26.902316,38.125 C 30.14876,37.139736 30.184176,35.1875 30.214816,33.75 C 26.611176,33.625 24.899368,32.01191 24.277316,32.3125 z "
     id="path3599" />
  <path
     sodipodi:nodetypes="cccccc"
     style="fill:#ffffff;fill-opacity:1;fill-rule:evenodd;stroke:#000000;stroke-width:1px;stroke-linecap:butt;stroke-linejoin:miter;stroke-opacity:1"
     d="M 29.402316,39.25 C 29.627626,41.588738 32.712434,42.832539 37.527316,43.625 C 41.161688,43.378124 44.278579,45.057448 46.652316,41.5 C 47.080791,38.848602 46.471734,34.9375 44.464816,33.3125 C 42.327925,31.4375 35.22067,31.297658 32.089816,32.5 C 29.376165,33.985461 28.985035,37.143376 29.402316,39.25 z "
     id="path3601" />
  <path
     sodipodi:nodetypes="cccc"
     style="fill:none;fill-opacity:0.75;fill-rule:evenodd;stroke:#000000;stroke-width:1px;stroke-linecap:butt;stroke-linejoin:miter;stroke-opacity:1"
     d="M 19.464816,34.8125 C 15.110397,34.1875 11.984564,33.901331 10.464816,40.5 C 15.46808,42.733519 18.783335,42.979861 20.027316,42.0625 C 23.474873,39.633083 19.921181,37.031826 19.464816,34.8125 z "
     id="path3604" />
  <path
     sodipodi:nodetypes="ccccc"
     style="fill:none;fill-opacity:0.75;fill-rule:evenodd;stroke:#000000;stroke-width:1px;stroke-linecap:butt;stroke-linejoin:miter;stroke-opacity:1"
     d="M 45.714816,35.5625 C 41.777316,35.773421 38.169605,37.152922 35.902316,42.875 C 36.530306,43.61902 36.750389,43.611537 37.839816,43.6875 C 40.39701,43.559847 43.092134,44.092011 44.964816,43.25 C 48.158546,41.151577 46.200726,35.770229 45.652316,35.6875"
     id="path3606" />
  <path
     sodipodi:nodetypes="cc"
     style="fill:none;fill-opacity:0.75;fill-rule:evenodd;stroke:#000000;stroke-width:1px;stroke-linecap:butt;stroke-linejoin:miter;stroke-opacity:1"
     d="M 14.777316,34.75 C 15.760864,36.325644 16.947193,37.660245 16.089816,42.1875"
     id="path3608" />
  <path
     sodipodi:nodetypes="cc"
     style="fill:none;fill-opacity:0.75;fill-rule:evenodd;stroke:#000000;stroke-width:1px;stroke-linecap:butt;stroke-linejoin:miter;stroke-opacity:1"
     d="M 17.277316,34.5625 C 18.393803,36.642026 19.464816,38.661193 18.839816,42.375"
     id="path3610" />
  <path
     sodipodi:nodetypes="cc"
     style="fill:none;fill-opacity:0.75;fill-rule:evenodd;stroke:#000000;stroke-width:1px;stroke-linecap:butt;stroke-linejoin:miter;stroke-opacity:1"
     d="M 38.902316,37.875 C 40.280561,38.328726 42.123833,40.13607 42.589816,43.8125"
     id="path3612" />
  <path
     sodipodi:nodetypes="cc"
     style="fill:none;fill-opacity:0.75;fill-rule:evenodd;stroke:#000000;stroke-width:1px;stroke-linecap:butt;stroke-linejoin:miter;stroke-opacity:1"
     d="M 41.714816,36.125 C 43.297669,37.643914 45.052002,38.786244 45.152316,42.9375"
     id="path3614" />
  <path
     sodipodi:nodetypes="cccccc"
     style="fill:#ffffff;fill-opacity:1;fill-rule:evenodd;stroke:#000000;stroke-width:1px;stroke-linecap:butt;stroke-linejoin:miter;stroke-opacity:1"
     d="M 48.027316,32.8125 C 47.640815,35.953995 49.000348,40.672589 52.652316,40.6875 C 58.2173,41.260831 59.598688,39.268143 60.902316,37.3125 C 61.925022,33.573972 58.027261,29.624959 55.277316,27.125 C 54.181661,26.147009 54.017834,26.1875 52.652316,26.125 C 50.567235,26.875 50.105004,32.234812 47.964816,32.8125"
     id="path3616" />
  <path
     sodipodi:nodetypes="cccc"
     style="fill:#ffffff;fill-opacity:1;fill-rule:evenodd;stroke:#000000;stroke-width:1px;stroke-linecap:butt;stroke-linejoin:miter;stroke-opacity:1"
     d="M 52.152316,40.4375 C 56.378263,41.788447 57.290283,40.549534 60.152316,38.5 C 62.057884,36.594433 60.836585,32.371769 58.152316,30.125 C 55.578659,30.801343 49.503536,35.41372 52.152316,40.4375 z "
     id="path3618" />
  <path
     sodipodi:nodetypes="cc"
     style="fill:none;fill-opacity:0.75;fill-rule:evenodd;stroke:#000000;stroke-width:1px;stroke-linecap:butt;stroke-linejoin:miter;stroke-opacity:1"
     d="M 52.902316,34 C 52.881483,33.979167 55.994431,35.555961 56.839816,40.1875"
     id="path3620" />
  <path
     sodipodi:nodetypes="cc"
     style="fill:none;fill-opacity:0.75;fill-rule:evenodd;stroke:#000000;stroke-width:1px;stroke-linecap:butt;stroke-linejoin:miter;stroke-opacity:1"
     d="M 55.277316,32.125 C 56.37025,33.107335 58.780967,34.665377 59.652316,38.6875"
     id="path3622" />
  <path
     sodipodi:nodetypes="ccccccccccc"
     style="fill:#ffffff;fill-opacity:1;fill-rule:evenodd;stroke:#000000;stroke-width:1px;stroke-linecap:butt;stroke-linejoin:miter;stroke-opacity:1"
     d="M 63.214816,10.6875 C 64.141647,5.1463379 64.149226,5.0804429 65.902316,3.3749999 C 69.997399,0.75681289 65.067409,15.928458 73.527316,10.5625 C 73.942162,11.261461 76.503478,10.950872 77.339816,11.9375 C 79.452848,13.819149 79.777316,14.658356 79.214816,15.5 C 77.089816,19.084757 76.248222,17.466594 73.402316,18.4375 C 72.807666,20.15715 71.379335,20.55262 66.527316,20.625 C 63.379506,20.896328 62.914047,22.950192 61.527316,24.25 C 60.000798,25.44413 58.384899,27.837086 52.214816,25.8125 C 53.664368,21.689743 52.884235,17.810436 56.277316,15.4375 C 61.410465,16.197013 61.952848,13.211436 63.214816,10.6875 z "
     id="path3624" />
  <path
     sodipodi:nodetypes="cc"
     style="fill:none;fill-opacity:0.75;fill-rule:evenodd;stroke:#000000;stroke-width:1px;stroke-linecap:butt;stroke-linejoin:miter;stroke-opacity:1"
     d="M 67.652316,14.625 C 68.833856,16.72322 70.408579,18.0625 73.902316,18.1875"
     id="path3626" />
  <path
     sodipodi:type="arc"
     style="fill:#0079bb;fill-opacity:1;fill-rule:evenodd;stroke:#000000;stroke-width:1px;stroke-linecap:butt;stroke-linejoin:miter;stroke-opacity:1"
     id="path3628"
     sodipodi:cx="74.4375"
     sodipodi:cy="17.424681"
     sodipodi:rx="3.375"
     sodipodi:ry="5.375"
     d="M 77.8125 17.424681 A 3.375 5.375 0 1 1  71.0625,17.424681 A 3.375 5.375 0 1 1  77.8125 17.424681 z"
     transform="translate(0.3398161,-11.549681)" />
  <path
     sodipodi:type="arc"
     style="fill:#0079bb;fill-opacity:1;fill-rule:evenodd;stroke:#000000;stroke-width:1px;stroke-linecap:butt;stroke-linejoin:miter;stroke-opacity:1"
     id="path5148"
     sodipodi:cx="74.4375"
     sodipodi:cy="17.424681"
     sodipodi:rx="3.375"
     sodipodi:ry="5.375"
     d="M 77.8125 17.424681 A 3.375 5.375 0 1 1  71.0625,17.424681 A 3.375 5.375 0 1 1  77.8125 17.424681 z"
     transform="translate(-3.5976839,-10.862181)" />
  <path
     sodipodi:type="arc"
     style="fill:#000000;fill-opacity:1"
     id="path5150"
     sodipodi:cx="60.5"
     sodipodi:cy="14.330931"
     sodipodi:rx="0.8125"
     sodipodi:ry="1.09375"
     d="M 61.3125 14.330931 A 0.8125 1.09375 0 1 1  59.6875,14.330931 A 0.8125 1.09375 0 1 1  61.3125 14.330931 z"
     transform="matrix(1.769231,0,0,2.028571,-35.011144,-21.790071)" />
  <path
     sodipodi:type="arc"
     style="fill:#000000;fill-opacity:1"
     id="path5912"
     sodipodi:cx="60.5"
     sodipodi:cy="14.330931"
     sodipodi:rx="0.8125"
     sodipodi:ry="1.09375"
     d="M 61.3125 14.330931 A 0.8125 1.09375 0 1 1  59.6875,14.330931 A 0.8125 1.09375 0 1 1  61.3125 14.330931 z"
     transform="matrix(1.615385,0,0,1.942857,-21.578454,-21.499201)" />
  <path
     id="path3809"
     d="M 13.423894,20.403846 C 14.793913,16.072817 17.533952,12.006953 17.533952,12.006953 L 20.627545,8.6481963 L 23.986302,6.6152638 L 28.538302,4.9800793 L 33.046108,4.2287783 L 37.244555,4.3171666 L 42.326885,5.156856 L 46.436943,6.9688172 L 50.237642,9.3553023 L 52.182186,10.902099 L 52.800905,11.785982 L 52.977681,12.758254 L 52.579934,13.730526 L 51.254108,16.2054 L 49.751507,21.199341 L 48.558264,25.088429 L 47.188244,26.988779 L 46.304361,27.519109 L 45.199506,27.74008 L 43.785293,27.209749 L 41.089448,26.237478 L 39.719429,26.104895 L 36.891001,26.414254 L 32.95772,27.563303 L 29.952516,28.137827 L 27.963778,28.093633 L 25.665681,27.298138 L 24.339855,26.591031 L 22.572088,25.176817 L 20.318185,23.762604 L 17.268787,22.34839 L 14.086807,21.28773 L 13.291311,20.801594 L 13.423894,20.403846 z "
     style="fill:#497fff;fill-opacity:1;fill-rule:evenodd;stroke:#000000;stroke-width:1px;stroke-linecap:butt;stroke-linejoin:miter;stroke-opacity:1" />
</svg>
