<?xml version="1.0" encoding="UTF-8"?>
<svg width="16" height="16" version="1.0" viewBox="0 0 33 33" xmlns="http://www.w3.org/2000/svg"><circle cx="16.5" cy="16.5" r="16" stroke="#000"/><g fill="#fff"><path d="M3.815,10.758h0.48c3.24,0,4.104-1.681,4.176-2.952h2.76v17.04h-3.36V13.11H3.815V10.758z"/><path d="m22.175 7.806c4.009 0 5.904 2.76 5.904 8.736 0 5.975-1.896 8.76-5.904 8.76s-5.904-2.785-5.904-8.76c0-5.976 1.896-8.736 5.904-8.736zm0 14.807c1.921 0 2.448-1.68 2.448-6.071 0-4.393-0.527-6.049-2.448-6.049-1.92 0-2.448 1.656-2.448 6.049 0 4.392 0.528 6.071 2.448 6.071z"/></g></svg>
