<?xml version="1.0" encoding="UTF-8"?>
<svg width="16" height="16" version="1.0" viewBox="0 0 33 33" xmlns="http://www.w3.org/2000/svg"><circle cx="16.5" cy="16.5" r="16" stroke="#000"/><g fill="#fff"><path d="M3.479,11.079h0.48c3.24,0,4.104-1.681,4.176-2.952h2.76v17.04h-3.36V13.43H3.479V11.079z"/><path d="m19.342 14.943c0.625-0.433 1.392-0.937 3.048-0.937 2.279 0 5.16 1.584 5.16 5.496 0 2.328-1.176 6.121-6.192 6.121-2.664 0-5.376-1.584-5.544-5.016h3.36c0.144 1.391 0.888 2.326 2.376 2.326 1.607 0 2.544-1.367 2.544-3.191 0-1.512-0.72-3.047-2.496-3.047-0.456 0-1.608 0.023-2.256 1.223l-3-0.143 1.176-9.361h9.36v2.832h-6.937l-0.599 3.697z"/></g></svg>
