<?xml version="1.0" encoding="UTF-8"?>
<svg width="16" height="16" version="1.0" viewBox="0 0 33 33" xmlns="http://www.w3.org/2000/svg"><circle cx="16.5" cy="16.5" r="16" stroke="#000"/><path d="m15.127 14.005h0.616c1.176 0 3.332-0.112 3.332-2.688 0-0.728-0.336-2.548-2.492-2.548-2.688 0-2.688 2.548-2.688 3.248h-3.64c0-3.724 2.1-6.384 6.58-6.384 2.66 0 6.16 1.344 6.16 5.544 0 2.016-1.261 3.276-2.38 3.78v0.056c0.699 0.196 2.996 1.232 2.996 4.62 0 3.752-2.772 6.412-6.776 6.412-1.876 0-6.916-0.42-6.916-6.636h3.836l-0.028 0.027c0 1.064 0.28 3.473 2.912 3.473 1.568 0 2.94-1.064 2.94-3.276 0-2.716-2.632-2.828-4.452-2.828v-2.8z" fill="#fff"/></svg>
