<?xml version="1.0" encoding="UTF-8"?>
<svg width="16" height="16" version="1.0" viewBox="0 0 33 33" xmlns="http://www.w3.org/2000/svg"><circle cx="16.5" cy="16.5" r="16" stroke="#000"/><path d="m14.035 14.252c0.728-0.504 1.624-1.092 3.556-1.092 2.66 0 6.02 1.848 6.02 6.411 0 2.717-1.372 7.141-7.224 7.141-3.108 0-6.272-1.849-6.468-5.853h3.92c0.168 1.624 1.036 2.717 2.772 2.717 1.876 0 2.968-1.597 2.968-3.725 0-1.764-0.839-3.556-2.912-3.556-0.532 0-1.876 0.028-2.632 1.428l-3.5-0.168 1.372-10.92h10.919v3.304h-8.092l-0.699 4.313z" fill="#fff"/></svg>
