<?xml version="1.0" encoding="UTF-8"?>
<svg width="16" height="16" version="1.0" viewBox="0 0 33 33" xmlns="http://www.w3.org/2000/svg"><circle cx="16.5" cy="16.5" r="16" stroke="#000"/><path d="m19.106 10.673c-0.112-1.12-0.84-1.904-2.296-1.904-2.548 0-3.136 2.912-3.276 5.488l0.056 0.056c0.532-0.728 1.512-1.651 3.724-1.651 4.116 0 6.077 3.164 6.077 6.131 0 4.34-2.66 7.252-6.497 7.252-6.02 0-7.196-5.039-7.196-9.996 0-3.78 0.504-10.416 7.392-10.416 0.812 0 3.08 0.308 4.061 1.288 1.092 1.063 1.483 1.652 1.848 3.752h-3.893zm-2.492 5.124c-1.484 0-2.996 0.924-2.996 3.416 0 2.156 1.232 3.697 3.108 3.697 1.428 0 2.745-1.094 2.745-3.781 0-2.52-1.625-3.332-2.857-3.332z" fill="#fff"/></svg>
