<?xml version="1.0" encoding="UTF-8"?>
<svg width="16" height="16" version="1.0" viewBox="0 0 33 33" xmlns="http://www.w3.org/2000/svg"><circle cx="16.5" cy="16.5" r="16" stroke="#000"/><path d="m16.28 26.712c-5.124 0-6.888-3.332-6.888-6.048 0-1.009 0-3.641 3.024-5.04-1.568-0.784-2.408-2.044-2.408-3.893 0-3.388 2.716-5.432 6.188-5.432 4.116 0 6.3 2.436 6.3 5.18 0 1.708-0.7 3.164-2.296 4.004 1.903 0.952 2.968 2.212 2.968 4.788 0 2.521-1.624 6.441-6.888 6.441zm-0.056-9.38c-1.428 0-2.8 0.924-2.8 3.08 0 1.903 1.092 3.164 2.884 3.164 2.043 0 2.829-1.765 2.829-3.137 0-1.399-0.729-3.107-2.913-3.107zm2.52-5.433c0-1.512-1.036-2.464-2.296-2.464-1.764 0-2.688 1.008-2.688 2.464 0 1.177 0.868 2.464 2.548 2.464 1.54 0 2.436-1.035 2.436-2.464z" fill="#fff"/></svg>
