<?xml version="1.0" encoding="UTF-8"?>
<svg width="16" height="16" version="1.0" viewBox="0 0 33 33" xmlns="http://www.w3.org/2000/svg"><circle cx="16.5" cy="16.5" r="16" stroke="#000"/><path d="m13.953 21.921v0.027c0.224 1.372 1.092 1.961 2.296 1.961 1.624 0 3.248-1.372 3.276-5.545l-0.057-0.056c-0.896 1.344-2.436 1.68-3.78 1.68-3.808 0-6.02-2.884-6.02-6.216 0-4.872 2.884-7.14 6.776-7.14 6.888 0 7 7.42 7 10.22 0 7.7-3.641 10.192-7.224 10.192-3.388 0-5.824-1.96-6.16-5.124h3.893zm2.576-5.068c1.372 0 2.884-0.979 2.884-3.332 0-2.268-0.98-3.668-2.996-3.668-1.008 0-2.828 0.504-2.828 3.36 0 2.996 1.456 3.64 2.94 3.64z" fill="#fff"/></svg>
