<?xml version="1.0" encoding="UTF-8"?>
<!DOCTYPE svg PUBLIC "-//W3C//DTD SVG 1.1//EN" "http://www.w3.org/Graphics/SVG/1.1/DTD/svg11.dtd">
<!-- Creator: CorelDRAW -->
<svg xmlns="http://www.w3.org/2000/svg" xml:space="preserve" width="210mm" height="297mm" style="shape-rendering:geometricPrecision; text-rendering:geometricPrecision; image-rendering:optimizeQuality; fill-rule:evenodd; clip-rule:evenodd"
viewBox="0 0 210 297"
 xmlns:xlink="http://www.w3.org/1999/xlink">
 <defs>
  <style type="text/css">
   <![CDATA[
    .str4 {stroke:#0093DD;stroke-width:0.0762}
    .str0 {stroke:#1F1A17;stroke-width:0.4}
    .str1 {stroke:#605D5C;stroke-width:0.5}
    .str3 {stroke:#DA251D;stroke-width:0.5}
    .str2 {stroke:#DA251D;stroke-width:0.5;stroke-dasharray:1.000000 0.500000}
    .fil0 {fill:none}
    .fil5 {fill:none;fill-rule:nonzero}
    .fil1 {fill:#DEDEDD}
    .fil2 {fill:white}
    .fil3 {fill:#0093DD;fill-rule:nonzero}
    .fil4 {fill:#1F1A17;fill-rule:nonzero}
   ]]>
  </style>
 </defs>
 <g id="Ebene_x0020_1">
  <metadata id="CorelCorpID_0Corel-Layer"/>
  <line class="fil0 str0" x1="94.9846" y1="83.7501" x2="84.9923" y2= "93.7424" />
  <line class="fil0 str0" x1="107.475" y1="141.206" x2="94.9846" y2= "151.198" />
  <line class="fil0 str0" x1="104.977" y1="126.218" x2="107.475" y2= "141.206" />
  <line class="fil0 str0" x1="84.9923" y1="126.218" x2="82.4942" y2= "141.206" />
  <line class="fil0 str0" x1="112.471" y1="116.225" x2="104.977" y2= "126.218" />
  <line class="fil0 str0" x1="104.977" y1="93.7424" x2="104.977" y2= "106.233" />
  <line class="fil0 str0" x1="94.9846" y1="83.7501" x2="104.977" y2= "93.7424" />
  <line class="fil0 str0" x1="84.9923" y1="93.7424" x2="82.4942" y2= "106.233" />
  <line class="fil0 str0" x1="82.4942" y1="141.206" x2="94.9846" y2= "151.198" />
  <line class="fil0 str0" x1="104.977" y1="106.233" x2="82.4942" y2= "106.233" />
  <line class="fil0 str0" x1="104.977" y1="126.218" x2="84.9923" y2= "126.218" />
  <line class="fil0 str0" x1="104.977" y1="106.233" x2="112.471" y2= "116.225" />
  <line class="fil0 str0" x1="77.4981" y1="116.225" x2="84.9923" y2= "126.218" />
  <line class="fil0 str0" x1="82.4942" y1="106.233" x2="77.4981" y2= "116.225" />
  <circle class="fil1 str1" cx="84.9923" cy="93.7424" r="2.49808"/>
  <circle class="fil1 str1" cx="104.977" cy="106.233" r="2.49808"/>
  <circle class="fil1 str1" cx="104.977" cy="93.7424" r="2.49808"/>
  <circle class="fil1 str1" cx="82.4942" cy="106.233" r="2.49808"/>
  <circle class="fil1 str1" cx="104.977" cy="126.217" r="2.49808"/>
  <circle class="fil1 str1" cx="84.9923" cy="126.217" r="2.49808"/>
  <circle class="fil1 str1" cx="107.475" cy="141.206" r="2.49808"/>
  <circle class="fil1 str1" cx="82.4942" cy="141.206" r="2.49808"/>
  <circle class="fil1 str1" cx="112.471" cy="116.225" r="2.49808"/>
  <circle class="fil1 str1" cx="77.4981" cy="116.225" r="2.49808"/>
  <path class="fil0 str2" d="M94.9846 83.7501c0.5643,8.4149 1.6496,12.2061 0,17.4866 -1.6495,5.2804 -4.9961,14.9885 -2.498,19.9846 2.498,4.9962 4.9961,24.9808 2.498,29.977"/>
  <circle class="fil1 str1" cx="94.9846" cy="83.7501" r="2.49808"/>
  <circle class="fil1 str1" cx="94.9846" cy="151.198" r="2.49808"/>
  <rect class="fil2 str3" x="92.9766" y="105.696" width="1.07368" height="1.07368"/>
  <rect class="fil2 str3" x="93.5097" y="125.681" width="1.07368" height="1.07368"/>
  <g>
   <path class="fil3" d="M87.8732 107.609l-1.9331 0.006 0 -0.3984 1.9331 -0.006 0 0.3984zm-0.1674 -1.2401l1.8964 1.0356 -1.89 1.0473 -0.0064 -2.0829z"/>
  </g>
  <path class="fil4" d="M89.4367 82.6001c0,-0.0941 0.0127,-0.2051 0.037,-0.3299 0.0254,-0.1248 0.0508,-0.2284 0.0772,-0.3099 0.0275,-0.0814 0.0666,-0.1935 0.1195,-0.3373 0.0529,-0.1438 0.0994,-0.2697 0.1417,-0.3765 0.0571,-0.1554 0.0867,-0.2844 0.0867,-0.387 0,-0.1301 -0.0486,-0.1957 -0.1459,-0.1957 -0.165,0 -0.3014,0.0846 -0.4072,0.2538 -0.1068,0.1692 -0.1893,0.3617 -0.2464,0.5764 -0.0105,0.0306 -0.0253,0.0465 -0.0433,0.0465l-0.0751 0c-0.0307,0 -0.0465,-0.0211 -0.0465,-0.0645 0.0645,-0.2506 0.1649,-0.4738 0.3024,-0.6705 0.1375,-0.1956 0.313,-0.2939 0.5288,-0.2939 0.1459,0 0.2686,0.0486 0.3669,0.1469 0.0984,0.0984 0.147,0.2211 0.147,0.367 0,0.0793 -0.0169,0.1597 -0.0497,0.2422 -0.0518,0.1364 -0.11,0.2918 -0.1745,0.4674 -0.0655,0.1755 -0.1184,0.3437 -0.1586,0.5044 -0.0402,0.1597 -0.0603,0.3046 -0.0603,0.4346 0,0.1576 0.0381,0.2877 0.1142,0.3903 0.0772,0.1036 0.1904,0.1554 0.3416,0.1554 0.3469,0 0.6451,-0.3024 0.8957,-0.9084 0.1406,-0.3627 0.2104,-0.6334 0.2104,-0.8111 0,-0.1205 -0.019,-0.2168 -0.056,-0.2919 -0.037,-0.074 -0.0857,-0.1501 -0.1449,-0.2294 -0.0603,-0.0783 -0.0899,-0.1343 -0.0899,-0.1703 0,-0.0804 0.0307,-0.1512 0.0941,-0.2115 0.0624,-0.0613 0.1322,-0.092 0.2084,-0.092 0.0994,0 0.1681,0.0455 0.2072,0.1364 0.0392,0.091 0.0593,0.1936 0.0593,0.3067 0,0.1882 -0.0328,0.4124 -0.0994,0.6726 -0.0656,0.2601 -0.1417,0.4938 -0.2263,0.7 -0.0698,0.1724 -0.1544,0.3363 -0.2517,0.4949 -0.0984,0.1576 -0.2168,0.2898 -0.3564,0.3966 -0.1396,0.1068 -0.294,0.1597 -0.4632,0.1597 -0.2538,0 -0.4579,-0.0656 -0.6123,-0.1956 -0.1533,-0.1301 -0.2305,-0.3215 -0.2305,-0.5764z"/>
  <path class="fil4" d="M98.858 152.913c0,-0.1322 0.019,-0.2739 0.0571,-0.423 0.0381,-0.1502 0.0804,-0.2866 0.1258,-0.4093 0.0455,-0.1226 0.11,-0.2929 0.1925,-0.5097 0.0571,-0.1554 0.0867,-0.2844 0.0867,-0.387 0,-0.1301 -0.0486,-0.1957 -0.1459,-0.1957 -0.165,0 -0.3014,0.0846 -0.4072,0.2538 -0.1068,0.1692 -0.1893,0.3617 -0.2464,0.5764 -0.0105,0.0306 -0.0253,0.0465 -0.0433,0.0465l-0.0751 0c-0.0307,0 -0.0465,-0.0211 -0.0465,-0.0645 0.0645,-0.2506 0.1649,-0.4738 0.3024,-0.6705 0.1375,-0.1956 0.3141,-0.2939 0.5288,-0.2939 0.1459,0 0.2686,0.0486 0.3669,0.1469 0.0984,0.0984 0.147,0.2211 0.147,0.367 0,0.0793 -0.0169,0.1597 -0.0497,0.2422 -0.0497,0.1322 -0.1079,0.2887 -0.1745,0.4695 -0.0677,0.1808 -0.1195,0.3458 -0.1565,0.4939 -0.037,0.1491 -0.056,0.2908 -0.056,0.4251 0,0.1692 0.0423,0.3056 0.1269,0.4082 0.0846,0.1036 0.2093,0.1554 0.3754,0.1554 0.2168,0 0.4018,-0.1734 0.5573,-0.5203l0 -0.0994c0,-0.1258 0.0158,-0.257 0.0497,-0.3934l0.3616 -1.435c0.0127,-0.0571 0.0423,-0.1047 0.0899,-0.1417 0.0476,-0.0381 0.1005,-0.0561 0.1587,-0.0561 0.0497,0 0.0898,0.0149 0.1216,0.0445 0.0327,0.0306 0.0486,0.0708 0.0486,0.1226l0 0.0497 -0.3595 1.4351c-0.0413,0.1565 -0.0645,0.3066 -0.0709,0.4483 0,0.1576 0.0381,0.2877 0.1163,0.3913 0.0772,0.1026 0.1914,0.1544 0.3416,0.1544 0.3099,0 0.5626,-0.2411 0.7593,-0.7223 0.0603,-0.148 0.1184,-0.3225 0.1745,-0.5234 0.0571,-0.1999 0.0856,-0.3585 0.0856,-0.4738 0,-0.1205 -0.019,-0.2168 -0.056,-0.2919 -0.037,-0.074 -0.0857,-0.1501 -0.1449,-0.2294 -0.0603,-0.0783 -0.0899,-0.1343 -0.0899,-0.1703 0,-0.0804 0.0307,-0.1512 0.0941,-0.2115 0.0624,-0.0613 0.1322,-0.092 0.2084,-0.092 0.0994,0 0.1681,0.0455 0.2072,0.1364 0.0392,0.091 0.0593,0.1936 0.0593,0.3067 0,0.1216 -0.0201,0.2813 -0.0593,0.478 -0.0391,0.1956 -0.0846,0.3828 -0.1374,0.5605 -0.0529,0.1776 -0.109,0.3415 -0.1692,0.4928 -0.2348,0.5953 -0.551,0.8925 -0.9476,0.8925 -0.1734,0 -0.331,-0.0349 -0.4737,-0.1036 -0.1417,-0.0698 -0.2454,-0.1788 -0.3099,-0.3279 -0.167,0.2877 -0.3743,0.4315 -0.6218,0.4315 -0.1797,0 -0.3363,-0.0275 -0.4695,-0.0825 -0.1332,-0.0539 -0.239,-0.1406 -0.3162,-0.2601 -0.0772,-0.1185 -0.1163,-0.2655 -0.1163,-0.441z"/>
  <g>
   <path class="fil3" d="M91.1085 146.178l1.8266 1.6214 -0.264 0.2984 -1.8266 -1.6214 0.264 -0.2984zm-0.7005 1.037l-0.7245 -2.0356 2.1072 0.478 -1.3827 1.5576z"/>
  </g>
  <g>
   <path class="fil3" d="M98.119 88.7643l-1.5249 -1.6951 0.2968 -0.2672 1.5249 1.6951 -0.2968 0.2672zm0.8145 -0.9542l0.4931 2.1093 -2.0455 -0.7128 1.5524 -1.3965z"/>
  </g>
  <g>
   <path class="fil3" d="M90.2039 127.783l-1.9331 0.006 0 -0.3984 1.9331 -0.006 0 0.3984zm-0.1674 -1.2401l1.8964 1.0356 -1.89 1.0473 -0.0064 -2.0829z"/>
  </g>
  <path class="fil3" d="M83.8528 111.819c-0.117,0 -0.2164,-0.0317 -0.2982,-0.0952 -0.0818,-0.0634 -0.1438,-0.1452 -0.1847,-0.246 -0.0416,-0.1001 -0.0621,-0.208 -0.0621,-0.3222 0,-0.1318 0.0261,-0.2714 0.0783,-0.4173 0.0529,-0.146 0.1248,-0.2813 0.2157,-0.4061 0.0917,-0.1241 0.1995,-0.2256 0.3236,-0.3032 0.1241,-0.0782 0.2531,-0.117 0.3877,-0.117 0.0818,0 0.1551,0.0247 0.2214,0.0733 0.0663,0.0494 0.1163,0.1135 0.1509,0.1932 0.0176,-0.062 0.0395,-0.1079 0.0648,-0.1389 0.0254,-0.031 0.0649,-0.0465 0.1185,-0.0465 0.0317,0 0.0585,0.0092 0.081,0.0289 0.0219,0.019 0.0332,0.0458 0.0332,0.0804 0,0.0162 -0.0014,0.0275 -0.0042,0.0331l-0.2976 1.1935c-0.0197,0.0797 -0.0289,0.1474 -0.0289,0.2024 0,0.124 0.0423,0.1861 0.1276,0.1861 0.0621,0 0.115,-0.0317 0.1573,-0.0959 0.043,-0.0642 0.0747,-0.1297 0.0951,-0.1974 0.0205,-0.0677 0.043,-0.1544 0.0684,-0.2601 0.0064,-0.0198 0.0169,-0.0289 0.0303,-0.0289l0.0501 0c0.0084,0 0.0148,0.0042 0.0204,0.0119 0.0057,0.0085 0.0085,0.0184 0.0085,0.0289 -0.0458,0.1918 -0.098,0.3469 -0.1572,0.4653 -0.0592,0.1185 -0.1537,0.1777 -0.2827,0.1777 -0.0952,0 -0.1784,-0.0282 -0.2489,-0.0846 -0.0712,-0.0564 -0.1135,-0.1325 -0.1269,-0.2277 -0.0747,0.0895 -0.1586,0.1642 -0.2524,0.2235 -0.093,0.0592 -0.1896,0.0888 -0.289,0.0888zm0.0085 -0.1015c0.069,0 0.1374,-0.0198 0.2051,-0.0592 0.0684,-0.0388 0.1304,-0.0889 0.1868,-0.1495 0.0564,-0.0606 0.1051,-0.122 0.1445,-0.184 0.0029,0 0.0043,-0.0028 0.0043,-0.0078l0.2333 -0.9277c-0.0176,-0.1029 -0.0536,-0.1918 -0.1078,-0.2651 -0.055,-0.074 -0.129,-0.1107 -0.2221,-0.1107 -0.1417,0 -0.2665,0.079 -0.3744,0.2376 -0.1071,0.1586 -0.1903,0.3433 -0.2488,0.5555 -0.0585,0.2122 -0.0874,0.3878 -0.0874,0.5267 0,0.098 0.0218,0.1861 0.0648,0.2657 0.0437,0.079 0.1107,0.1185 0.2017,0.1185z"/>
  <path id="1" class="fil3" d="M86.0277 111.819c-0.117,0 -0.2164,-0.0317 -0.2982,-0.0952 -0.0818,-0.0634 -0.1438,-0.1452 -0.1847,-0.246 -0.0416,-0.1001 -0.0621,-0.208 -0.0621,-0.3222 0,-0.1318 0.0261,-0.2714 0.0783,-0.4173 0.0529,-0.146 0.1248,-0.2813 0.2157,-0.4061 0.0917,-0.1241 0.1995,-0.2256 0.3236,-0.3032 0.1241,-0.0782 0.2531,-0.117 0.3885,-0.117 0.081,0 0.1543,0.0247 0.2206,0.0733 0.0663,0.0494 0.1163,0.1135 0.1509,0.1932l0.2418 -0.9602c0.0134,-0.062 0.0204,-0.0994 0.0204,-0.1135 0,-0.0508 -0.0902,-0.0761 -0.2707,-0.0761 -0.0084,0 -0.0155,-0.0057 -0.0225,-0.0155 -0.0071,-0.0106 -0.0106,-0.0212 -0.0106,-0.0325l0.0169 -0.0655c0.0049,-0.0184 0.0169,-0.0275 0.0345,-0.0275l0.5542 -0.0451c0.0275,0 0.0409,0.0141 0.0409,0.0415l-0.6092 2.4407c0,0.0183 -0.0049,0.0529 -0.0148,0.1036 -0.0091,0.0508 -0.0141,0.0853 -0.0141,0.103 0,0.124 0.0423,0.1861 0.1276,0.1861 0.0621,0 0.115,-0.0317 0.1573,-0.0959 0.043,-0.0642 0.0747,-0.1297 0.0951,-0.1974 0.0205,-0.0677 0.043,-0.1544 0.0684,-0.2601 0.0064,-0.0198 0.0169,-0.0289 0.031,-0.0289l0.0494 0c0.0084,0 0.0148,0.0042 0.0204,0.0119 0.0057,0.0085 0.0085,0.0184 0.0085,0.0289 -0.0458,0.1918 -0.098,0.3469 -0.1572,0.4653 -0.0592,0.1185 -0.153,0.1777 -0.2827,0.1777 -0.0952,0 -0.1777,-0.0282 -0.2489,-0.0846 -0.0712,-0.0564 -0.1135,-0.1325 -0.1269,-0.2277 -0.0747,0.0895 -0.1586,0.1642 -0.2524,0.2235 -0.093,0.0592 -0.1896,0.0888 -0.289,0.0888zm0.0085 -0.1015c0.069,0 0.1374,-0.0198 0.2051,-0.0592 0.0684,-0.0388 0.1304,-0.0889 0.1868,-0.1495 0.0571,-0.0606 0.1051,-0.122 0.1453,-0.184 0.0021,0 0.0035,-0.0042 0.0035,-0.012l0.2333 -0.9235c-0.0176,-0.1029 -0.0536,-0.1918 -0.1078,-0.2651 -0.055,-0.074 -0.129,-0.1107 -0.2221,-0.1107 -0.1417,0 -0.2665,0.079 -0.3744,0.2376 -0.1071,0.1586 -0.1896,0.3433 -0.2481,0.5555 -0.0585,0.2122 -0.0881,0.3878 -0.0881,0.5267 0,0.098 0.0218,0.1861 0.0648,0.2657 0.0437,0.079 0.1107,0.1185 0.2017,0.1185z"/>
  <path id="12" class="fil3" d="M87.6273 112.508c0.0416,0.0204 0.0938,0.031 0.1572,0.031 0.1206,0 0.2256,-0.055 0.3137,-0.165 0.0875,-0.1107 0.1474,-0.2319 0.1791,-0.3638l0.4026 -1.6087c0.019,-0.0776 0.0289,-0.1445 0.0289,-0.2024 0,-0.0514 -0.0092,-0.0951 -0.0282,-0.1311 -0.0184,-0.0366 -0.0508,-0.055 -0.0973,-0.055 -0.1269,0 -0.2348,0.0557 -0.3236,0.1664 -0.0895,0.1107 -0.165,0.2439 -0.227,0.3997 -0.005,0.012 -0.0134,0.0184 -0.0247,0.0184l-0.0493 0c-0.0085,0 -0.0156,-0.0057 -0.0219,-0.0177 -0.0056,-0.0112 -0.0092,-0.0204 -0.0092,-0.0253 0.0677,-0.1728 0.1565,-0.3229 0.2658,-0.4505 0.11,-0.1283 0.2425,-0.1925 0.3983,-0.1925 0.0698,0 0.134,0.0162 0.1925,0.0494 0.0585,0.0331 0.1043,0.0789 0.1368,0.1374 0.0331,0.0585 0.05,0.1234 0.05,0.1932 0,0.043 -0.0042,0.0846 -0.0127,0.1241l-0.4025 1.6073c-0.0289,0.1157 -0.0825,0.22 -0.1601,0.3131 -0.0782,0.093 -0.1727,0.167 -0.2841,0.222 -0.1113,0.055 -0.2241,0.0825 -0.3384,0.0825 -0.0909,0 -0.1734,-0.0204 -0.2481,-0.062 -0.074,-0.0416 -0.1114,-0.1044 -0.1114,-0.1883 0,-0.062 0.0219,-0.1163 0.0656,-0.1628 0.0437,-0.0472 0.0973,-0.0705 0.1607,-0.0705 0.0416,0 0.0768,0.0127 0.1058,0.0381 0.0289,0.0253 0.0437,0.0599 0.0437,0.1022 0,0.05 -0.0155,0.0944 -0.0466,0.1332 -0.031,0.0395 -0.0698,0.0649 -0.1156,0.0776zm1.1329 -3.2937c0,-0.0578 0.0226,-0.1079 0.067,-0.1509 0.0451,-0.043 0.0952,-0.0648 0.1516,-0.0648 0.0458,0 0.0817,0.0134 0.1085,0.0401 0.0268,0.0268 0.0402,0.0614 0.0402,0.1037 0,0.0359 -0.0098,0.0705 -0.0296,0.1036 -0.0204,0.0338 -0.0479,0.0606 -0.0832,0.0811 -0.0345,0.0204 -0.0705,0.031 -0.1078,0.031 -0.0416,0 -0.0762,-0.0134 -0.1044,-0.0402 -0.0282,-0.0268 -0.0423,-0.0613 -0.0423,-0.1036z"/>
  <path id="123" class="fil3" d="M89.4383 112.546l0 -0.0431c0,-0.0053 0.0026,-0.0097 0.0061,-0.015 0.0036,-0.0044 0.0089,-0.0071 0.015,-0.0071 0.1287,0 0.2133,-0.0044 0.2539,-0.0123 0.0317,-0.0097 0.0476,-0.0344 0.0476,-0.0741l0 -0.8575c-0.0776,0.0255 -0.1807,0.0379 -0.3094,0.0379 -0.0194,0 -0.03,-0.0071 -0.03,-0.0212l0 -0.0423c0,-0.0123 0.0088,-0.0203 0.0247,-0.0247 0.0934,0 0.178,-0.007 0.2538,-0.022 0.0758,-0.015 0.1428,-0.0432 0.201,-0.0864 0.0035,-0.0035 0.0088,-0.0053 0.0176,-0.0053 0.008,0 0.0141,0.0018 0.0194,0.0062 0.0053,0.0035 0.0079,0.0088 0.0079,0.0159l0 0.9994c0,0.0397 0.0159,0.0644 0.0476,0.0741 0.0221,0.0044 0.0547,0.007 0.0979,0.0097 0.044,0.0017 0.096,0.0026 0.1551,0.0026 0.0062,0 0.0114,0.0027 0.0159,0.0071 0.0044,0.0053 0.0061,0.0097 0.0061,0.015l0 0.0431c0,0.015 -0.0079,0.023 -0.0247,0.023l-0.7817 0c-0.0159,0 -0.0238,-0.008 -0.0238,-0.023z"/>
  <path id="1234" class="fil5 str4" d="M83.8528 111.819c-0.117,0 -0.2164,-0.0317 -0.2982,-0.0952 -0.0818,-0.0634 -0.1438,-0.1452 -0.1847,-0.246 -0.0416,-0.1001 -0.0621,-0.208 -0.0621,-0.3222 0,-0.1318 0.0261,-0.2714 0.0783,-0.4173 0.0529,-0.146 0.1248,-0.2813 0.2157,-0.4061 0.0917,-0.1241 0.1995,-0.2256 0.3236,-0.3032 0.1241,-0.0782 0.2531,-0.117 0.3877,-0.117 0.0818,0 0.1551,0.0247 0.2214,0.0733 0.0663,0.0494 0.1163,0.1135 0.1509,0.1932 0.0176,-0.062 0.0395,-0.1079 0.0648,-0.1389 0.0254,-0.031 0.0649,-0.0465 0.1185,-0.0465 0.0317,0 0.0585,0.0092 0.081,0.0289 0.0219,0.019 0.0332,0.0458 0.0332,0.0804 0,0.0162 -0.0014,0.0275 -0.0042,0.0331l-0.2976 1.1935c-0.0197,0.0797 -0.0289,0.1474 -0.0289,0.2024 0,0.124 0.0423,0.1861 0.1276,0.1861 0.0621,0 0.115,-0.0317 0.1573,-0.0959 0.043,-0.0642 0.0747,-0.1297 0.0951,-0.1974 0.0205,-0.0677 0.043,-0.1544 0.0684,-0.2601 0.0064,-0.0198 0.0169,-0.0289 0.0303,-0.0289l0.0501 0c0.0084,0 0.0148,0.0042 0.0204,0.0119 0.0057,0.0085 0.0085,0.0184 0.0085,0.0289 -0.0458,0.1918 -0.098,0.3469 -0.1572,0.4653 -0.0592,0.1185 -0.1537,0.1777 -0.2827,0.1777 -0.0952,0 -0.1784,-0.0282 -0.2489,-0.0846 -0.0712,-0.0564 -0.1135,-0.1325 -0.1269,-0.2277 -0.0747,0.0895 -0.1586,0.1642 -0.2524,0.2235 -0.093,0.0592 -0.1896,0.0888 -0.289,0.0888zm0.0085 -0.1015c0.069,0 0.1374,-0.0198 0.2051,-0.0592 0.0684,-0.0388 0.1304,-0.0889 0.1868,-0.1495 0.0564,-0.0606 0.1051,-0.122 0.1445,-0.184 0.0029,0 0.0043,-0.0028 0.0043,-0.0078l0.2333 -0.9277c-0.0176,-0.1029 -0.0536,-0.1918 -0.1078,-0.2651 -0.055,-0.074 -0.129,-0.1107 -0.2221,-0.1107 -0.1417,0 -0.2665,0.079 -0.3744,0.2376 -0.1071,0.1586 -0.1903,0.3433 -0.2488,0.5555 -0.0585,0.2122 -0.0874,0.3878 -0.0874,0.5267 0,0.098 0.0218,0.1861 0.0648,0.2657 0.0437,0.079 0.1107,0.1185 0.2017,0.1185z"/>
  <path id="12345" class="fil5 str4" d="M86.0277 111.819c-0.117,0 -0.2164,-0.0317 -0.2982,-0.0952 -0.0818,-0.0634 -0.1438,-0.1452 -0.1847,-0.246 -0.0416,-0.1001 -0.0621,-0.208 -0.0621,-0.3222 0,-0.1318 0.0261,-0.2714 0.0783,-0.4173 0.0529,-0.146 0.1248,-0.2813 0.2157,-0.4061 0.0917,-0.1241 0.1995,-0.2256 0.3236,-0.3032 0.1241,-0.0782 0.2531,-0.117 0.3885,-0.117 0.081,0 0.1543,0.0247 0.2206,0.0733 0.0663,0.0494 0.1163,0.1135 0.1509,0.1932l0.2418 -0.9602c0.0134,-0.062 0.0204,-0.0994 0.0204,-0.1135 0,-0.0508 -0.0902,-0.0761 -0.2707,-0.0761 -0.0084,0 -0.0155,-0.0057 -0.0225,-0.0155 -0.0071,-0.0106 -0.0106,-0.0212 -0.0106,-0.0325l0.0169 -0.0655c0.0049,-0.0184 0.0169,-0.0275 0.0345,-0.0275l0.5542 -0.0451c0.0275,0 0.0409,0.0141 0.0409,0.0415l-0.6092 2.4407c0,0.0183 -0.0049,0.0529 -0.0148,0.1036 -0.0091,0.0508 -0.0141,0.0853 -0.0141,0.103 0,0.124 0.0423,0.1861 0.1276,0.1861 0.0621,0 0.115,-0.0317 0.1573,-0.0959 0.043,-0.0642 0.0747,-0.1297 0.0951,-0.1974 0.0205,-0.0677 0.043,-0.1544 0.0684,-0.2601 0.0064,-0.0198 0.0169,-0.0289 0.031,-0.0289l0.0494 0c0.0084,0 0.0148,0.0042 0.0204,0.0119 0.0057,0.0085 0.0085,0.0184 0.0085,0.0289 -0.0458,0.1918 -0.098,0.3469 -0.1572,0.4653 -0.0592,0.1185 -0.153,0.1777 -0.2827,0.1777 -0.0952,0 -0.1777,-0.0282 -0.2489,-0.0846 -0.0712,-0.0564 -0.1135,-0.1325 -0.1269,-0.2277 -0.0747,0.0895 -0.1586,0.1642 -0.2524,0.2235 -0.093,0.0592 -0.1896,0.0888 -0.289,0.0888zm0.0085 -0.1015c0.069,0 0.1374,-0.0198 0.2051,-0.0592 0.0684,-0.0388 0.1304,-0.0889 0.1868,-0.1495 0.0571,-0.0606 0.1051,-0.122 0.1453,-0.184 0.0021,0 0.0035,-0.0042 0.0035,-0.012l0.2333 -0.9235c-0.0176,-0.1029 -0.0536,-0.1918 -0.1078,-0.2651 -0.055,-0.074 -0.129,-0.1107 -0.2221,-0.1107 -0.1417,0 -0.2665,0.079 -0.3744,0.2376 -0.1071,0.1586 -0.1896,0.3433 -0.2481,0.5555 -0.0585,0.2122 -0.0881,0.3878 -0.0881,0.5267 0,0.098 0.0218,0.1861 0.0648,0.2657 0.0437,0.079 0.1107,0.1185 0.2017,0.1185z"/>
  <path id="123456" class="fil5 str4" d="M87.6273 112.508c0.0416,0.0204 0.0938,0.031 0.1572,0.031 0.1206,0 0.2256,-0.055 0.3137,-0.165 0.0875,-0.1107 0.1474,-0.2319 0.1791,-0.3638l0.4026 -1.6087c0.019,-0.0776 0.0289,-0.1445 0.0289,-0.2024 0,-0.0514 -0.0092,-0.0951 -0.0282,-0.1311 -0.0184,-0.0366 -0.0508,-0.055 -0.0973,-0.055 -0.1269,0 -0.2348,0.0557 -0.3236,0.1664 -0.0895,0.1107 -0.165,0.2439 -0.227,0.3997 -0.005,0.012 -0.0134,0.0184 -0.0247,0.0184l-0.0493 0c-0.0085,0 -0.0156,-0.0057 -0.0219,-0.0177 -0.0056,-0.0112 -0.0092,-0.0204 -0.0092,-0.0253 0.0677,-0.1728 0.1565,-0.3229 0.2658,-0.4505 0.11,-0.1283 0.2425,-0.1925 0.3983,-0.1925 0.0698,0 0.134,0.0162 0.1925,0.0494 0.0585,0.0331 0.1043,0.0789 0.1368,0.1374 0.0331,0.0585 0.05,0.1234 0.05,0.1932 0,0.043 -0.0042,0.0846 -0.0127,0.1241l-0.4025 1.6073c-0.0289,0.1157 -0.0825,0.22 -0.1601,0.3131 -0.0782,0.093 -0.1727,0.167 -0.2841,0.222 -0.1113,0.055 -0.2241,0.0825 -0.3384,0.0825 -0.0909,0 -0.1734,-0.0204 -0.2481,-0.062 -0.074,-0.0416 -0.1114,-0.1044 -0.1114,-0.1883 0,-0.062 0.0219,-0.1163 0.0656,-0.1628 0.0437,-0.0472 0.0973,-0.0705 0.1607,-0.0705 0.0416,0 0.0768,0.0127 0.1058,0.0381 0.0289,0.0253 0.0437,0.0599 0.0437,0.1022 0,0.05 -0.0155,0.0944 -0.0466,0.1332 -0.031,0.0395 -0.0698,0.0649 -0.1156,0.0776zm1.1329 -3.2937c0,-0.0578 0.0226,-0.1079 0.067,-0.1509 0.0451,-0.043 0.0952,-0.0648 0.1516,-0.0648 0.0458,0 0.0817,0.0134 0.1085,0.0401 0.0268,0.0268 0.0402,0.0614 0.0402,0.1037 0,0.0359 -0.0098,0.0705 -0.0296,0.1036 -0.0204,0.0338 -0.0479,0.0606 -0.0832,0.0811 -0.0345,0.0204 -0.0705,0.031 -0.1078,0.031 -0.0416,0 -0.0762,-0.0134 -0.1044,-0.0402 -0.0282,-0.0268 -0.0423,-0.0613 -0.0423,-0.1036z"/>
  <path id="1234567" class="fil5 str4" d="M89.4383 112.546l0 -0.0431c0,-0.0053 0.0026,-0.0097 0.0061,-0.015 0.0036,-0.0044 0.0089,-0.0071 0.015,-0.0071 0.1287,0 0.2133,-0.0044 0.2539,-0.0123 0.0317,-0.0097 0.0476,-0.0344 0.0476,-0.0741l0 -0.8575c-0.0776,0.0255 -0.1807,0.0379 -0.3094,0.0379 -0.0194,0 -0.03,-0.0071 -0.03,-0.0212l0 -0.0423c0,-0.0123 0.0088,-0.0203 0.0247,-0.0247 0.0934,0 0.178,-0.007 0.2538,-0.022 0.0758,-0.015 0.1428,-0.0432 0.201,-0.0864 0.0035,-0.0035 0.0088,-0.0053 0.0176,-0.0053 0.008,0 0.0141,0.0018 0.0194,0.0062 0.0053,0.0035 0.0079,0.0088 0.0079,0.0159l0 0.9994c0,0.0397 0.0159,0.0644 0.0476,0.0741 0.0221,0.0044 0.0547,0.007 0.0979,0.0097 0.044,0.0017 0.096,0.0026 0.1551,0.0026 0.0062,0 0.0114,0.0027 0.0159,0.0071 0.0044,0.0053 0.0061,0.0097 0.0061,0.015l0 0.0431c0,0.015 -0.0079,0.023 -0.0247,0.023l-0.7817 0c-0.0159,0 -0.0238,-0.008 -0.0238,-0.023z"/>
  <path class="fil3" d="M87.0496 132.287c-0.117,0 -0.2164,-0.0317 -0.2982,-0.0952 -0.0818,-0.0634 -0.1438,-0.1452 -0.1847,-0.246 -0.0416,-0.1001 -0.0621,-0.208 -0.0621,-0.3222 0,-0.1318 0.0261,-0.2714 0.0783,-0.4173 0.0529,-0.146 0.1248,-0.2813 0.2157,-0.4061 0.0917,-0.1241 0.1995,-0.2256 0.3236,-0.3032 0.1241,-0.0782 0.2531,-0.117 0.3877,-0.117 0.0818,0 0.1551,0.0247 0.2214,0.0733 0.0663,0.0494 0.1163,0.1135 0.1509,0.1932 0.0176,-0.062 0.0395,-0.1079 0.0648,-0.1389 0.0254,-0.031 0.0649,-0.0465 0.1185,-0.0465 0.0317,0 0.0585,0.0092 0.081,0.0289 0.0219,0.019 0.0332,0.0458 0.0332,0.0804 0,0.0162 -0.0014,0.0275 -0.0042,0.0331l-0.2976 1.1935c-0.0197,0.0797 -0.0289,0.1474 -0.0289,0.2024 0,0.124 0.0423,0.1861 0.1276,0.1861 0.0621,0 0.115,-0.0317 0.1573,-0.0959 0.043,-0.0642 0.0747,-0.1297 0.0951,-0.1974 0.0205,-0.0677 0.043,-0.1544 0.0684,-0.2601 0.0064,-0.0198 0.0169,-0.0289 0.0303,-0.0289l0.0501 0c0.0084,0 0.0148,0.0042 0.0204,0.0119 0.0057,0.0085 0.0085,0.0184 0.0085,0.0289 -0.0458,0.1918 -0.098,0.3469 -0.1572,0.4653 -0.0592,0.1185 -0.1537,0.1777 -0.2827,0.1777 -0.0952,0 -0.1784,-0.0282 -0.2489,-0.0846 -0.0712,-0.0564 -0.1135,-0.1325 -0.1269,-0.2277 -0.0747,0.0895 -0.1586,0.1642 -0.2524,0.2235 -0.093,0.0592 -0.1896,0.0888 -0.289,0.0888zm0.0085 -0.1015c0.069,0 0.1374,-0.0198 0.2051,-0.0592 0.0684,-0.0388 0.1304,-0.0889 0.1868,-0.1495 0.0564,-0.0606 0.1051,-0.122 0.1445,-0.184 0.0029,0 0.0043,-0.0028 0.0043,-0.0078l0.2333 -0.9277c-0.0176,-0.1029 -0.0536,-0.1918 -0.1078,-0.2651 -0.055,-0.074 -0.129,-0.1107 -0.2221,-0.1107 -0.1417,0 -0.2665,0.079 -0.3744,0.2376 -0.1071,0.1586 -0.1903,0.3433 -0.2488,0.5555 -0.0585,0.2122 -0.0874,0.3878 -0.0874,0.5267 0,0.098 0.0218,0.1861 0.0648,0.2657 0.0437,0.079 0.1107,0.1185 0.2017,0.1185z"/>
  <path id="1" class="fil3" d="M89.2245 132.287c-0.117,0 -0.2164,-0.0317 -0.2982,-0.0952 -0.0818,-0.0634 -0.1438,-0.1452 -0.1847,-0.246 -0.0416,-0.1001 -0.0621,-0.208 -0.0621,-0.3222 0,-0.1318 0.0261,-0.2714 0.0783,-0.4173 0.0529,-0.146 0.1248,-0.2813 0.2157,-0.4061 0.0917,-0.1241 0.1995,-0.2256 0.3236,-0.3032 0.1241,-0.0782 0.2531,-0.117 0.3885,-0.117 0.081,0 0.1543,0.0247 0.2206,0.0733 0.0663,0.0494 0.1163,0.1135 0.1509,0.1932l0.2418 -0.9602c0.0134,-0.062 0.0204,-0.0994 0.0204,-0.1135 0,-0.0508 -0.0902,-0.0761 -0.2707,-0.0761 -0.0084,0 -0.0155,-0.0057 -0.0225,-0.0155 -0.0071,-0.0106 -0.0106,-0.0212 -0.0106,-0.0325l0.0169 -0.0655c0.0049,-0.0184 0.0169,-0.0275 0.0345,-0.0275l0.5542 -0.0451c0.0275,0 0.0409,0.0141 0.0409,0.0415l-0.6092 2.4407c0,0.0183 -0.0049,0.0529 -0.0148,0.1036 -0.0091,0.0508 -0.0141,0.0853 -0.0141,0.103 0,0.124 0.0423,0.1861 0.1276,0.1861 0.0621,0 0.115,-0.0317 0.1573,-0.0959 0.043,-0.0642 0.0747,-0.1297 0.0951,-0.1974 0.0205,-0.0677 0.043,-0.1544 0.0684,-0.2601 0.0064,-0.0198 0.0169,-0.0289 0.031,-0.0289l0.0494 0c0.0084,0 0.0148,0.0042 0.0204,0.0119 0.0057,0.0085 0.0085,0.0184 0.0085,0.0289 -0.0458,0.1918 -0.098,0.3469 -0.1572,0.4653 -0.0592,0.1185 -0.153,0.1777 -0.2827,0.1777 -0.0952,0 -0.1777,-0.0282 -0.2489,-0.0846 -0.0712,-0.0564 -0.1135,-0.1325 -0.1269,-0.2277 -0.0747,0.0895 -0.1586,0.1642 -0.2524,0.2235 -0.093,0.0592 -0.1896,0.0888 -0.289,0.0888zm0.0085 -0.1015c0.069,0 0.1374,-0.0198 0.2051,-0.0592 0.0684,-0.0388 0.1304,-0.0889 0.1868,-0.1495 0.0571,-0.0606 0.1051,-0.122 0.1453,-0.184 0.0021,0 0.0035,-0.0042 0.0035,-0.012l0.2333 -0.9235c-0.0176,-0.1029 -0.0536,-0.1918 -0.1078,-0.2651 -0.055,-0.074 -0.129,-0.1107 -0.2221,-0.1107 -0.1417,0 -0.2665,0.079 -0.3744,0.2376 -0.1071,0.1586 -0.1896,0.3433 -0.2481,0.5555 -0.0585,0.2122 -0.0881,0.3878 -0.0881,0.5267 0,0.098 0.0218,0.1861 0.0648,0.2657 0.0437,0.079 0.1107,0.1185 0.2017,0.1185z"/>
  <path id="12" class="fil3" d="M90.8241 132.976c0.0416,0.0204 0.0938,0.031 0.1572,0.031 0.1206,0 0.2256,-0.055 0.3137,-0.165 0.0875,-0.1107 0.1474,-0.2319 0.1791,-0.3638l0.4026 -1.6087c0.019,-0.0776 0.0289,-0.1445 0.0289,-0.2024 0,-0.0514 -0.0092,-0.0951 -0.0282,-0.1311 -0.0184,-0.0366 -0.0508,-0.055 -0.0973,-0.055 -0.1269,0 -0.2348,0.0557 -0.3236,0.1664 -0.0895,0.1107 -0.165,0.2439 -0.227,0.3997 -0.005,0.012 -0.0134,0.0184 -0.0247,0.0184l-0.0493 0c-0.0085,0 -0.0156,-0.0057 -0.0219,-0.0177 -0.0056,-0.0112 -0.0092,-0.0204 -0.0092,-0.0253 0.0677,-0.1728 0.1565,-0.3229 0.2658,-0.4505 0.11,-0.1283 0.2425,-0.1925 0.3983,-0.1925 0.0698,0 0.134,0.0162 0.1925,0.0494 0.0585,0.0331 0.1043,0.0789 0.1368,0.1374 0.0331,0.0585 0.05,0.1234 0.05,0.1932 0,0.043 -0.0042,0.0846 -0.0127,0.1241l-0.4025 1.6073c-0.0289,0.1157 -0.0825,0.22 -0.1601,0.3131 -0.0782,0.093 -0.1727,0.167 -0.2841,0.222 -0.1113,0.055 -0.2241,0.0825 -0.3384,0.0825 -0.0909,0 -0.1734,-0.0204 -0.2481,-0.062 -0.074,-0.0416 -0.1114,-0.1044 -0.1114,-0.1883 0,-0.062 0.0219,-0.1163 0.0656,-0.1628 0.0437,-0.0472 0.0973,-0.0705 0.1607,-0.0705 0.0416,0 0.0768,0.0127 0.1058,0.0381 0.0289,0.0253 0.0437,0.0599 0.0437,0.1022 0,0.05 -0.0155,0.0944 -0.0466,0.1332 -0.031,0.0395 -0.0698,0.0649 -0.1156,0.0776zm1.1329 -3.2937c0,-0.0578 0.0226,-0.1079 0.067,-0.1509 0.0451,-0.043 0.0952,-0.0648 0.1516,-0.0648 0.0458,0 0.0817,0.0134 0.1085,0.0401 0.0268,0.0268 0.0402,0.0614 0.0402,0.1037 0,0.0359 -0.0098,0.0705 -0.0296,0.1036 -0.0204,0.0338 -0.0479,0.0606 -0.0832,0.0811 -0.0345,0.0204 -0.0705,0.031 -0.1078,0.031 -0.0416,0 -0.0762,-0.0134 -0.1044,-0.0402 -0.0282,-0.0268 -0.0423,-0.0613 -0.0423,-0.1036z"/>
  <path id="123" class="fil3" d="M92.4949 133.014l0 -0.0484c-0.0017,0 0.0009,-0.0036 0.008,-0.0097l0.4336 -0.305c0.0256,-0.0167 0.067,-0.0449 0.1243,-0.0837 0.0564,-0.0388 0.1022,-0.074 0.1366,-0.1067 0.0344,-0.0317 0.0634,-0.0687 0.0872,-0.1092 0.0238,-0.0406 0.0353,-0.0864 0.0353,-0.1367 0,-0.0951 -0.0388,-0.1665 -0.1172,-0.2141 -0.0785,-0.0467 -0.1692,-0.0705 -0.2715,-0.0705 -0.0626,0 -0.1225,0.0132 -0.1789,0.0396 -0.0564,0.0256 -0.0978,0.0652 -0.1243,0.1164 0.0238,0 0.0441,0.0097 0.0608,0.029 0.0168,0.0194 0.0256,0.0415 0.0256,0.0653 0,0.0273 -0.0088,0.0502 -0.0273,0.0696 -0.0176,0.0185 -0.0406,0.0282 -0.0688,0.0282 -0.0273,0 -0.0502,-0.0097 -0.0687,-0.0291 -0.0185,-0.0194 -0.0273,-0.0423 -0.0273,-0.0687 0,-0.0749 0.0238,-0.1375 0.0714,-0.1886 0.0475,-0.0512 0.1075,-0.0882 0.1806,-0.1129 0.0732,-0.0246 0.1446,-0.037 0.2151,-0.037 0.0617,0 0.126,0.0062 0.1912,0.0185 0.0653,0.0124 0.1252,0.0335 0.1798,0.0617 0.0547,0.0291 0.0988,0.0679 0.1322,0.1155 0.0327,0.0476 0.0494,0.1066 0.0494,0.1771 0,0.0609 -0.0167,0.1155 -0.0502,0.1631 -0.0335,0.0485 -0.0741,0.0873 -0.1225,0.119 -0.0476,0.0317 -0.1093,0.0661 -0.186,0.1049 -0.0767,0.0379 -0.1287,0.0652 -0.1569,0.0819l-0.2917 0.1789 0.252 0c0.2521,0 0.3967,-0.0026 0.4337,-0.0079 0.0176,-0.022 0.0361,-0.0714 0.0555,-0.1481 0,-0.0105 0.0071,-0.0158 0.0212,-0.0158l0.0246 0c0.0044,0 0.0097,0.0035 0.0141,0.0088 0.0044,0.0062 0.0062,0.0123 0.0062,0.0176l-0.0687 0.3014c-0.0027,0.0124 -0.0097,0.0186 -0.0221,0.0186l-0.9316 0c-0.0167,0 -0.0247,-0.008 -0.0247,-0.023z"/>
  <path id="1234" class="fil5 str4" d="M87.0496 132.287c-0.117,0 -0.2164,-0.0317 -0.2982,-0.0952 -0.0818,-0.0634 -0.1438,-0.1452 -0.1847,-0.246 -0.0416,-0.1001 -0.0621,-0.208 -0.0621,-0.3222 0,-0.1318 0.0261,-0.2714 0.0783,-0.4173 0.0529,-0.146 0.1248,-0.2813 0.2157,-0.4061 0.0917,-0.1241 0.1995,-0.2256 0.3236,-0.3032 0.1241,-0.0782 0.2531,-0.117 0.3877,-0.117 0.0818,0 0.1551,0.0247 0.2214,0.0733 0.0663,0.0494 0.1163,0.1135 0.1509,0.1932 0.0176,-0.062 0.0395,-0.1079 0.0648,-0.1389 0.0254,-0.031 0.0649,-0.0465 0.1185,-0.0465 0.0317,0 0.0585,0.0092 0.081,0.0289 0.0219,0.019 0.0332,0.0458 0.0332,0.0804 0,0.0162 -0.0014,0.0275 -0.0042,0.0331l-0.2976 1.1935c-0.0197,0.0797 -0.0289,0.1474 -0.0289,0.2024 0,0.124 0.0423,0.1861 0.1276,0.1861 0.0621,0 0.115,-0.0317 0.1573,-0.0959 0.043,-0.0642 0.0747,-0.1297 0.0951,-0.1974 0.0205,-0.0677 0.043,-0.1544 0.0684,-0.2601 0.0064,-0.0198 0.0169,-0.0289 0.0303,-0.0289l0.0501 0c0.0084,0 0.0148,0.0042 0.0204,0.0119 0.0057,0.0085 0.0085,0.0184 0.0085,0.0289 -0.0458,0.1918 -0.098,0.3469 -0.1572,0.4653 -0.0592,0.1185 -0.1537,0.1777 -0.2827,0.1777 -0.0952,0 -0.1784,-0.0282 -0.2489,-0.0846 -0.0712,-0.0564 -0.1135,-0.1325 -0.1269,-0.2277 -0.0747,0.0895 -0.1586,0.1642 -0.2524,0.2235 -0.093,0.0592 -0.1896,0.0888 -0.289,0.0888zm0.0085 -0.1015c0.069,0 0.1374,-0.0198 0.2051,-0.0592 0.0684,-0.0388 0.1304,-0.0889 0.1868,-0.1495 0.0564,-0.0606 0.1051,-0.122 0.1445,-0.184 0.0029,0 0.0043,-0.0028 0.0043,-0.0078l0.2333 -0.9277c-0.0176,-0.1029 -0.0536,-0.1918 -0.1078,-0.2651 -0.055,-0.074 -0.129,-0.1107 -0.2221,-0.1107 -0.1417,0 -0.2665,0.079 -0.3744,0.2376 -0.1071,0.1586 -0.1903,0.3433 -0.2488,0.5555 -0.0585,0.2122 -0.0874,0.3878 -0.0874,0.5267 0,0.098 0.0218,0.1861 0.0648,0.2657 0.0437,0.079 0.1107,0.1185 0.2017,0.1185z"/>
  <path id="12345" class="fil5 str4" d="M89.2245 132.287c-0.117,0 -0.2164,-0.0317 -0.2982,-0.0952 -0.0818,-0.0634 -0.1438,-0.1452 -0.1847,-0.246 -0.0416,-0.1001 -0.0621,-0.208 -0.0621,-0.3222 0,-0.1318 0.0261,-0.2714 0.0783,-0.4173 0.0529,-0.146 0.1248,-0.2813 0.2157,-0.4061 0.0917,-0.1241 0.1995,-0.2256 0.3236,-0.3032 0.1241,-0.0782 0.2531,-0.117 0.3885,-0.117 0.081,0 0.1543,0.0247 0.2206,0.0733 0.0663,0.0494 0.1163,0.1135 0.1509,0.1932l0.2418 -0.9602c0.0134,-0.062 0.0204,-0.0994 0.0204,-0.1135 0,-0.0508 -0.0902,-0.0761 -0.2707,-0.0761 -0.0084,0 -0.0155,-0.0057 -0.0225,-0.0155 -0.0071,-0.0106 -0.0106,-0.0212 -0.0106,-0.0325l0.0169 -0.0655c0.0049,-0.0184 0.0169,-0.0275 0.0345,-0.0275l0.5542 -0.0451c0.0275,0 0.0409,0.0141 0.0409,0.0415l-0.6092 2.4407c0,0.0183 -0.0049,0.0529 -0.0148,0.1036 -0.0091,0.0508 -0.0141,0.0853 -0.0141,0.103 0,0.124 0.0423,0.1861 0.1276,0.1861 0.0621,0 0.115,-0.0317 0.1573,-0.0959 0.043,-0.0642 0.0747,-0.1297 0.0951,-0.1974 0.0205,-0.0677 0.043,-0.1544 0.0684,-0.2601 0.0064,-0.0198 0.0169,-0.0289 0.031,-0.0289l0.0494 0c0.0084,0 0.0148,0.0042 0.0204,0.0119 0.0057,0.0085 0.0085,0.0184 0.0085,0.0289 -0.0458,0.1918 -0.098,0.3469 -0.1572,0.4653 -0.0592,0.1185 -0.153,0.1777 -0.2827,0.1777 -0.0952,0 -0.1777,-0.0282 -0.2489,-0.0846 -0.0712,-0.0564 -0.1135,-0.1325 -0.1269,-0.2277 -0.0747,0.0895 -0.1586,0.1642 -0.2524,0.2235 -0.093,0.0592 -0.1896,0.0888 -0.289,0.0888zm0.0085 -0.1015c0.069,0 0.1374,-0.0198 0.2051,-0.0592 0.0684,-0.0388 0.1304,-0.0889 0.1868,-0.1495 0.0571,-0.0606 0.1051,-0.122 0.1453,-0.184 0.0021,0 0.0035,-0.0042 0.0035,-0.012l0.2333 -0.9235c-0.0176,-0.1029 -0.0536,-0.1918 -0.1078,-0.2651 -0.055,-0.074 -0.129,-0.1107 -0.2221,-0.1107 -0.1417,0 -0.2665,0.079 -0.3744,0.2376 -0.1071,0.1586 -0.1896,0.3433 -0.2481,0.5555 -0.0585,0.2122 -0.0881,0.3878 -0.0881,0.5267 0,0.098 0.0218,0.1861 0.0648,0.2657 0.0437,0.079 0.1107,0.1185 0.2017,0.1185z"/>
  <path id="123456" class="fil5 str4" d="M90.8241 132.976c0.0416,0.0204 0.0938,0.031 0.1572,0.031 0.1206,0 0.2256,-0.055 0.3137,-0.165 0.0875,-0.1107 0.1474,-0.2319 0.1791,-0.3638l0.4026 -1.6087c0.019,-0.0776 0.0289,-0.1445 0.0289,-0.2024 0,-0.0514 -0.0092,-0.0951 -0.0282,-0.1311 -0.0184,-0.0366 -0.0508,-0.055 -0.0973,-0.055 -0.1269,0 -0.2348,0.0557 -0.3236,0.1664 -0.0895,0.1107 -0.165,0.2439 -0.227,0.3997 -0.005,0.012 -0.0134,0.0184 -0.0247,0.0184l-0.0493 0c-0.0085,0 -0.0156,-0.0057 -0.0219,-0.0177 -0.0056,-0.0112 -0.0092,-0.0204 -0.0092,-0.0253 0.0677,-0.1728 0.1565,-0.3229 0.2658,-0.4505 0.11,-0.1283 0.2425,-0.1925 0.3983,-0.1925 0.0698,0 0.134,0.0162 0.1925,0.0494 0.0585,0.0331 0.1043,0.0789 0.1368,0.1374 0.0331,0.0585 0.05,0.1234 0.05,0.1932 0,0.043 -0.0042,0.0846 -0.0127,0.1241l-0.4025 1.6073c-0.0289,0.1157 -0.0825,0.22 -0.1601,0.3131 -0.0782,0.093 -0.1727,0.167 -0.2841,0.222 -0.1113,0.055 -0.2241,0.0825 -0.3384,0.0825 -0.0909,0 -0.1734,-0.0204 -0.2481,-0.062 -0.074,-0.0416 -0.1114,-0.1044 -0.1114,-0.1883 0,-0.062 0.0219,-0.1163 0.0656,-0.1628 0.0437,-0.0472 0.0973,-0.0705 0.1607,-0.0705 0.0416,0 0.0768,0.0127 0.1058,0.0381 0.0289,0.0253 0.0437,0.0599 0.0437,0.1022 0,0.05 -0.0155,0.0944 -0.0466,0.1332 -0.031,0.0395 -0.0698,0.0649 -0.1156,0.0776zm1.1329 -3.2937c0,-0.0578 0.0226,-0.1079 0.067,-0.1509 0.0451,-0.043 0.0952,-0.0648 0.1516,-0.0648 0.0458,0 0.0817,0.0134 0.1085,0.0401 0.0268,0.0268 0.0402,0.0614 0.0402,0.1037 0,0.0359 -0.0098,0.0705 -0.0296,0.1036 -0.0204,0.0338 -0.0479,0.0606 -0.0832,0.0811 -0.0345,0.0204 -0.0705,0.031 -0.1078,0.031 -0.0416,0 -0.0762,-0.0134 -0.1044,-0.0402 -0.0282,-0.0268 -0.0423,-0.0613 -0.0423,-0.1036z"/>
  <path id="1234567" class="fil5 str4" d="M92.4949 133.014l0 -0.0484c-0.0017,0 0.0009,-0.0036 0.008,-0.0097l0.4336 -0.305c0.0256,-0.0167 0.067,-0.0449 0.1243,-0.0837 0.0564,-0.0388 0.1022,-0.074 0.1366,-0.1067 0.0344,-0.0317 0.0634,-0.0687 0.0872,-0.1092 0.0238,-0.0406 0.0353,-0.0864 0.0353,-0.1367 0,-0.0951 -0.0388,-0.1665 -0.1172,-0.2141 -0.0785,-0.0467 -0.1692,-0.0705 -0.2715,-0.0705 -0.0626,0 -0.1225,0.0132 -0.1789,0.0396 -0.0564,0.0256 -0.0978,0.0652 -0.1243,0.1164 0.0238,0 0.0441,0.0097 0.0608,0.029 0.0168,0.0194 0.0256,0.0415 0.0256,0.0653 0,0.0273 -0.0088,0.0502 -0.0273,0.0696 -0.0176,0.0185 -0.0406,0.0282 -0.0688,0.0282 -0.0273,0 -0.0502,-0.0097 -0.0687,-0.0291 -0.0185,-0.0194 -0.0273,-0.0423 -0.0273,-0.0687 0,-0.0749 0.0238,-0.1375 0.0714,-0.1886 0.0475,-0.0512 0.1075,-0.0882 0.1806,-0.1129 0.0732,-0.0246 0.1446,-0.037 0.2151,-0.037 0.0617,0 0.126,0.0062 0.1912,0.0185 0.0653,0.0124 0.1252,0.0335 0.1798,0.0617 0.0547,0.0291 0.0988,0.0679 0.1322,0.1155 0.0327,0.0476 0.0494,0.1066 0.0494,0.1771 0,0.0609 -0.0167,0.1155 -0.0502,0.1631 -0.0335,0.0485 -0.0741,0.0873 -0.1225,0.119 -0.0476,0.0317 -0.1093,0.0661 -0.186,0.1049 -0.0767,0.0379 -0.1287,0.0652 -0.1569,0.0819l-0.2917 0.1789 0.252 0c0.2521,0 0.3967,-0.0026 0.4337,-0.0079 0.0176,-0.022 0.0361,-0.0714 0.0555,-0.1481 0,-0.0105 0.0071,-0.0158 0.0212,-0.0158l0.0246 0c0.0044,0 0.0097,0.0035 0.0141,0.0088 0.0044,0.0062 0.0062,0.0123 0.0062,0.0176l-0.0687 0.3014c-0.0027,0.0124 -0.0097,0.0186 -0.0221,0.0186l-0.9316 0c-0.0167,0 -0.0247,-0.008 -0.0247,-0.023z"/>
  <path class="fil3" d="M99.9473 87.3728c-0.117,0 -0.2164,-0.0317 -0.2982,-0.0952 -0.0818,-0.0634 -0.1438,-0.1452 -0.1847,-0.246 -0.0416,-0.1001 -0.0621,-0.208 -0.0621,-0.3222 0,-0.1318 0.0261,-0.2714 0.0783,-0.4173 0.0529,-0.146 0.1248,-0.2813 0.2157,-0.4061 0.0917,-0.1241 0.1995,-0.2256 0.3236,-0.3032 0.1241,-0.0782 0.2531,-0.117 0.3877,-0.117 0.0818,0 0.1551,0.0247 0.2214,0.0733 0.0663,0.0494 0.1163,0.1135 0.1509,0.1932 0.0176,-0.062 0.0395,-0.1079 0.0648,-0.1389 0.0254,-0.031 0.0649,-0.0465 0.1185,-0.0465 0.0317,0 0.0585,0.0092 0.081,0.0289 0.0219,0.019 0.0332,0.0458 0.0332,0.0804 0,0.0162 -0.0014,0.0275 -0.0042,0.0331l-0.2976 1.1935c-0.0197,0.0797 -0.0289,0.1474 -0.0289,0.2024 0,0.124 0.0423,0.1861 0.1276,0.1861 0.0621,0 0.115,-0.0317 0.1573,-0.0959 0.043,-0.0642 0.0747,-0.1297 0.0951,-0.1974 0.0205,-0.0677 0.043,-0.1544 0.0684,-0.2601 0.0064,-0.0198 0.0169,-0.0289 0.0303,-0.0289l0.0501 0c0.0084,0 0.0148,0.0042 0.0204,0.0119 0.0057,0.0085 0.0085,0.0184 0.0085,0.0289 -0.0458,0.1918 -0.098,0.3469 -0.1572,0.4653 -0.0592,0.1185 -0.1537,0.1777 -0.2827,0.1777 -0.0952,0 -0.1784,-0.0282 -0.2489,-0.0846 -0.0712,-0.0564 -0.1135,-0.1325 -0.1269,-0.2277 -0.0747,0.0895 -0.1586,0.1642 -0.2524,0.2235 -0.093,0.0592 -0.1896,0.0888 -0.289,0.0888zm0.0085 -0.1015c0.069,0 0.1374,-0.0198 0.2051,-0.0592 0.0684,-0.0388 0.1304,-0.0889 0.1868,-0.1495 0.0564,-0.0606 0.1051,-0.122 0.1445,-0.184 0.0029,0 0.0043,-0.0028 0.0043,-0.0078l0.2333 -0.9277c-0.0176,-0.1029 -0.0536,-0.1918 -0.1078,-0.2651 -0.055,-0.074 -0.129,-0.1107 -0.2221,-0.1107 -0.1417,0 -0.2665,0.079 -0.3744,0.2376 -0.1071,0.1586 -0.1903,0.3433 -0.2488,0.5555 -0.0585,0.2122 -0.0874,0.3878 -0.0874,0.5267 0,0.098 0.0218,0.1861 0.0648,0.2657 0.0437,0.079 0.1107,0.1185 0.2017,0.1185z"/>
  <path id="1" class="fil3" d="M102.122 87.3728c-0.117,0 -0.2164,-0.0317 -0.2982,-0.0952 -0.0818,-0.0634 -0.1438,-0.1452 -0.1847,-0.246 -0.0416,-0.1001 -0.0621,-0.208 -0.0621,-0.3222 0,-0.1318 0.0261,-0.2714 0.0783,-0.4173 0.0529,-0.146 0.1248,-0.2813 0.2157,-0.4061 0.0917,-0.1241 0.1995,-0.2256 0.3236,-0.3032 0.1241,-0.0782 0.2531,-0.117 0.3885,-0.117 0.081,0 0.1543,0.0247 0.2206,0.0733 0.0663,0.0494 0.1163,0.1135 0.1509,0.1932l0.2418 -0.9602c0.0134,-0.062 0.0204,-0.0994 0.0204,-0.1135 0,-0.0508 -0.0902,-0.0761 -0.2707,-0.0761 -0.0084,0 -0.0155,-0.0057 -0.0225,-0.0155 -0.0071,-0.0106 -0.0106,-0.0212 -0.0106,-0.0325l0.0169 -0.0655c0.0049,-0.0184 0.0169,-0.0275 0.0345,-0.0275l0.5542 -0.0451c0.0275,0 0.0409,0.0141 0.0409,0.0415l-0.6092 2.4407c0,0.0183 -0.0049,0.0529 -0.0148,0.1036 -0.0091,0.0508 -0.0141,0.0853 -0.0141,0.103 0,0.124 0.0423,0.1861 0.1276,0.1861 0.0621,0 0.115,-0.0317 0.1573,-0.0959 0.043,-0.0642 0.0747,-0.1297 0.0951,-0.1974 0.0205,-0.0677 0.043,-0.1544 0.0684,-0.2601 0.0064,-0.0198 0.0169,-0.0289 0.031,-0.0289l0.0494 0c0.0084,0 0.0148,0.0042 0.0204,0.0119 0.0057,0.0085 0.0085,0.0184 0.0085,0.0289 -0.0458,0.1918 -0.098,0.3469 -0.1572,0.4653 -0.0592,0.1185 -0.153,0.1777 -0.2827,0.1777 -0.0952,0 -0.1777,-0.0282 -0.2489,-0.0846 -0.0712,-0.0564 -0.1135,-0.1325 -0.1269,-0.2277 -0.0747,0.0895 -0.1586,0.1642 -0.2524,0.2235 -0.093,0.0592 -0.1896,0.0888 -0.289,0.0888zm0.0085 -0.1015c0.069,0 0.1374,-0.0198 0.2051,-0.0592 0.0684,-0.0388 0.1304,-0.0889 0.1868,-0.1495 0.0571,-0.0606 0.1051,-0.122 0.1453,-0.184 0.0021,0 0.0035,-0.0042 0.0035,-0.012l0.2333 -0.9235c-0.0176,-0.1029 -0.0536,-0.1918 -0.1078,-0.2651 -0.055,-0.074 -0.129,-0.1107 -0.2221,-0.1107 -0.1417,0 -0.2665,0.079 -0.3744,0.2376 -0.1071,0.1586 -0.1896,0.3433 -0.2481,0.5555 -0.0585,0.2122 -0.0881,0.3878 -0.0881,0.5267 0,0.098 0.0218,0.1861 0.0648,0.2657 0.0437,0.079 0.1107,0.1185 0.2017,0.1185z"/>
  <path id="12" class="fil3" d="M103.722 88.0623c0.0416,0.0204 0.0938,0.031 0.1572,0.031 0.1206,0 0.2256,-0.055 0.3137,-0.165 0.0875,-0.1107 0.1474,-0.2319 0.1791,-0.3638l0.4026 -1.6087c0.019,-0.0776 0.0289,-0.1445 0.0289,-0.2024 0,-0.0514 -0.0092,-0.0951 -0.0282,-0.1311 -0.0184,-0.0366 -0.0508,-0.055 -0.0973,-0.055 -0.1269,0 -0.2348,0.0557 -0.3236,0.1664 -0.0895,0.1107 -0.165,0.2439 -0.227,0.3997 -0.005,0.012 -0.0134,0.0184 -0.0247,0.0184l-0.0493 0c-0.0085,0 -0.0156,-0.0057 -0.0219,-0.0177 -0.0056,-0.0112 -0.0092,-0.0204 -0.0092,-0.0253 0.0677,-0.1728 0.1565,-0.3229 0.2658,-0.4505 0.11,-0.1283 0.2425,-0.1925 0.3983,-0.1925 0.0698,0 0.134,0.0162 0.1925,0.0494 0.0585,0.0331 0.1043,0.0789 0.1368,0.1374 0.0331,0.0585 0.05,0.1234 0.05,0.1932 0,0.043 -0.0042,0.0846 -0.0127,0.1241l-0.4025 1.6073c-0.0289,0.1157 -0.0825,0.22 -0.1601,0.3131 -0.0782,0.093 -0.1727,0.167 -0.2841,0.222 -0.1113,0.055 -0.2241,0.0825 -0.3384,0.0825 -0.0909,0 -0.1734,-0.0204 -0.2481,-0.062 -0.074,-0.0416 -0.1114,-0.1044 -0.1114,-0.1883 0,-0.062 0.0219,-0.1163 0.0656,-0.1628 0.0437,-0.0472 0.0973,-0.0705 0.1607,-0.0705 0.0416,0 0.0768,0.0127 0.1058,0.0381 0.0289,0.0253 0.0437,0.0599 0.0437,0.1022 0,0.05 -0.0155,0.0944 -0.0466,0.1332 -0.031,0.0395 -0.0698,0.0649 -0.1156,0.0776zm1.1329 -3.2937c0,-0.0578 0.0226,-0.1079 0.067,-0.1509 0.0451,-0.043 0.0952,-0.0648 0.1516,-0.0648 0.0458,0 0.0817,0.0134 0.1085,0.0401 0.0268,0.0268 0.0402,0.0614 0.0402,0.1037 0,0.0359 -0.0098,0.0705 -0.0296,0.1036 -0.0204,0.0338 -0.0479,0.0606 -0.0832,0.0811 -0.0345,0.0204 -0.0705,0.031 -0.1078,0.031 -0.0416,0 -0.0762,-0.0134 -0.1044,-0.0402 -0.0282,-0.0268 -0.0423,-0.0613 -0.0423,-0.1036z"/>
  <path id="123" class="fil3" d="M105.924 88.1791c-0.1269,0 -0.2309,-0.0256 -0.3111,-0.0776 -0.0811,-0.0511 -0.1393,-0.1234 -0.1763,-0.2168 -0.0361,-0.0925 -0.0546,-0.2009 -0.0546,-0.3235 0,-0.1947 0.0432,-0.349 0.1295,-0.4627 0.0864,-0.1137 0.2248,-0.1701 0.4125,-0.1701 0.1269,0 0.2309,0.0273 0.312,0.0811 0.0802,0.0538 0.1393,0.1269 0.1745,0.2204 0.0362,0.0934 0.0538,0.2035 0.0538,0.3313 0,0.1226 -0.0185,0.231 -0.0547,0.3235 -0.037,0.0934 -0.0952,0.1657 -0.1762,0.2168 -0.0802,0.052 -0.1834,0.0776 -0.3094,0.0776zm0 -0.0635c0.1031,0 0.178,-0.0291 0.2274,-0.0863 0.0494,-0.0573 0.0793,-0.1252 0.0899,-0.2036 0.0106,-0.0776 0.0159,-0.1754 0.0159,-0.2944 0,-0.1155 -0.0053,-0.2089 -0.0159,-0.2803 -0.0106,-0.0714 -0.0405,-0.1322 -0.089,-0.1833 -0.0485,-0.0503 -0.1243,-0.0758 -0.2283,-0.0758 -0.104,0 -0.1798,0.0255 -0.2283,0.0758 -0.0484,0.0502 -0.0784,0.111 -0.0899,0.1824 -0.0114,0.0723 -0.0167,0.1657 -0.0167,0.2812 0,0.119 0.0053,0.2177 0.0167,0.2961 0.0115,0.0785 0.0415,0.1463 0.0899,0.2027 0.0494,0.0573 0.1252,0.0855 0.2283,0.0855z"/>
  <path id="1234" class="fil5 str4" d="M99.9473 87.3728c-0.117,0 -0.2164,-0.0317 -0.2982,-0.0952 -0.0818,-0.0634 -0.1438,-0.1452 -0.1847,-0.246 -0.0416,-0.1001 -0.0621,-0.208 -0.0621,-0.3222 0,-0.1318 0.0261,-0.2714 0.0783,-0.4173 0.0529,-0.146 0.1248,-0.2813 0.2157,-0.4061 0.0917,-0.1241 0.1995,-0.2256 0.3236,-0.3032 0.1241,-0.0782 0.2531,-0.117 0.3877,-0.117 0.0818,0 0.1551,0.0247 0.2214,0.0733 0.0663,0.0494 0.1163,0.1135 0.1509,0.1932 0.0176,-0.062 0.0395,-0.1079 0.0648,-0.1389 0.0254,-0.031 0.0649,-0.0465 0.1185,-0.0465 0.0317,0 0.0585,0.0092 0.081,0.0289 0.0219,0.019 0.0332,0.0458 0.0332,0.0804 0,0.0162 -0.0014,0.0275 -0.0042,0.0331l-0.2976 1.1935c-0.0197,0.0797 -0.0289,0.1474 -0.0289,0.2024 0,0.124 0.0423,0.1861 0.1276,0.1861 0.0621,0 0.115,-0.0317 0.1573,-0.0959 0.043,-0.0642 0.0747,-0.1297 0.0951,-0.1974 0.0205,-0.0677 0.043,-0.1544 0.0684,-0.2601 0.0064,-0.0198 0.0169,-0.0289 0.0303,-0.0289l0.0501 0c0.0084,0 0.0148,0.0042 0.0204,0.0119 0.0057,0.0085 0.0085,0.0184 0.0085,0.0289 -0.0458,0.1918 -0.098,0.3469 -0.1572,0.4653 -0.0592,0.1185 -0.1537,0.1777 -0.2827,0.1777 -0.0952,0 -0.1784,-0.0282 -0.2489,-0.0846 -0.0712,-0.0564 -0.1135,-0.1325 -0.1269,-0.2277 -0.0747,0.0895 -0.1586,0.1642 -0.2524,0.2235 -0.093,0.0592 -0.1896,0.0888 -0.289,0.0888zm0.0085 -0.1015c0.069,0 0.1374,-0.0198 0.2051,-0.0592 0.0684,-0.0388 0.1304,-0.0889 0.1868,-0.1495 0.0564,-0.0606 0.1051,-0.122 0.1445,-0.184 0.0029,0 0.0043,-0.0028 0.0043,-0.0078l0.2333 -0.9277c-0.0176,-0.1029 -0.0536,-0.1918 -0.1078,-0.2651 -0.055,-0.074 -0.129,-0.1107 -0.2221,-0.1107 -0.1417,0 -0.2665,0.079 -0.3744,0.2376 -0.1071,0.1586 -0.1903,0.3433 -0.2488,0.5555 -0.0585,0.2122 -0.0874,0.3878 -0.0874,0.5267 0,0.098 0.0218,0.1861 0.0648,0.2657 0.0437,0.079 0.1107,0.1185 0.2017,0.1185z"/>
  <path id="12345" class="fil5 str4" d="M102.122 87.3728c-0.117,0 -0.2164,-0.0317 -0.2982,-0.0952 -0.0818,-0.0634 -0.1438,-0.1452 -0.1847,-0.246 -0.0416,-0.1001 -0.0621,-0.208 -0.0621,-0.3222 0,-0.1318 0.0261,-0.2714 0.0783,-0.4173 0.0529,-0.146 0.1248,-0.2813 0.2157,-0.4061 0.0917,-0.1241 0.1995,-0.2256 0.3236,-0.3032 0.1241,-0.0782 0.2531,-0.117 0.3885,-0.117 0.081,0 0.1543,0.0247 0.2206,0.0733 0.0663,0.0494 0.1163,0.1135 0.1509,0.1932l0.2418 -0.9602c0.0134,-0.062 0.0204,-0.0994 0.0204,-0.1135 0,-0.0508 -0.0902,-0.0761 -0.2707,-0.0761 -0.0084,0 -0.0155,-0.0057 -0.0225,-0.0155 -0.0071,-0.0106 -0.0106,-0.0212 -0.0106,-0.0325l0.0169 -0.0655c0.0049,-0.0184 0.0169,-0.0275 0.0345,-0.0275l0.5542 -0.0451c0.0275,0 0.0409,0.0141 0.0409,0.0415l-0.6092 2.4407c0,0.0183 -0.0049,0.0529 -0.0148,0.1036 -0.0091,0.0508 -0.0141,0.0853 -0.0141,0.103 0,0.124 0.0423,0.1861 0.1276,0.1861 0.0621,0 0.115,-0.0317 0.1573,-0.0959 0.043,-0.0642 0.0747,-0.1297 0.0951,-0.1974 0.0205,-0.0677 0.043,-0.1544 0.0684,-0.2601 0.0064,-0.0198 0.0169,-0.0289 0.031,-0.0289l0.0494 0c0.0084,0 0.0148,0.0042 0.0204,0.0119 0.0057,0.0085 0.0085,0.0184 0.0085,0.0289 -0.0458,0.1918 -0.098,0.3469 -0.1572,0.4653 -0.0592,0.1185 -0.153,0.1777 -0.2827,0.1777 -0.0952,0 -0.1777,-0.0282 -0.2489,-0.0846 -0.0712,-0.0564 -0.1135,-0.1325 -0.1269,-0.2277 -0.0747,0.0895 -0.1586,0.1642 -0.2524,0.2235 -0.093,0.0592 -0.1896,0.0888 -0.289,0.0888zm0.0085 -0.1015c0.069,0 0.1374,-0.0198 0.2051,-0.0592 0.0684,-0.0388 0.1304,-0.0889 0.1868,-0.1495 0.0571,-0.0606 0.1051,-0.122 0.1453,-0.184 0.0021,0 0.0035,-0.0042 0.0035,-0.012l0.2333 -0.9235c-0.0176,-0.1029 -0.0536,-0.1918 -0.1078,-0.2651 -0.055,-0.074 -0.129,-0.1107 -0.2221,-0.1107 -0.1417,0 -0.2665,0.079 -0.3744,0.2376 -0.1071,0.1586 -0.1896,0.3433 -0.2481,0.5555 -0.0585,0.2122 -0.0881,0.3878 -0.0881,0.5267 0,0.098 0.0218,0.1861 0.0648,0.2657 0.0437,0.079 0.1107,0.1185 0.2017,0.1185z"/>
  <path id="123456" class="fil5 str4" d="M103.722 88.0623c0.0416,0.0204 0.0938,0.031 0.1572,0.031 0.1206,0 0.2256,-0.055 0.3137,-0.165 0.0875,-0.1107 0.1474,-0.2319 0.1791,-0.3638l0.4026 -1.6087c0.019,-0.0776 0.0289,-0.1445 0.0289,-0.2024 0,-0.0514 -0.0092,-0.0951 -0.0282,-0.1311 -0.0184,-0.0366 -0.0508,-0.055 -0.0973,-0.055 -0.1269,0 -0.2348,0.0557 -0.3236,0.1664 -0.0895,0.1107 -0.165,0.2439 -0.227,0.3997 -0.005,0.012 -0.0134,0.0184 -0.0247,0.0184l-0.0493 0c-0.0085,0 -0.0156,-0.0057 -0.0219,-0.0177 -0.0056,-0.0112 -0.0092,-0.0204 -0.0092,-0.0253 0.0677,-0.1728 0.1565,-0.3229 0.2658,-0.4505 0.11,-0.1283 0.2425,-0.1925 0.3983,-0.1925 0.0698,0 0.134,0.0162 0.1925,0.0494 0.0585,0.0331 0.1043,0.0789 0.1368,0.1374 0.0331,0.0585 0.05,0.1234 0.05,0.1932 0,0.043 -0.0042,0.0846 -0.0127,0.1241l-0.4025 1.6073c-0.0289,0.1157 -0.0825,0.22 -0.1601,0.3131 -0.0782,0.093 -0.1727,0.167 -0.2841,0.222 -0.1113,0.055 -0.2241,0.0825 -0.3384,0.0825 -0.0909,0 -0.1734,-0.0204 -0.2481,-0.062 -0.074,-0.0416 -0.1114,-0.1044 -0.1114,-0.1883 0,-0.062 0.0219,-0.1163 0.0656,-0.1628 0.0437,-0.0472 0.0973,-0.0705 0.1607,-0.0705 0.0416,0 0.0768,0.0127 0.1058,0.0381 0.0289,0.0253 0.0437,0.0599 0.0437,0.1022 0,0.05 -0.0155,0.0944 -0.0466,0.1332 -0.031,0.0395 -0.0698,0.0649 -0.1156,0.0776zm1.1329 -3.2937c0,-0.0578 0.0226,-0.1079 0.067,-0.1509 0.0451,-0.043 0.0952,-0.0648 0.1516,-0.0648 0.0458,0 0.0817,0.0134 0.1085,0.0401 0.0268,0.0268 0.0402,0.0614 0.0402,0.1037 0,0.0359 -0.0098,0.0705 -0.0296,0.1036 -0.0204,0.0338 -0.0479,0.0606 -0.0832,0.0811 -0.0345,0.0204 -0.0705,0.031 -0.1078,0.031 -0.0416,0 -0.0762,-0.0134 -0.1044,-0.0402 -0.0282,-0.0268 -0.0423,-0.0613 -0.0423,-0.1036z"/>
  <path id="1234567" class="fil5 str4" d="M105.924 88.1791c-0.1269,0 -0.2309,-0.0256 -0.3111,-0.0776 -0.0811,-0.0511 -0.1393,-0.1234 -0.1763,-0.2168 -0.0361,-0.0925 -0.0546,-0.2009 -0.0546,-0.3235 0,-0.1947 0.0432,-0.349 0.1295,-0.4627 0.0864,-0.1137 0.2248,-0.1701 0.4125,-0.1701 0.1269,0 0.2309,0.0273 0.312,0.0811 0.0802,0.0538 0.1393,0.1269 0.1745,0.2204 0.0362,0.0934 0.0538,0.2035 0.0538,0.3313 0,0.1226 -0.0185,0.231 -0.0547,0.3235 -0.037,0.0934 -0.0952,0.1657 -0.1762,0.2168 -0.0802,0.052 -0.1834,0.0776 -0.3094,0.0776zm0 -0.0635c0.1031,0 0.178,-0.0291 0.2274,-0.0863 0.0494,-0.0573 0.0793,-0.1252 0.0899,-0.2036 0.0106,-0.0776 0.0159,-0.1754 0.0159,-0.2944 0,-0.1155 -0.0053,-0.2089 -0.0159,-0.2803 -0.0106,-0.0714 -0.0405,-0.1322 -0.089,-0.1833 -0.0485,-0.0503 -0.1243,-0.0758 -0.2283,-0.0758 -0.104,0 -0.1798,0.0255 -0.2283,0.0758 -0.0484,0.0502 -0.0784,0.111 -0.0899,0.1824 -0.0114,0.0723 -0.0167,0.1657 -0.0167,0.2812 0,0.119 0.0053,0.2177 0.0167,0.2961 0.0115,0.0785 0.0415,0.1463 0.0899,0.2027 0.0494,0.0573 0.1252,0.0855 0.2283,0.0855z"/>
  <path class="fil3" d="M83.2064 150.095c-0.117,0 -0.2164,-0.0317 -0.2982,-0.0952 -0.0818,-0.0634 -0.1438,-0.1452 -0.1847,-0.246 -0.0416,-0.1001 -0.0621,-0.208 -0.0621,-0.3222 0,-0.1318 0.0261,-0.2714 0.0783,-0.4173 0.0529,-0.146 0.1248,-0.2813 0.2157,-0.4061 0.0917,-0.1241 0.1995,-0.2256 0.3236,-0.3032 0.1241,-0.0782 0.2531,-0.117 0.3877,-0.117 0.0818,0 0.1551,0.0247 0.2214,0.0733 0.0663,0.0494 0.1163,0.1135 0.1509,0.1932 0.0176,-0.062 0.0395,-0.1079 0.0648,-0.1389 0.0254,-0.031 0.0649,-0.0465 0.1185,-0.0465 0.0317,0 0.0585,0.0092 0.081,0.0289 0.0219,0.019 0.0332,0.0458 0.0332,0.0804 0,0.0162 -0.0014,0.0275 -0.0042,0.0331l-0.2976 1.1935c-0.0197,0.0797 -0.0289,0.1474 -0.0289,0.2024 0,0.124 0.0423,0.1861 0.1276,0.1861 0.0621,0 0.115,-0.0317 0.1573,-0.0959 0.043,-0.0642 0.0747,-0.1297 0.0951,-0.1974 0.0205,-0.0677 0.043,-0.1544 0.0684,-0.2601 0.0064,-0.0198 0.0169,-0.0289 0.0303,-0.0289l0.0501 0c0.0084,0 0.0148,0.0042 0.0204,0.0119 0.0057,0.0085 0.0085,0.0184 0.0085,0.0289 -0.0458,0.1918 -0.098,0.3469 -0.1572,0.4653 -0.0592,0.1185 -0.1537,0.1777 -0.2827,0.1777 -0.0952,0 -0.1784,-0.0282 -0.2489,-0.0846 -0.0712,-0.0564 -0.1135,-0.1325 -0.1269,-0.2277 -0.0747,0.0895 -0.1586,0.1642 -0.2524,0.2235 -0.093,0.0592 -0.1896,0.0888 -0.289,0.0888zm0.0085 -0.1015c0.069,0 0.1374,-0.0198 0.2051,-0.0592 0.0684,-0.0388 0.1304,-0.0889 0.1868,-0.1495 0.0564,-0.0606 0.1051,-0.122 0.1445,-0.184 0.0029,0 0.0043,-0.0028 0.0043,-0.0078l0.2333 -0.9277c-0.0176,-0.1029 -0.0536,-0.1918 -0.1078,-0.2651 -0.055,-0.074 -0.129,-0.1107 -0.2221,-0.1107 -0.1417,0 -0.2665,0.079 -0.3744,0.2376 -0.1071,0.1586 -0.1903,0.3433 -0.2488,0.5555 -0.0585,0.2122 -0.0874,0.3878 -0.0874,0.5267 0,0.098 0.0218,0.1861 0.0648,0.2657 0.0437,0.079 0.1107,0.1185 0.2017,0.1185z"/>
  <path id="1" class="fil3" d="M85.3813 150.095c-0.117,0 -0.2164,-0.0317 -0.2982,-0.0952 -0.0818,-0.0634 -0.1438,-0.1452 -0.1847,-0.246 -0.0416,-0.1001 -0.0621,-0.208 -0.0621,-0.3222 0,-0.1318 0.0261,-0.2714 0.0783,-0.4173 0.0529,-0.146 0.1248,-0.2813 0.2157,-0.4061 0.0917,-0.1241 0.1995,-0.2256 0.3236,-0.3032 0.1241,-0.0782 0.2531,-0.117 0.3885,-0.117 0.081,0 0.1543,0.0247 0.2206,0.0733 0.0663,0.0494 0.1163,0.1135 0.1509,0.1932l0.2418 -0.9602c0.0134,-0.062 0.0204,-0.0994 0.0204,-0.1135 0,-0.0508 -0.0902,-0.0761 -0.2707,-0.0761 -0.0084,0 -0.0155,-0.0057 -0.0225,-0.0155 -0.0071,-0.0106 -0.0106,-0.0212 -0.0106,-0.0325l0.0169 -0.0655c0.0049,-0.0184 0.0169,-0.0275 0.0345,-0.0275l0.5542 -0.0451c0.0275,0 0.0409,0.0141 0.0409,0.0415l-0.6092 2.4407c0,0.0183 -0.0049,0.0529 -0.0148,0.1036 -0.0091,0.0508 -0.0141,0.0853 -0.0141,0.103 0,0.124 0.0423,0.1861 0.1276,0.1861 0.0621,0 0.115,-0.0317 0.1573,-0.0959 0.043,-0.0642 0.0747,-0.1297 0.0951,-0.1974 0.0205,-0.0677 0.043,-0.1544 0.0684,-0.2601 0.0064,-0.0198 0.0169,-0.0289 0.031,-0.0289l0.0494 0c0.0084,0 0.0148,0.0042 0.0204,0.0119 0.0057,0.0085 0.0085,0.0184 0.0085,0.0289 -0.0458,0.1918 -0.098,0.3469 -0.1572,0.4653 -0.0592,0.1185 -0.153,0.1777 -0.2827,0.1777 -0.0952,0 -0.1777,-0.0282 -0.2489,-0.0846 -0.0712,-0.0564 -0.1135,-0.1325 -0.1269,-0.2277 -0.0747,0.0895 -0.1586,0.1642 -0.2524,0.2235 -0.093,0.0592 -0.1896,0.0888 -0.289,0.0888zm0.0085 -0.1015c0.069,0 0.1374,-0.0198 0.2051,-0.0592 0.0684,-0.0388 0.1304,-0.0889 0.1868,-0.1495 0.0571,-0.0606 0.1051,-0.122 0.1453,-0.184 0.0021,0 0.0035,-0.0042 0.0035,-0.012l0.2333 -0.9235c-0.0176,-0.1029 -0.0536,-0.1918 -0.1078,-0.2651 -0.055,-0.074 -0.129,-0.1107 -0.2221,-0.1107 -0.1417,0 -0.2665,0.079 -0.3744,0.2376 -0.1071,0.1586 -0.1896,0.3433 -0.2481,0.5555 -0.0585,0.2122 -0.0881,0.3878 -0.0881,0.5267 0,0.098 0.0218,0.1861 0.0648,0.2657 0.0437,0.079 0.1107,0.1185 0.2017,0.1185z"/>
  <path id="12" class="fil3" d="M86.9809 150.785c0.0416,0.0204 0.0938,0.031 0.1572,0.031 0.1206,0 0.2256,-0.055 0.3137,-0.165 0.0875,-0.1107 0.1474,-0.2319 0.1791,-0.3638l0.4026 -1.6087c0.019,-0.0776 0.0289,-0.1445 0.0289,-0.2024 0,-0.0514 -0.0092,-0.0951 -0.0282,-0.1311 -0.0184,-0.0366 -0.0508,-0.055 -0.0973,-0.055 -0.1269,0 -0.2348,0.0557 -0.3236,0.1664 -0.0895,0.1107 -0.165,0.2439 -0.227,0.3997 -0.005,0.012 -0.0134,0.0184 -0.0247,0.0184l-0.0493 0c-0.0085,0 -0.0156,-0.0057 -0.0219,-0.0177 -0.0056,-0.0112 -0.0092,-0.0204 -0.0092,-0.0253 0.0677,-0.1728 0.1565,-0.3229 0.2658,-0.4505 0.11,-0.1283 0.2425,-0.1925 0.3983,-0.1925 0.0698,0 0.134,0.0162 0.1925,0.0494 0.0585,0.0331 0.1043,0.0789 0.1368,0.1374 0.0331,0.0585 0.05,0.1234 0.05,0.1932 0,0.043 -0.0042,0.0846 -0.0127,0.1241l-0.4025 1.6073c-0.0289,0.1157 -0.0825,0.22 -0.1601,0.3131 -0.0782,0.093 -0.1727,0.167 -0.2841,0.222 -0.1113,0.055 -0.2241,0.0825 -0.3384,0.0825 -0.0909,0 -0.1734,-0.0204 -0.2481,-0.062 -0.074,-0.0416 -0.1114,-0.1044 -0.1114,-0.1883 0,-0.062 0.0219,-0.1163 0.0656,-0.1628 0.0437,-0.0472 0.0973,-0.0705 0.1607,-0.0705 0.0416,0 0.0768,0.0127 0.1058,0.0381 0.0289,0.0253 0.0437,0.0599 0.0437,0.1022 0,0.05 -0.0155,0.0944 -0.0466,0.1332 -0.031,0.0395 -0.0698,0.0649 -0.1156,0.0776zm1.1329 -3.2937c0,-0.0578 0.0226,-0.1079 0.067,-0.1509 0.0451,-0.043 0.0952,-0.0648 0.1516,-0.0648 0.0458,0 0.0817,0.0134 0.1085,0.0401 0.0268,0.0268 0.0402,0.0614 0.0402,0.1037 0,0.0359 -0.0098,0.0705 -0.0296,0.1036 -0.0204,0.0338 -0.0479,0.0606 -0.0832,0.0811 -0.0345,0.0204 -0.0705,0.031 -0.1078,0.031 -0.0416,0 -0.0762,-0.0134 -0.1044,-0.0402 -0.0282,-0.0268 -0.0423,-0.0613 -0.0423,-0.1036z"/>
  <path id="123" class="fil3" d="M88.7575 151.124c0.037,0.0696 0.0943,0.1216 0.1719,0.1569 0.0775,0.0343 0.1595,0.052 0.2468,0.052 0.1022,0 0.178,-0.0423 0.2273,-0.1261 0.0485,-0.0837 0.0732,-0.1806 0.0732,-0.2899 0,-0.1102 -0.0247,-0.2072 -0.074,-0.2909 -0.0503,-0.0837 -0.1261,-0.126 -0.2301,-0.126l-0.1886 0c-0.0114,0 -0.0176,-0.0062 -0.0176,-0.0194l0 -0.0282c0,-0.0097 0.0062,-0.015 0.0176,-0.015l0.1543 -0.0115c0.0617,0 0.1145,-0.0229 0.1586,-0.0678 0.0441,-0.045 0.0767,-0.1014 0.0978,-0.1675 0.0212,-0.0661 0.0318,-0.1278 0.0318,-0.1851 0,-0.0528 -0.0097,-0.1004 -0.0282,-0.1427 -0.0186,-0.0415 -0.0468,-0.075 -0.0847,-0.0996 -0.0387,-0.0256 -0.0846,-0.0379 -0.1374,-0.0379 -0.0741,0 -0.1437,0.0123 -0.208,0.0361 -0.0644,0.0238 -0.1137,0.0626 -0.1472,0.1163 0.0035,-0.0017 0.0079,-0.0026 0.0149,-0.0026 0.0353,0 0.0644,0.0115 0.0882,0.0352 0.0229,0.023 0.0344,0.052 0.0344,0.0873 0,0.0353 -0.0115,0.0635 -0.0344,0.0873 -0.0238,0.0229 -0.0529,0.0343 -0.0882,0.0343 -0.0343,0 -0.0625,-0.0114 -0.0863,-0.0343 -0.0229,-0.023 -0.0344,-0.052 -0.0344,-0.0864 0,-0.0749 0.0229,-0.1384 0.0696,-0.1913 0.0467,-0.052 0.1049,-0.0916 0.1763,-0.1172 0.0714,-0.0256 0.1428,-0.0388 0.2151,-0.0388 0.0705,0 0.1427,0.0132 0.2159,0.0406 0.074,0.0273 0.1348,0.0678 0.1833,0.1216 0.0485,0.0538 0.0732,0.1181 0.0732,0.193 0,0.0696 -0.0168,0.1357 -0.0503,0.2001 -0.0335,0.0634 -0.0793,0.1172 -0.1366,0.1613 -0.0573,0.0432 -0.1207,0.0758 -0.1912,0.0978 0.0758,0.0106 0.148,0.0361 0.2185,0.0784 0.0697,0.0415 0.1261,0.0944 0.1675,0.1596 0.0423,0.0643 0.0635,0.1357 0.0635,0.2141 0,0.0926 -0.0256,0.1781 -0.0767,0.2539 -0.0511,0.0767 -0.119,0.1366 -0.2036,0.1789 -0.0855,0.0432 -0.1728,0.0643 -0.2644,0.0643 -0.1349,0 -0.2574,-0.037 -0.3667,-0.1119 -0.1101,-0.0749 -0.1648,-0.178 -0.1648,-0.3076 0,-0.0238 0.0053,-0.0467 0.0168,-0.067 0.0114,-0.0194 0.0273,-0.0352 0.0475,-0.0467 0.0212,-0.0114 0.0432,-0.0167 0.0679,-0.0167 0.0238,0 0.0458,0.0053 0.0661,0.0167 0.0203,0.0115 0.0362,0.0265 0.0476,0.0467 0.0115,0.0203 0.0168,0.0423 0.0168,0.067 0,0.0361 -0.0124,0.0679 -0.0371,0.0934 -0.0246,0.0247 -0.0555,0.0379 -0.0934,0.0379 -0.0035,-0.0008 -0.007,-0.0017 -0.0097,-0.0026 -0.0017,0 -0.0053,0 -0.0088,0z"/>
  <path id="1234" class="fil5 str4" d="M83.2064 150.095c-0.117,0 -0.2164,-0.0317 -0.2982,-0.0952 -0.0818,-0.0634 -0.1438,-0.1452 -0.1847,-0.246 -0.0416,-0.1001 -0.0621,-0.208 -0.0621,-0.3222 0,-0.1318 0.0261,-0.2714 0.0783,-0.4173 0.0529,-0.146 0.1248,-0.2813 0.2157,-0.4061 0.0917,-0.1241 0.1995,-0.2256 0.3236,-0.3032 0.1241,-0.0782 0.2531,-0.117 0.3877,-0.117 0.0818,0 0.1551,0.0247 0.2214,0.0733 0.0663,0.0494 0.1163,0.1135 0.1509,0.1932 0.0176,-0.062 0.0395,-0.1079 0.0648,-0.1389 0.0254,-0.031 0.0649,-0.0465 0.1185,-0.0465 0.0317,0 0.0585,0.0092 0.081,0.0289 0.0219,0.019 0.0332,0.0458 0.0332,0.0804 0,0.0162 -0.0014,0.0275 -0.0042,0.0331l-0.2976 1.1935c-0.0197,0.0797 -0.0289,0.1474 -0.0289,0.2024 0,0.124 0.0423,0.1861 0.1276,0.1861 0.0621,0 0.115,-0.0317 0.1573,-0.0959 0.043,-0.0642 0.0747,-0.1297 0.0951,-0.1974 0.0205,-0.0677 0.043,-0.1544 0.0684,-0.2601 0.0064,-0.0198 0.0169,-0.0289 0.0303,-0.0289l0.0501 0c0.0084,0 0.0148,0.0042 0.0204,0.0119 0.0057,0.0085 0.0085,0.0184 0.0085,0.0289 -0.0458,0.1918 -0.098,0.3469 -0.1572,0.4653 -0.0592,0.1185 -0.1537,0.1777 -0.2827,0.1777 -0.0952,0 -0.1784,-0.0282 -0.2489,-0.0846 -0.0712,-0.0564 -0.1135,-0.1325 -0.1269,-0.2277 -0.0747,0.0895 -0.1586,0.1642 -0.2524,0.2235 -0.093,0.0592 -0.1896,0.0888 -0.289,0.0888zm0.0085 -0.1015c0.069,0 0.1374,-0.0198 0.2051,-0.0592 0.0684,-0.0388 0.1304,-0.0889 0.1868,-0.1495 0.0564,-0.0606 0.1051,-0.122 0.1445,-0.184 0.0029,0 0.0043,-0.0028 0.0043,-0.0078l0.2333 -0.9277c-0.0176,-0.1029 -0.0536,-0.1918 -0.1078,-0.2651 -0.055,-0.074 -0.129,-0.1107 -0.2221,-0.1107 -0.1417,0 -0.2665,0.079 -0.3744,0.2376 -0.1071,0.1586 -0.1903,0.3433 -0.2488,0.5555 -0.0585,0.2122 -0.0874,0.3878 -0.0874,0.5267 0,0.098 0.0218,0.1861 0.0648,0.2657 0.0437,0.079 0.1107,0.1185 0.2017,0.1185z"/>
  <path id="12345" class="fil5 str4" d="M85.3813 150.095c-0.117,0 -0.2164,-0.0317 -0.2982,-0.0952 -0.0818,-0.0634 -0.1438,-0.1452 -0.1847,-0.246 -0.0416,-0.1001 -0.0621,-0.208 -0.0621,-0.3222 0,-0.1318 0.0261,-0.2714 0.0783,-0.4173 0.0529,-0.146 0.1248,-0.2813 0.2157,-0.4061 0.0917,-0.1241 0.1995,-0.2256 0.3236,-0.3032 0.1241,-0.0782 0.2531,-0.117 0.3885,-0.117 0.081,0 0.1543,0.0247 0.2206,0.0733 0.0663,0.0494 0.1163,0.1135 0.1509,0.1932l0.2418 -0.9602c0.0134,-0.062 0.0204,-0.0994 0.0204,-0.1135 0,-0.0508 -0.0902,-0.0761 -0.2707,-0.0761 -0.0084,0 -0.0155,-0.0057 -0.0225,-0.0155 -0.0071,-0.0106 -0.0106,-0.0212 -0.0106,-0.0325l0.0169 -0.0655c0.0049,-0.0184 0.0169,-0.0275 0.0345,-0.0275l0.5542 -0.0451c0.0275,0 0.0409,0.0141 0.0409,0.0415l-0.6092 2.4407c0,0.0183 -0.0049,0.0529 -0.0148,0.1036 -0.0091,0.0508 -0.0141,0.0853 -0.0141,0.103 0,0.124 0.0423,0.1861 0.1276,0.1861 0.0621,0 0.115,-0.0317 0.1573,-0.0959 0.043,-0.0642 0.0747,-0.1297 0.0951,-0.1974 0.0205,-0.0677 0.043,-0.1544 0.0684,-0.2601 0.0064,-0.0198 0.0169,-0.0289 0.031,-0.0289l0.0494 0c0.0084,0 0.0148,0.0042 0.0204,0.0119 0.0057,0.0085 0.0085,0.0184 0.0085,0.0289 -0.0458,0.1918 -0.098,0.3469 -0.1572,0.4653 -0.0592,0.1185 -0.153,0.1777 -0.2827,0.1777 -0.0952,0 -0.1777,-0.0282 -0.2489,-0.0846 -0.0712,-0.0564 -0.1135,-0.1325 -0.1269,-0.2277 -0.0747,0.0895 -0.1586,0.1642 -0.2524,0.2235 -0.093,0.0592 -0.1896,0.0888 -0.289,0.0888zm0.0085 -0.1015c0.069,0 0.1374,-0.0198 0.2051,-0.0592 0.0684,-0.0388 0.1304,-0.0889 0.1868,-0.1495 0.0571,-0.0606 0.1051,-0.122 0.1453,-0.184 0.0021,0 0.0035,-0.0042 0.0035,-0.012l0.2333 -0.9235c-0.0176,-0.1029 -0.0536,-0.1918 -0.1078,-0.2651 -0.055,-0.074 -0.129,-0.1107 -0.2221,-0.1107 -0.1417,0 -0.2665,0.079 -0.3744,0.2376 -0.1071,0.1586 -0.1896,0.3433 -0.2481,0.5555 -0.0585,0.2122 -0.0881,0.3878 -0.0881,0.5267 0,0.098 0.0218,0.1861 0.0648,0.2657 0.0437,0.079 0.1107,0.1185 0.2017,0.1185z"/>
  <path id="123456" class="fil5 str4" d="M86.9809 150.785c0.0416,0.0204 0.0938,0.031 0.1572,0.031 0.1206,0 0.2256,-0.055 0.3137,-0.165 0.0875,-0.1107 0.1474,-0.2319 0.1791,-0.3638l0.4026 -1.6087c0.019,-0.0776 0.0289,-0.1445 0.0289,-0.2024 0,-0.0514 -0.0092,-0.0951 -0.0282,-0.1311 -0.0184,-0.0366 -0.0508,-0.055 -0.0973,-0.055 -0.1269,0 -0.2348,0.0557 -0.3236,0.1664 -0.0895,0.1107 -0.165,0.2439 -0.227,0.3997 -0.005,0.012 -0.0134,0.0184 -0.0247,0.0184l-0.0493 0c-0.0085,0 -0.0156,-0.0057 -0.0219,-0.0177 -0.0056,-0.0112 -0.0092,-0.0204 -0.0092,-0.0253 0.0677,-0.1728 0.1565,-0.3229 0.2658,-0.4505 0.11,-0.1283 0.2425,-0.1925 0.3983,-0.1925 0.0698,0 0.134,0.0162 0.1925,0.0494 0.0585,0.0331 0.1043,0.0789 0.1368,0.1374 0.0331,0.0585 0.05,0.1234 0.05,0.1932 0,0.043 -0.0042,0.0846 -0.0127,0.1241l-0.4025 1.6073c-0.0289,0.1157 -0.0825,0.22 -0.1601,0.3131 -0.0782,0.093 -0.1727,0.167 -0.2841,0.222 -0.1113,0.055 -0.2241,0.0825 -0.3384,0.0825 -0.0909,0 -0.1734,-0.0204 -0.2481,-0.062 -0.074,-0.0416 -0.1114,-0.1044 -0.1114,-0.1883 0,-0.062 0.0219,-0.1163 0.0656,-0.1628 0.0437,-0.0472 0.0973,-0.0705 0.1607,-0.0705 0.0416,0 0.0768,0.0127 0.1058,0.0381 0.0289,0.0253 0.0437,0.0599 0.0437,0.1022 0,0.05 -0.0155,0.0944 -0.0466,0.1332 -0.031,0.0395 -0.0698,0.0649 -0.1156,0.0776zm1.1329 -3.2937c0,-0.0578 0.0226,-0.1079 0.067,-0.1509 0.0451,-0.043 0.0952,-0.0648 0.1516,-0.0648 0.0458,0 0.0817,0.0134 0.1085,0.0401 0.0268,0.0268 0.0402,0.0614 0.0402,0.1037 0,0.0359 -0.0098,0.0705 -0.0296,0.1036 -0.0204,0.0338 -0.0479,0.0606 -0.0832,0.0811 -0.0345,0.0204 -0.0705,0.031 -0.1078,0.031 -0.0416,0 -0.0762,-0.0134 -0.1044,-0.0402 -0.0282,-0.0268 -0.0423,-0.0613 -0.0423,-0.1036z"/>
  <path id="1234567" class="fil5 str4" d="M88.7575 151.124c0.037,0.0696 0.0943,0.1216 0.1719,0.1569 0.0775,0.0343 0.1595,0.052 0.2468,0.052 0.1022,0 0.178,-0.0423 0.2273,-0.1261 0.0485,-0.0837 0.0732,-0.1806 0.0732,-0.2899 0,-0.1102 -0.0247,-0.2072 -0.074,-0.2909 -0.0503,-0.0837 -0.1261,-0.126 -0.2301,-0.126l-0.1886 0c-0.0114,0 -0.0176,-0.0062 -0.0176,-0.0194l0 -0.0282c0,-0.0097 0.0062,-0.015 0.0176,-0.015l0.1543 -0.0115c0.0617,0 0.1145,-0.0229 0.1586,-0.0678 0.0441,-0.045 0.0767,-0.1014 0.0978,-0.1675 0.0212,-0.0661 0.0318,-0.1278 0.0318,-0.1851 0,-0.0528 -0.0097,-0.1004 -0.0282,-0.1427 -0.0186,-0.0415 -0.0468,-0.075 -0.0847,-0.0996 -0.0387,-0.0256 -0.0846,-0.0379 -0.1374,-0.0379 -0.0741,0 -0.1437,0.0123 -0.208,0.0361 -0.0644,0.0238 -0.1137,0.0626 -0.1472,0.1163 0.0035,-0.0017 0.0079,-0.0026 0.0149,-0.0026 0.0353,0 0.0644,0.0115 0.0882,0.0352 0.0229,0.023 0.0344,0.052 0.0344,0.0873 0,0.0353 -0.0115,0.0635 -0.0344,0.0873 -0.0238,0.0229 -0.0529,0.0343 -0.0882,0.0343 -0.0343,0 -0.0625,-0.0114 -0.0863,-0.0343 -0.0229,-0.023 -0.0344,-0.052 -0.0344,-0.0864 0,-0.0749 0.0229,-0.1384 0.0696,-0.1913 0.0467,-0.052 0.1049,-0.0916 0.1763,-0.1172 0.0714,-0.0256 0.1428,-0.0388 0.2151,-0.0388 0.0705,0 0.1427,0.0132 0.2159,0.0406 0.074,0.0273 0.1348,0.0678 0.1833,0.1216 0.0485,0.0538 0.0732,0.1181 0.0732,0.193 0,0.0696 -0.0168,0.1357 -0.0503,0.2001 -0.0335,0.0634 -0.0793,0.1172 -0.1366,0.1613 -0.0573,0.0432 -0.1207,0.0758 -0.1912,0.0978 0.0758,0.0106 0.148,0.0361 0.2185,0.0784 0.0697,0.0415 0.1261,0.0944 0.1675,0.1596 0.0423,0.0643 0.0635,0.1357 0.0635,0.2141 0,0.0926 -0.0256,0.1781 -0.0767,0.2539 -0.0511,0.0767 -0.119,0.1366 -0.2036,0.1789 -0.0855,0.0432 -0.1728,0.0643 -0.2644,0.0643 -0.1349,0 -0.2574,-0.037 -0.3667,-0.1119 -0.1101,-0.0749 -0.1648,-0.178 -0.1648,-0.3076 0,-0.0238 0.0053,-0.0467 0.0168,-0.067 0.0114,-0.0194 0.0273,-0.0352 0.0475,-0.0467 0.0212,-0.0114 0.0432,-0.0167 0.0679,-0.0167 0.0238,0 0.0458,0.0053 0.0661,0.0167 0.0203,0.0115 0.0362,0.0265 0.0476,0.0467 0.0115,0.0203 0.0168,0.0423 0.0168,0.067 0,0.0361 -0.0124,0.0679 -0.0371,0.0934 -0.0246,0.0247 -0.0555,0.0379 -0.0934,0.0379 -0.0035,-0.0008 -0.007,-0.0017 -0.0097,-0.0026 -0.0017,0 -0.0053,0 -0.0088,0z"/>
  <path class="fil4" d="M89.2051 98.4802c0.0522,0.0431 0.1192,0.0642 0.2002,0.0642 0.0853,0 0.1615,-0.0818 0.2278,-0.246 0.0218,-0.0628 0.0585,-0.2214 0.1106,-0.4759 0.0515,-0.2538 0.0952,-0.4801 0.1312,-0.6782l0.1981 -1.0448 -0.3546 0c-0.0247,0 -0.0374,-0.0162 -0.0374,-0.048l0.0162 -0.0662c0.0056,-0.0177 0.0169,-0.0268 0.0331,-0.0268l0.3681 0 0.0514 -0.2792c0.0451,-0.227 0.0881,-0.3885 0.1276,-0.4851 0.0402,-0.1064 0.103,-0.1981 0.189,-0.2749 0.086,-0.0768 0.184,-0.1156 0.2925,-0.1156 0.0959,0 0.1826,0.0239 0.2581,0.0712 0.0754,0.0479 0.1135,0.117 0.1135,0.208 0,0.0662 -0.0212,0.1233 -0.0628,0.1727 -0.0423,0.0486 -0.0959,0.0733 -0.16,0.0733 -0.043,0 -0.079,-0.0127 -0.1086,-0.0381 -0.0296,-0.0253 -0.0444,-0.0592 -0.0444,-0.1008 0,-0.055 0.0205,-0.1057 0.0606,-0.1516 0.0409,-0.0465 0.0882,-0.069 0.1417,-0.069 -0.0507,-0.0431 -0.1198,-0.0642 -0.2065,-0.0642 -0.036,0 -0.0712,0.0148 -0.1065,0.0444 -0.0352,0.0296 -0.0599,0.0613 -0.0754,0.0959 -0.0176,0.0437 -0.0635,0.2552 -0.1361,0.6338l-0.0536 0.2792 0.4273 0c0.0113,0 0.0204,0.0049 0.0268,0.0155 0.007,0.0106 0.0105,0.0197 0.0105,0.0282l-0.0169 0.0684c-0.0035,0.019 -0.0155,0.0289 -0.0345,0.0289l-0.4399 0 -0.1946 1.0448c-0.0289,0.1657 -0.0585,0.3179 -0.0889,0.4575 -0.0303,0.1396 -0.0754,0.294 -0.1346,0.4625 -0.0592,0.1692 -0.1333,0.3081 -0.2214,0.4174 -0.0881,0.1092 -0.1924,0.1642 -0.3123,0.1642 -0.0578,0 -0.1156,-0.0106 -0.1727,-0.031 -0.0571,-0.0204 -0.1037,-0.0522 -0.1396,-0.0938 -0.036,-0.0423 -0.0536,-0.0937 -0.0536,-0.1544 0,-0.0648 0.0219,-0.1219 0.0663,-0.1713 0.0444,-0.0493 0.0994,-0.0747 0.1642,-0.0747 0.043,0 0.0783,0.0134 0.1072,0.0388 0.0282,0.0254 0.0423,0.0585 0.0423,0.1001 0,0.0564 -0.0211,0.1071 -0.0634,0.153 -0.0423,0.0451 -0.091,0.0676 -0.146,0.0676z"/>
  <path id="1" class="fil4" d="M91.5083 98.6302c-0.1269,0 -0.2309,-0.0256 -0.3111,-0.0776 -0.0811,-0.0511 -0.1393,-0.1233 -0.1763,-0.2168 -0.0361,-0.0925 -0.0546,-0.2009 -0.0546,-0.3234 0,-0.1948 0.0432,-0.3491 0.1295,-0.4628 0.0864,-0.1137 0.2248,-0.1701 0.4125,-0.1701 0.1269,0 0.2309,0.0273 0.312,0.0811 0.0802,0.0538 0.1393,0.1269 0.1745,0.2204 0.0362,0.0934 0.0538,0.2036 0.0538,0.3314 0,0.1225 -0.0185,0.2309 -0.0546,0.3234 -0.0371,0.0935 -0.0952,0.1657 -0.1763,0.2168 -0.0802,0.052 -0.1833,0.0776 -0.3094,0.0776zm0 -0.0635c0.1031,0 0.1781,-0.029 0.2274,-0.0863 0.0494,-0.0573 0.0793,-0.1252 0.0899,-0.2036 0.0106,-0.0776 0.0159,-0.1754 0.0159,-0.2944 0,-0.1155 -0.0053,-0.2089 -0.0159,-0.2803 -0.0106,-0.0714 -0.0405,-0.1322 -0.089,-0.1833 -0.0485,-0.0503 -0.1243,-0.0758 -0.2283,-0.0758 -0.104,0 -0.1798,0.0255 -0.2283,0.0758 -0.0484,0.0502 -0.0784,0.111 -0.0899,0.1824 -0.0114,0.0723 -0.0167,0.1657 -0.0167,0.2812 0,0.119 0.0053,0.2177 0.0167,0.2961 0.0115,0.0785 0.0415,0.1463 0.0899,0.2028 0.0494,0.0572 0.1252,0.0854 0.2283,0.0854z"/>
  <path class="fil4" d="M97.9936 117.939c0.0522,0.0431 0.1192,0.0642 0.2002,0.0642 0.0853,0 0.1615,-0.0818 0.2278,-0.246 0.0218,-0.0628 0.0585,-0.2214 0.1106,-0.4759 0.0515,-0.2538 0.0952,-0.4801 0.1312,-0.6782l0.1981 -1.0448 -0.3546 0c-0.0247,0 -0.0374,-0.0162 -0.0374,-0.048l0.0162 -0.0662c0.0056,-0.0177 0.0169,-0.0268 0.0331,-0.0268l0.3681 0 0.0514 -0.2792c0.0451,-0.227 0.0881,-0.3885 0.1276,-0.4851 0.0402,-0.1064 0.103,-0.1981 0.189,-0.2749 0.086,-0.0768 0.184,-0.1156 0.2925,-0.1156 0.0959,0 0.1826,0.0239 0.2581,0.0712 0.0754,0.0479 0.1135,0.117 0.1135,0.208 0,0.0662 -0.0212,0.1233 -0.0628,0.1727 -0.0423,0.0486 -0.0959,0.0733 -0.16,0.0733 -0.043,0 -0.079,-0.0127 -0.1086,-0.0381 -0.0296,-0.0253 -0.0444,-0.0592 -0.0444,-0.1008 0,-0.055 0.0205,-0.1057 0.0606,-0.1516 0.0409,-0.0465 0.0882,-0.069 0.1417,-0.069 -0.0507,-0.0431 -0.1198,-0.0642 -0.2065,-0.0642 -0.036,0 -0.0712,0.0148 -0.1065,0.0444 -0.0352,0.0296 -0.0599,0.0613 -0.0754,0.0959 -0.0176,0.0437 -0.0635,0.2552 -0.1361,0.6338l-0.0536 0.2792 0.4273 0c0.0113,0 0.0204,0.0049 0.0268,0.0155 0.007,0.0106 0.0105,0.0197 0.0105,0.0282l-0.0169 0.0684c-0.0035,0.019 -0.0155,0.0289 -0.0345,0.0289l-0.4399 0 -0.1946 1.0448c-0.0289,0.1657 -0.0585,0.3179 -0.0889,0.4575 -0.0303,0.1396 -0.0754,0.294 -0.1346,0.4625 -0.0592,0.1692 -0.1333,0.3081 -0.2214,0.4174 -0.0881,0.1092 -0.1924,0.1642 -0.3123,0.1642 -0.0578,0 -0.1156,-0.0106 -0.1727,-0.031 -0.0571,-0.0204 -0.1037,-0.0522 -0.1396,-0.0938 -0.036,-0.0423 -0.0536,-0.0937 -0.0536,-0.1544 0,-0.0648 0.0219,-0.1219 0.0663,-0.1713 0.0444,-0.0493 0.0994,-0.0747 0.1642,-0.0747 0.043,0 0.0783,0.0134 0.1072,0.0388 0.0282,0.0254 0.0423,0.0585 0.0423,0.1001 0,0.0564 -0.0211,0.1071 -0.0634,0.153 -0.0423,0.0451 -0.091,0.0676 -0.146,0.0676z"/>
  <path id="1" class="fil4" d="M99.9055 118.01l0 -0.0432c0,-0.0053 0.0026,-0.0097 0.0062,-0.015 0.0035,-0.0044 0.0088,-0.0071 0.0149,-0.0071 0.1287,0 0.2133,-0.0044 0.2539,-0.0123 0.0317,-0.0097 0.0476,-0.0344 0.0476,-0.074l0 -0.8576c-0.0776,0.0255 -0.1807,0.0379 -0.3094,0.0379 -0.0194,0 -0.03,-0.0071 -0.03,-0.0212l0 -0.0423c0,-0.0123 0.0089,-0.0203 0.0247,-0.0247 0.0934,0 0.1781,-0.007 0.2539,-0.022 0.0758,-0.015 0.1427,-0.0432 0.2009,-0.0864 0.0035,-0.0035 0.0088,-0.0053 0.0176,-0.0053 0.008,0 0.0141,0.0018 0.0194,0.0062 0.0053,0.0035 0.008,0.0088 0.008,0.0159l0 0.9995c0,0.0396 0.0158,0.0643 0.0476,0.074 0.022,0.0044 0.0546,0.0071 0.0978,0.0097 0.0441,0.0018 0.0961,0.0026 0.1551,0.0026 0.0062,0 0.0115,0.0027 0.0159,0.0071 0.0044,0.0053 0.0061,0.0097 0.0061,0.015l0 0.0432c0,0.0149 -0.0079,0.0229 -0.0246,0.0229l-0.7818 0c-0.0159,0 -0.0238,-0.008 -0.0238,-0.0229z"/>
  <path class="fil4" d="M99.3093 137.491c0.0522,0.0431 0.1192,0.0642 0.2002,0.0642 0.0853,0 0.1615,-0.0818 0.2278,-0.246 0.0218,-0.0628 0.0585,-0.2214 0.1106,-0.4759 0.0515,-0.2538 0.0952,-0.4801 0.1312,-0.6782l0.1981 -1.0448 -0.3546 0c-0.0247,0 -0.0374,-0.0162 -0.0374,-0.048l0.0162 -0.0662c0.0056,-0.0177 0.0169,-0.0268 0.0331,-0.0268l0.3681 0 0.0514 -0.2792c0.0451,-0.227 0.0881,-0.3885 0.1276,-0.4851 0.0402,-0.1064 0.103,-0.1981 0.189,-0.2749 0.086,-0.0768 0.184,-0.1156 0.2925,-0.1156 0.0959,0 0.1826,0.0239 0.2581,0.0712 0.0754,0.0479 0.1135,0.117 0.1135,0.208 0,0.0662 -0.0212,0.1233 -0.0628,0.1727 -0.0423,0.0486 -0.0959,0.0733 -0.16,0.0733 -0.043,0 -0.079,-0.0127 -0.1086,-0.0381 -0.0296,-0.0253 -0.0444,-0.0592 -0.0444,-0.1008 0,-0.055 0.0205,-0.1057 0.0606,-0.1516 0.0409,-0.0465 0.0882,-0.069 0.1417,-0.069 -0.0507,-0.0431 -0.1198,-0.0642 -0.2065,-0.0642 -0.036,0 -0.0712,0.0148 -0.1065,0.0444 -0.0352,0.0296 -0.0599,0.0613 -0.0754,0.0959 -0.0176,0.0437 -0.0635,0.2552 -0.1361,0.6338l-0.0536 0.2792 0.4273 0c0.0113,0 0.0204,0.0049 0.0268,0.0155 0.007,0.0106 0.0105,0.0197 0.0105,0.0282l-0.0169 0.0684c-0.0035,0.019 -0.0155,0.0289 -0.0345,0.0289l-0.4399 0 -0.1946 1.0448c-0.0289,0.1657 -0.0585,0.3179 -0.0889,0.4575 -0.0303,0.1396 -0.0754,0.294 -0.1346,0.4625 -0.0592,0.1692 -0.1333,0.3081 -0.2214,0.4174 -0.0881,0.1092 -0.1924,0.1642 -0.3123,0.1642 -0.0578,0 -0.1156,-0.0106 -0.1727,-0.031 -0.0571,-0.0204 -0.1037,-0.0522 -0.1396,-0.0938 -0.036,-0.0423 -0.0536,-0.0937 -0.0536,-0.1544 0,-0.0648 0.0219,-0.1219 0.0663,-0.1713 0.0444,-0.0493 0.0994,-0.0747 0.1642,-0.0747 0.043,0 0.0783,0.0134 0.1072,0.0388 0.0282,0.0254 0.0423,0.0585 0.0423,0.1001 0,0.0564 -0.0211,0.1071 -0.0634,0.153 -0.0423,0.0451 -0.091,0.0676 -0.146,0.0676z"/>
  <path id="1" class="fil4" d="M101.081 137.563l0 -0.0485c-0.0017,0 0.0009,-0.0035 0.008,-0.0097l0.4336 -0.305c0.0256,-0.0167 0.067,-0.0449 0.1243,-0.0837 0.0564,-0.0388 0.1022,-0.074 0.1366,-0.1066 0.0344,-0.0318 0.0635,-0.0688 0.0873,-0.1093 0.0238,-0.0406 0.0352,-0.0864 0.0352,-0.1367 0,-0.0951 -0.0388,-0.1665 -0.1172,-0.2141 -0.0784,-0.0467 -0.1692,-0.0705 -0.2715,-0.0705 -0.0626,0 -0.1225,0.0132 -0.1789,0.0396 -0.0564,0.0256 -0.0978,0.0652 -0.1243,0.1164 0.0238,0 0.0441,0.0097 0.0608,0.0291 0.0168,0.0193 0.0256,0.0414 0.0256,0.0652 0,0.0273 -0.0088,0.0502 -0.0273,0.0696 -0.0176,0.0185 -0.0406,0.0282 -0.0688,0.0282 -0.0273,0 -0.0502,-0.0097 -0.0687,-0.0291 -0.0185,-0.0194 -0.0273,-0.0423 -0.0273,-0.0687 0,-0.0749 0.0238,-0.1375 0.0714,-0.1886 0.0476,-0.0512 0.1075,-0.0882 0.1806,-0.1129 0.0732,-0.0246 0.1446,-0.037 0.2151,-0.037 0.0617,0 0.126,0.0062 0.1913,0.0185 0.0652,0.0124 0.1251,0.0335 0.1798,0.0617 0.0546,0.0291 0.0987,0.0679 0.1322,0.1155 0.0326,0.0476 0.0493,0.1066 0.0493,0.1771 0,0.0609 -0.0167,0.1155 -0.0502,0.1631 -0.0335,0.0485 -0.074,0.0873 -0.1225,0.119 -0.0476,0.0317 -0.1093,0.0661 -0.186,0.1049 -0.0767,0.0379 -0.1287,0.0652 -0.1569,0.0819l-0.2917 0.179 0.2521 0c0.252,0 0.3966,-0.0027 0.4336,-0.008 0.0176,-0.022 0.0361,-0.0714 0.0555,-0.148 0,-0.0106 0.0071,-0.0159 0.0212,-0.0159l0.0247 0c0.0044,0 0.0096,0.0035 0.0141,0.0088 0.0044,0.0062 0.0061,0.0123 0.0061,0.0176l-0.0687 0.3015c-0.0027,0.0123 -0.0097,0.0185 -0.0221,0.0185l-0.9316 0c-0.0167,0 -0.0247,-0.008 -0.0247,-0.0229z"/>
 </g>
</svg>
