<?xml version="1.0" encoding="UTF-8" standalone="no"?>
<!-- Created with Inkscape (http://www.inkscape.org/) -->
<svg
   xmlns:dc="http://purl.org/dc/elements/1.1/"
   xmlns:cc="http://web.resource.org/cc/"
   xmlns:rdf="http://www.w3.org/1999/02/22-rdf-syntax-ns#"
   xmlns:svg="http://www.w3.org/2000/svg"
   xmlns="http://www.w3.org/2000/svg"
   xmlns:xlink="http://www.w3.org/1999/xlink"
   xmlns:sodipodi="http://sodipodi.sourceforge.net/DTD/sodipodi-0.dtd"
   xmlns:inkscape="http://www.inkscape.org/namespaces/inkscape"
   width="124.22071"
   height="124.23133"
   id="svg3389"
   sodipodi:version="0.32"
   inkscape:version="0.45.1"
   sodipodi:docbase="D:\Development\SVN\TortoiseSVN\src\Resources\svg"
   sodipodi:docname="repo_http.svg"
   inkscape:output_extension="org.inkscape.output.svg.inkscape"
   version="1.0">
  <sodipodi:namedview
     id="base"
     pagecolor="#ffffff"
     bordercolor="#666666"
     borderopacity="1.0"
     inkscape:pageopacity="0.0"
     inkscape:pageshadow="2"
     inkscape:zoom="1.979899"
     inkscape:cx="74.530527"
     inkscape:cy="103.00949"
     inkscape:document-units="px"
     inkscape:current-layer="layer1"
     inkscape:window-width="1114"
     inkscape:window-height="966"
     inkscape:window-x="518"
     inkscape:window-y="121" />
  <defs
     id="defs3391">
    <radialGradient
       r="3.1789999"
       id="defitem14"
       fx="38.584499"
       fy="48.691898"
       gradientUnits="userSpaceOnUse"
       cy="48.691898"
       cx="38.584499">
      <stop
         offset="0"
         style="stop-color:#ffffff;stop-opacity:0.84516132;"
         id="stop89"
         stop-opacity="1"
         stop-color="#ffffff" />
      <stop
         offset="1"
         id="stop91"
         stop-opacity="0"
         stop-color="#ffffff" />
    </radialGradient>
    <radialGradient
       r="64.772102"
       id="defitem12"
       fx="62.500599"
       fy="114.505"
       gradientUnits="userSpaceOnUse"
       cy="114.505"
       cx="61.052898">
      <stop
         offset="0"
         id="stop73"
         stop-opacity="1"
         stop-color="#3b5bb1" />
      <stop
         offset="0.333333"
         id="stop75"
         stop-opacity="1"
         stop-color="#9cacd8" />
      <stop
         offset="0.5"
         id="stop77"
         stop-opacity="1"
         stop-color="#ffffff" />
      <stop
         offset="0.819444"
         id="stop79"
         stop-opacity="1"
         stop-color="#b1bcd8" />
      <stop
         offset="1"
         id="stop81"
         stop-opacity="1"
         stop-color="#3b5bb1" />
    </radialGradient>
    <linearGradient
       id="defitem11"
       gradientUnits="userSpaceOnUse"
       x1="73.041199"
       x2="32.438499"
       y1="58.562698"
       y2="118.927">
      <stop
         offset="0"
         id="stop68"
         stop-opacity="1"
         stop-color="#ffffff" />
      <stop
         offset="1"
         id="stop70"
         stop-opacity="0"
         stop-color="#ffffff" />
    </linearGradient>
    <radialGradient
       r="90.017502"
       id="defitem10"
       fx="63.869499"
       fy="104.901"
       gradientUnits="userSpaceOnUse"
       cy="103.471"
       cx="63.869499">
      <stop
         offset="0"
         id="stop57"
         stop-opacity="1"
         stop-color="#b1c3e9" />
      <stop
         offset="0.375"
         id="stop59"
         stop-opacity="1"
         stop-color="#576eb1" />
      <stop
         offset="0.5"
         id="stop61"
         stop-opacity="1"
         stop-color="#001a7b" />
      <stop
         offset="0.666667"
         id="stop63"
         stop-opacity="1"
         stop-color="#8597cf" />
      <stop
         offset="1"
         id="stop65"
         stop-opacity="1"
         stop-color="#b1c3e9" />
    </radialGradient>
    <radialGradient
       r="56.158001"
       id="defitem9"
       fx="59.563"
       fy="4.9972801"
       gradientUnits="userSpaceOnUse"
       cy="4.9972801"
       cx="59.563">
      <stop
         offset="0"
         id="stop52"
         stop-opacity="1"
         stop-color="#a3cdeb" />
      <stop
         offset="1"
         id="stop54"
         stop-opacity="1"
         stop-color="#002f82" />
    </radialGradient>
    <radialGradient
       r="64.772102"
       id="radialGradient3633"
       fx="62.500599"
       fy="114.505"
       gradientUnits="userSpaceOnUse"
       inkscape:collect="always"
       cy="114.505"
       cx="61.052898"
       xlink:href="#defitem12"
       gradientTransform="matrix(1.248949,0,0,-1.248949,139.34799,316.68385)" />
    <linearGradient
       id="linearGradient3636"
       gradientUnits="userSpaceOnUse"
       inkscape:collect="always"
       x1="73.041199"
       x2="32.438499"
       xlink:href="#defitem11"
       gradientTransform="matrix(1.248949,0,0,-1.248949,139.34799,316.68385)"
       y1="58.562698"
       y2="118.927" />
    <radialGradient
       r="90.017502"
       id="radialGradient3642"
       fx="63.869499"
       fy="104.901"
       gradientUnits="userSpaceOnUse"
       inkscape:collect="always"
       cy="103.471"
       cx="63.869499"
       xlink:href="#defitem10"
       gradientTransform="matrix(1.248949,0,0,-1.248949,139.34799,316.68385)" />
    <radialGradient
       r="56.158001"
       id="radialGradient3645"
       fx="59.563"
       fy="4.9972801"
       gradientUnits="userSpaceOnUse"
       inkscape:collect="always"
       cy="4.9972801"
       cx="59.563"
       xlink:href="#defitem9"
       gradientTransform="matrix(1.248949,0,0,-1.248949,139.34799,316.68385)" />
    <radialGradient
       r="3.9704101"
       id="radialGradient4974"
       fx="224.32378"
       fy="181.94157"
       gradientUnits="userSpaceOnUse"
       inkscape:collect="always"
       cy="181.94157"
       cx="224.32378"
       xlink:href="#defitem14"
       gradientTransform="matrix(0.3703421,0,0,0.4602932,142.67581,99.266526)" />
  </defs>
  <metadata
     id="metadata3394">
    <rdf:RDF>
      <cc:Work
         rdf:about="">
        <dc:format>image/svg+xml</dc:format>
        <dc:type
           rdf:resource="http://purl.org/dc/dcmitype/StillImage" />
      </cc:Work>
    </rdf:RDF>
  </metadata>
  <g
     inkscape:label="Ebene 1"
     id="layer1"
     inkscape:groupmode="layer"
     transform="translate(-157.88964,-158.81795)">
    <path
       style="fill:#000000"
       id="path87"
       d="" />
    <path
       style="fill:url(#radialGradient3645)"
       d="M 219.9975,283.04928 C 254.29676,283.04928 282.11035,255.1023 282.11035,220.82502 C 282.11035,186.76318 254.29801,158.81795 219.9975,158.81795 C 185.94665,158.81795 157.88964,186.76318 157.88964,220.82502 C 157.88964,255.1023 185.94665,283.04928 219.9975,283.04928 z "
       id="path67" />
    <path
       style="fill:url(#radialGradient3642)"
       d="M 219.99762,279.39848 C 252.28058,279.39848 278.47092,253.09911 278.47092,220.83164 C 278.47092,188.76899 252.28058,162.45863 219.99762,162.45863 C 187.94909,162.45863 161.53657,188.76899 161.53657,220.83164 C 161.53657,253.09911 187.94909,279.39848 219.99762,279.39848 z "
       id="path74" />
    <path
       style="fill:none"
       d="M 169.08696,199.40791 C 169.08209,199.13015 169.06124,198.85613 169.06124,198.57836 C 169.06124,197.70485 169.11994,196.83733 169.20324,195.98454 C 167.64568,198.12574 166.42096,202.08978 166.57395,203.09918 L 166.97524,205.79691 C 165.77125,206.7611 165.1534,209.28635 166.37325,209.6473 C 168.45687,210.25541 170.50003,210.95395 172.4344,211.66722 C 170.59919,208.23049 169.45765,204.54172 169.15054,200.69745 C 168.70766,200.21299 168.38593,199.83131 168.38593,199.83131 L 169.08696,199.40791 z "
       id="path85" />
    <path
       style="fill:#ffffff;fill-opacity:0.13636397"
       d="M 219.9975,265.87386 C 191.68395,265.87386 168.12965,249.74093 165.97496,224.50517 C 165.86343,225.74587 165.79036,226.9987 165.79036,228.25401 C 165.79036,255.24905 190.28038,277.25228 219.99625,277.25228 C 249.92744,277.25228 274.20576,255.24905 274.20576,228.25401 C 274.20576,226.99745 274.14081,225.74587 274.03215,224.50517 C 271.8902,249.74093 248.52249,265.87386 219.9975,265.87386 z "
       id="path89" />
    <path
       style="opacity:0.7171717;fill:url(#linearGradient3636)"
       d="M 216.58774,162.82832 C 216.19257,162.85205 215.8099,162.9145 215.41673,162.94572 C 212.0056,167.3695 209.16087,175.35653 207.25959,186.05128 C 200.78891,185.07585 195.22372,183.40226 191.02325,181.25032 C 195.49162,173.55804 201.22629,167.72795 207.57183,163.88243 C 205.9171,164.24713 204.3719,164.86411 202.77112,165.36618 C 197.76958,169.13551 193.29384,174.26744 189.65715,180.62584 C 187.20996,179.21203 185.45532,177.57591 184.31015,175.82613 C 185.90756,174.23997 187.60301,172.80742 189.34492,171.41609 C 185.55061,173.78285 181.9625,176.43062 178.80703,179.57298 C 178.702,179.67664 178.63793,179.81902 178.53376,179.92393 C 177.47603,180.99303 176.6195,182.25073 175.64557,183.39726 C 173.54521,186.39724 171.64943,189.5908 170.06439,192.99893 C 169.84633,192.69606 169.71181,192.37084 169.51785,192.06222 C 169.38971,192.28428 169.25295,192.50173 169.12768,192.72566 C 169.31902,193.07787 169.45366,193.43257 169.67397,193.77952 C 166.98124,199.77998 165.23908,206.2629 164.44412,213.13823 C 163.68876,212.38524 163.12723,211.58704 162.5707,210.79646 C 162.50288,211.17888 162.51375,211.58242 162.45355,211.96722 C 163.00845,212.81014 163.54838,213.65917 164.32697,214.46512 C 164.12427,216.58546 163.74146,218.65122 163.74146,220.82701 C 163.74146,224.37753 164.15374,227.81851 164.67817,231.2089 C 163.72048,230.56857 163.15108,229.85717 162.37549,229.17936 C 162.44655,229.66807 162.44843,230.17777 162.53161,230.66249 C 163.32319,231.36565 163.86236,232.1019 164.83429,232.77009 C 165.70968,237.67883 167.18719,242.31643 169.0495,246.74271 C 168.24405,246.14396 167.56849,245.49763 166.86384,244.86928 C 167.35605,245.95012 167.98751,246.94678 168.54217,247.99166 C 169.15591,248.46388 169.70045,248.94398 170.37663,249.39672 C 171.80693,252.40069 173.3811,255.25205 175.21631,257.94428 C 179.08493,262.61198 183.53468,266.75549 188.64251,270.04335 C 186.52791,268.31967 184.51586,266.47847 182.63182,264.46217 C 186.46359,266.32285 190.61922,267.9325 195.1604,269.18482 C 197.44897,271.95437 199.91802,274.37458 202.53707,276.40524 C 204.02094,276.8781 205.45549,277.45649 206.98632,277.81031 C 203.67761,275.72469 200.51889,273.11926 197.6583,269.88723 C 202.03149,270.94746 206.69657,271.62165 211.51376,272.03392 C 212.6267,274.89776 213.89538,277.15699 215.22164,278.90314 C 215.61431,278.93587 215.99786,278.99544 216.39253,279.02029 C 215.11898,277.22955 213.93248,274.96795 212.87986,272.11198 C 215.21003,272.27872 217.5011,272.54125 219.9052,272.54125 C 224.52469,272.54125 228.96932,272.13272 233.29244,271.5266 C 231.9653,274.37545 230.47718,276.62681 228.92111,278.47375 C 229.40658,278.39844 229.92265,278.44403 230.40412,278.35673 C 232.04948,276.50291 233.59231,274.1429 235.00974,271.21436 C 240.00316,270.41591 244.71183,269.24677 249.09938,267.74066 C 246.61048,270.71965 243.82445,273.14811 240.94225,275.31241 C 242.98653,274.52096 244.90953,273.5489 246.83566,272.54125 C 248.70634,270.76312 250.51994,268.87021 252.18279,266.72589 C 255.58817,265.39189 258.60064,263.75114 261.47172,262.04233 C 262.93636,260.56457 264.15097,258.86775 265.45312,257.24162 C 262.25169,259.55492 258.71704,261.67214 254.64159,263.4474 C 256.52576,260.61728 258.22595,257.56672 259.71545,254.27537 C 264.7025,252.29016 268.72911,249.86395 271.93142,247.21106 C 272.37355,246.34267 272.89811,245.52773 273.29777,244.6351 C 270.13543,247.59262 265.75911,250.23002 260.41798,252.40194 C 262.38483,247.71251 263.89581,242.67101 264.9448,237.29753 C 270.68497,235.0162 274.94513,232.29686 277.63037,229.33548 C 277.70531,228.82191 277.72405,228.29198 277.78649,227.77429 C 275.18868,230.66299 270.99221,233.2603 265.33572,235.42411 C 266.14129,230.72219 266.70207,225.87252 266.70207,220.82701 C 266.70207,220.70662 266.66335,220.59608 266.66335,220.47581 C 271.87772,218.00626 275.60583,215.12356 277.59166,212.00631 C 277.53545,211.64686 277.53545,211.27081 277.47426,210.91348 C 275.4597,213.93207 271.73534,216.65902 266.58467,218.95359 C 266.4348,212.05789 265.44813,205.49055 263.8135,199.32161 C 267.03429,197.07338 269.30613,194.56362 270.44892,191.9061 C 270.33152,191.70527 270.25533,191.48171 270.13668,191.28188 C 268.8665,193.70821 266.60715,195.95257 263.54036,197.95564 C 261.59799,191.10702 258.74177,184.93846 255.30516,179.53426 C 256.33567,178.62253 257.09228,177.63711 257.72487,176.64544 C 257.57026,176.51305 257.41264,176.38566 257.25652,176.25452 C 256.58871,177.13378 255.87131,177.99556 254.87577,178.79239 C 252.47717,175.13297 249.69513,172.04182 246.7576,169.26915 C 244.94938,168.32744 243.167,167.367 241.25448,166.61513 C 245.79679,170.05224 249.92993,174.46977 253.39265,179.8465 C 250.08293,182.02966 245.49342,183.78818 240.00554,185.03713 C 237.55622,175.24287 234.09688,167.87407 230.13097,163.49276 C 229.64725,163.40658 229.13556,163.40908 228.64784,163.33664 C 232.57904,167.82786 235.9191,175.37276 238.21005,185.4268 C 233.02216,186.46343 227.23928,187.06667 221.037,187.06667 C 216.72887,187.06667 212.72537,186.67825 208.85975,186.16868 C 210.59129,175.39649 213.26754,167.32703 216.58774,162.82832 z M 183.88077,176.2158 C 184.91327,178.11171 186.71088,179.90395 189.1888,181.48512 C 185.98,187.30148 183.45288,193.93639 181.81226,201.23413 C 177.28482,199.32086 173.75266,197.078 171.35231,194.52103 C 174.49416,187.63619 178.72211,181.43391 183.88077,176.2158 z M 253.861,180.62584 C 257.25777,186.07126 260.01008,192.2618 261.90111,199.08756 C 257.14199,201.78379 250.69591,203.88077 243.32299,205.37127 C 242.69927,198.55438 241.74095,192.11193 240.39571,186.40348 C 245.98388,184.98468 250.594,183.01134 253.861,180.62584 z M 190.47684,182.18703 C 194.68817,184.57752 200.37364,186.45469 207.02541,187.57375 C 206.05111,193.41258 205.33047,199.88176 204.91781,206.81531 C 196.58545,205.8666 189.06253,204.16891 183.06121,201.81951 C 184.71781,194.59309 187.23544,187.9884 190.47684,182.18703 z M 238.56138,186.83187 C 239.7836,192.54706 240.62876,198.99326 241.1763,205.80066 C 234.58522,206.98042 227.34382,207.71305 219.63193,207.71305 C 215.26486,207.71305 211.0795,207.43866 207.02541,207.04961 C 207.38474,200.24009 207.76529,193.51887 208.62569,187.76858 C 212.5394,188.34435 216.66892,188.74401 221.037,188.74401 C 227.37854,188.74401 233.28419,188.01088 238.56138,186.83187 z M 170.88395,195.37968 C 173.22848,198.16346 176.81871,200.69283 181.50002,202.83441 C 180.32451,208.57395 179.50944,214.53256 179.50944,220.82701 C 179.50944,220.98738 179.54779,221.13525 179.54854,221.29537 C 173.89991,219.47615 169.23122,217.29636 166.00531,214.77736 C 166.66613,207.93436 168.24854,201.39849 170.88395,195.37968 z M 262.21335,200.49263 C 263.76754,206.52905 264.7687,212.90968 264.86736,219.61703 C 259.13331,221.94407 252.08013,223.81912 243.9085,225.04222 C 243.94247,223.62454 244.06462,222.26868 244.06462,220.82701 C 244.06462,216.19629 243.86079,211.71193 243.51808,207.36185 C 250.95882,205.70387 257.46147,203.38981 262.21335,200.49263 z M 182.71,203.45888 C 188.74854,206.02784 196.35527,207.89415 204.80066,208.962 C 204.60945,212.80939 204.48842,216.7693 204.48842,220.82701 C 204.48842,222.58878 204.56923,224.25351 204.60558,225.97893 C 195.63525,225.16511 187.54656,223.70247 180.79748,221.64657 C 180.79486,221.36731 180.75839,221.10715 180.75839,220.82701 C 180.75839,214.76187 181.5556,209.01071 182.71,203.45888 z M 241.37151,207.86917 C 241.6584,212.06351 241.83987,216.37339 241.83987,220.82701 C 241.83987,222.37696 241.71909,223.83261 241.68375,225.35445 C 234.97664,226.2462 227.68291,226.75952 220.06132,226.75952 C 215.4196,226.75952 210.97222,226.5502 206.63512,226.21311 C 206.59815,224.34918 206.40094,222.73428 206.40094,220.82701 C 206.40094,216.72771 206.73741,213.11813 206.90839,209.23527 C 210.99407,209.67203 215.22939,209.97677 219.63193,209.97677 C 227.42362,209.97677 234.72286,209.18481 241.37151,207.86917 z M 165.88816,216.0654 C 169.14816,218.74602 173.87381,221.10565 179.66556,223.09073 C 179.79208,228.26201 180.38546,233.22133 181.30493,238.00006 C 175.39053,236.45137 170.39924,234.54709 166.5516,232.34083 C 165.8703,228.6011 165.4198,224.76845 165.4198,220.82701 C 165.4198,219.19701 165.76651,217.6648 165.88816,216.0654 z M 264.90608,221.2564 C 264.87985,226.44116 264.25038,231.3925 263.34515,236.2047 C 257.54415,238.20701 250.64096,239.82852 242.81567,240.88826 C 243.3436,236.50232 243.65859,231.91181 243.83032,227.14982 C 252.04665,225.80982 259.14443,223.73994 264.90608,221.2564 z M 180.9536,223.48103 C 187.69268,225.66532 195.75889,227.31418 204.68363,228.20356 C 204.82701,232.93907 205.06157,237.51322 205.46423,241.86406 C 197.07816,241.23634 189.43122,240.0316 182.74897,238.39036 C 181.75368,233.61288 181.11135,228.65955 180.9536,223.48103 z M 241.64466,227.46206 C 241.48379,232.18621 241.15082,236.7345 240.66898,241.08347 C 234.00334,241.89266 226.86872,242.41035 219.35879,242.41035 C 215.239,242.41035 211.23237,242.26897 207.33765,242.02018 C 206.98183,237.74803 206.88341,233.0877 206.75227,228.43786 C 211.05715,228.80443 215.45919,229.02324 220.06132,229.02324 C 227.68041,229.02324 234.93518,228.43998 241.64466,227.46206 z M 166.94202,234.13606 C 170.82513,236.39092 175.82829,238.32704 181.6951,239.95155 C 182.84114,245.24572 184.30965,250.29209 186.30073,254.86087 C 180.88079,253.26934 176.10368,251.30312 172.21096,249.00643 C 169.90877,244.32799 168.06033,239.40588 166.94202,234.13606 z M 262.91588,238.15618 C 261.77422,243.48819 260.22365,248.54606 258.15426,253.18254 C 252.74744,255.16961 246.56477,256.75703 239.73227,257.78816 C 240.91215,253.2606 241.90082,248.34811 242.62046,242.99586 C 250.27315,241.87043 257.17384,240.21632 262.91588,238.15618 z M 183.17836,240.38081 C 189.81477,242.10373 197.38628,243.37654 205.65944,244.04972 C 206.21547,249.41708 207.00768,254.25726 207.92303,258.76384 C 200.75169,258.15123 194.10504,256.98084 188.13506,255.3682 C 186.00335,250.7918 184.42481,245.70545 183.17836,240.38081 z M 240.4348,243.23004 C 239.76898,248.5934 238.88685,253.49702 237.78078,258.02221 C 232.10394,258.7852 226.16993,259.31026 219.9052,259.31026 C 216.34357,259.31026 212.87399,259.09244 209.48422,258.8419 C 208.65055,254.36404 207.95126,249.54135 207.45468,244.20584 C 211.31118,244.47561 215.28384,244.6742 219.35879,244.6742 C 226.78878,244.6742 233.82474,244.10105 240.4348,243.23004 z M 173.30379,251.11403 C 177.26758,253.33254 181.87345,255.28115 187.27641,256.81236 C 188.90341,260.24684 190.73762,263.3902 192.77953,266.25753 C 188.09647,264.81837 183.70491,263.08221 179.86077,260.98847 C 177.38286,257.93092 175.20419,254.63969 173.30379,251.11403 z M 257.41264,255.09505 C 255.71607,258.61934 253.71275,261.84125 251.55831,264.8135 C 246.80419,266.61498 241.52925,267.89353 235.98542,268.83349 C 237.17792,266.04734 238.26025,262.9447 239.22494,259.50547 C 245.94241,258.50568 252.04053,257.02256 257.41264,255.09505 z M 189.1888,257.28071 C 195.00903,258.79956 201.40464,259.94047 208.31346,260.52011 C 209.06632,263.95098 209.86752,267.06436 210.81135,269.8093 C 205.36094,269.30922 200.2089,268.3539 195.35561,267.03813 C 193.08714,264.09111 191.00115,260.8647 189.1888,257.28071 z M 237.31243,259.77861 C 236.40294,263.22521 235.36969,266.36644 234.22915,269.14573 C 229.61453,269.83552 224.8694,270.31662 219.9052,270.31662 C 217.2643,270.31662 214.72743,270.08581 212.17733,269.88723 C 211.29395,267.15141 210.48663,264.02079 209.79646,260.5983 C 213.09543,260.83884 216.44586,261.02756 219.9052,261.02756 C 225.99857,261.02756 231.76834,260.51337 237.31243,259.77861 z "
       id="path1388" />
    <path
       style="fill:url(#radialGradient3633);fill-rule:evenodd;stroke-width:0.3125"
       d="M 213.93123,194.48143 C 211.68949,195.97593 201.97516,200.99907 201.97516,205.19205 C 201.97516,209.51129 206.37571,212.53999 209.44775,214.40817 C 212.51979,216.27622 219.70162,211.95885 222.4001,215.65362 C 225.09846,219.34826 224.30974,231.5119 225.63813,236.57664 C 226.96663,241.64137 228.1705,244.79647 230.37077,246.04192 C 232.57104,247.28725 236.5979,245.91728 238.83964,244.04922 C 241.08138,242.18104 241.82863,236.90873 243.82132,234.8331 C 245.81402,232.75735 249.50879,233.08945 250.79571,231.59495 C 252.08262,230.10046 249.84088,228.39839 251.54295,225.86602 C 253.24502,223.33365 259.63814,218.31051 261.00811,216.40086 C 262.37808,214.49122 260.88359,214.61574 259.76279,214.40817 C 258.64185,214.20059 256.89832,217.77084 254.2829,215.15541 C 251.66747,212.53999 245.48193,201.28971 244.07037,198.71587 C 242.65893,196.14191 245.56498,199.83668 245.81402,199.71216 C 246.06306,199.58764 243.73827,195.60224 245.56498,197.96862 C 247.39157,200.33488 253.99227,211.66822 256.77368,213.90996 C 259.55521,216.1517 261.79695,212.41547 262.25356,211.41918 C 262.71018,210.42277 260.38551,208.67924 259.51362,207.93199 C 258.64185,207.18474 257.56251,207.97346 257.02284,206.93558 C 256.48317,205.8977 255.23772,200.83309 256.27559,201.70486 C 257.31347,202.57662 261.88,210.3813 263.24998,212.16643 C 264.62007,213.95155 264.32907,212.78915 264.49518,212.41547 C 264.66129,212.04178 263.95563,210.25678 264.24664,209.92456 C 264.53639,209.59247 266.11382,209.17732 266.23871,210.42277 C 266.36361,211.66822 264.8274,216.02718 264.99351,217.39715 C 265.15962,218.76712 265.86527,219.26533 267.23537,218.6426 C 268.60547,218.01988 272.09253,213.61933 273.21284,213.66092 C 274.3344,213.70238 274.25072,217.64619 273.96096,218.89164 C 273.66996,220.13709 271.92642,220.05404 271.46931,221.13338 C 271.01344,222.21285 271.55299,224.86974 271.22077,225.36782 C 270.88855,225.86602 269.85067,224.86974 269.47724,224.12249 C 269.1038,223.37512 269.43602,221.34096 268.9789,220.88434 C 268.52179,220.42773 267.06926,220.55225 266.73704,221.38255 C 266.40482,222.21285 265.99017,225.07731 266.98558,225.86602 C 267.98224,226.65474 271.42809,226.48875 272.71451,226.11506 C 274.00218,225.7415 274.12707,225.20183 274.70783,223.62429 C 275.28859,222.04674 275.56586,217.03558 276.20283,216.6499 C 276.88725,216.23475 278.01755,219.04926 278.88057,224.18469 C 279.17033,201.01981 270.058,185.99133 261.13276,178.29031 C 252.21601,170.59803 240.62476,166.36035 236.0997,164.46694 C 231.57463,162.57229 235.60162,166.83245 233.60892,167.17591 C 233.11071,167.26084 232.01838,165.12014 231.19008,165.04396 C 230.36165,164.96652 232.28816,167.95026 231.35157,167.82162 C 229.47827,167.56434 225.11931,166.31913 224.14363,166.52146 C 222.19253,166.92612 221.71505,168.47232 221.9019,169.60387 C 221.99532,170.16964 225.90802,167.77666 226.82912,168.45733 C 227.75022,169.13926 225.67972,172.8961 225.26457,173.3095 C 224.43426,174.13381 218.14493,173.68294 216.92021,174.5547 C 215.69562,175.42647 218.04114,177.66833 217.91662,178.5401 C 217.79198,179.41187 215.88234,178.70621 216.17297,179.7853 C 216.4636,180.86439 219.66016,183.7707 219.66016,185.0159 C 219.66016,186.2611 217.08632,186.46968 216.17297,187.25776 C 215.25961,188.0471 213.76512,188.75275 214.18027,189.74817 C 214.59542,190.74483 217.2939,193.27745 218.66387,193.23598 C 220.03372,193.19439 221.11318,190.12285 222.4001,189.49963 C 223.68702,188.8764 225.18151,189.08498 226.38537,189.49963 C 227.58936,189.91428 229.0008,191.28437 229.62352,191.99053 C 230.24625,192.69631 229.70658,193.60954 230.12173,193.73419 C 230.53688,193.85871 232.52945,193.6926 232.11443,192.73778 C 231.69928,191.78271 227.42325,188.21321 227.63082,188.00463 C 227.8384,187.79731 231.8238,190.6624 233.35975,191.49295 C 234.89584,192.32263 235.85066,192.98694 236.84694,192.98694 C 237.84336,192.98694 238.67353,191.78271 239.33785,191.49295 C 240.00204,191.20194 240.62476,191.65781 240.83234,191.24316 C 241.03992,190.82851 240.25108,189.45841 240.5833,189.0013 C 240.9154,188.54543 242.24378,188.75275 242.82504,188.50297 C 243.40617,188.25442 243.57228,187.29898 244.07037,187.50755 C 244.56857,187.71488 246.27064,189.04251 245.81402,189.74817 C 245.35741,190.45507 241.53812,191.28437 241.33055,191.74149 C 241.12297,192.19811 244.31953,191.99053 244.56857,192.48874 C 244.81774,192.98694 243.86291,194.39838 242.82504,194.73047 C 241.78716,195.06257 239.00575,194.31532 238.34144,194.48143 C 237.67725,194.64742 239.50383,195.3532 238.83964,195.72676 C 238.17545,196.10045 235.68455,196.68158 234.35616,196.72317 C 233.02766,196.76464 231.69928,196.39108 230.86897,195.97593 C 230.03867,195.56078 231.61622,194.31532 229.37448,194.23227 C 227.13274,194.14934 219.99225,195.43626 217.41842,195.47772 C 214.84446,195.51919 216.17297,192.98694 213.93123,194.48143 z M 217.16925,172.81117 L 220.4074,172.56138 L 219.28647,170.94274 L 219.9092,166.08558 L 217.79198,169.07431 C 217.79198,169.07431 216.54665,167.82911 216.42201,168.32744 C 216.29749,168.82577 215.79941,171.31618 215.79941,171.31618 L 217.16925,170.32077 L 217.16925,172.81117 z M 209.57227,170.6942 C 211.66863,169.90487 219.12049,164.34205 220.15836,163.22174 C 221.19611,162.10018 216.81642,164.00983 215.79941,163.96861 C 214.78226,163.9274 215.42572,162.30751 214.05575,162.97195 C 212.68578,163.63639 208.32682,166.66634 207.57957,167.95401 C 206.83233,169.24042 207.47578,171.48229 209.57227,170.6942 z M 224.01911,163.47028 L 226.01181,164.96527 L 227.5063,164.21715 L 224.01911,163.47028 z M 208.94954,174.05637 C 209.57227,175.84112 203.34514,177.95934 203.46966,178.29031 C 203.59418,178.62253 204.75657,180.07631 204.2169,180.28363 C 203.67723,180.49096 201.06181,179.99263 200.23151,179.53676 C 199.40133,179.07964 199.73343,177.08757 199.23522,177.54344 C 198.73701,178.00055 198.44651,181.4464 197.24252,182.27571 C 196.03866,183.10626 195.20836,181.1554 192.0118,182.5255 C 188.81524,183.89559 181.63328,187.67366 178.06304,190.49629 C 174.49279,193.31904 171.37929,197.71946 170.59057,199.46312 C 169.80174,201.20665 173.16441,200.50087 173.33039,200.95761 C 173.4965,201.41423 172.41716,202.36905 171.58686,202.20306 C 170.75656,202.03695 168.47336,200.83309 168.34871,199.9612 C 168.22419,199.08943 170.50752,197.92703 170.83961,196.97221 C 171.17171,196.01739 171.04719,193.48502 170.34141,194.23227 C 169.63575,194.97952 167.43548,199.04797 166.60518,201.45569 C 165.77488,203.86354 162.32928,206.14687 165.35973,208.67924 C 168.3903,211.21161 181.50876,214.6988 184.78838,216.6499 C 188.06799,218.60101 183.70891,218.60101 185.03742,220.38614 C 186.36592,222.17126 192.71758,225.40941 192.75904,227.36052 C 192.80051,229.31175 186.5735,230.26657 185.28646,232.09316 C 183.99954,233.91975 185.82613,237.19936 185.03742,238.32029 C 184.24871,239.4411 182.54651,236.82568 180.55394,238.81837 C 178.56124,240.81107 173.4965,246.83063 173.08135,250.27636 C 172.6662,253.72196 177.73094,257.79028 178.06304,259.49248 C 178.39513,261.19454 177.28107,261.99225 173.66499,258.02296 C 170.13758,254.15085 164.49683,243.81542 162.00592,236.25978 C 159.51514,228.70426 159.237,219.93839 159.77667,216.03605 C 162.95837,213.71887 164.15586,211.08696 164.36344,209.67552 C 164.57101,208.26409 162.97174,209.4075 161.37445,206.68654 C 162.24622,199.71216 171.42075,183.89559 181.55023,176.79657 C 191.7981,169.61511 195.87255,168.0789 198.23893,167.08224 C 200.60519,166.08558 195.33288,170.23709 195.74803,170.81785 C 196.16318,171.39986 198.94459,171.48229 200.72971,170.56931 C 202.51483,169.65632 206.08508,165.0477 206.45864,165.33871 C 206.83233,165.62971 202.5563,170.86031 202.97145,172.31284 C 203.3866,173.76537 208.32682,172.27162 208.94954,174.05637 z M 248.78327,234.68061 C 248.98885,233.97607 247.22758,236.61798 246.4937,236.97018 C 245.75982,237.32251 244.84983,236.26577 244.3801,236.79408 C 243.91037,237.32251 244.23335,239.08378 243.67557,240.14051 C 243.11779,241.19737 240.76939,242.95864 241.03367,243.13474 C 241.29782,243.31084 243.96908,242.60644 245.26074,241.19737 C 246.5524,239.78831 248.57782,235.38501 248.78327,234.68061 z M 254.94784,251.06057 C 255.27082,250.53214 255.35887,249.41671 255.65237,248.06634 C 255.94587,246.7161 257.09078,243.13474 256.7091,242.95864 C 256.32755,242.78254 253.86175,245.62989 253.36267,247.00961 C 252.86372,248.38932 253.45072,250.56149 253.715,251.23667 C 253.97915,251.91186 254.62498,251.589 254.94784,251.06057 z M 261.99303,245.60054 C 261.20045,244.04473 261.84628,237.05836 262.34524,234.85671 C 262.84432,232.65506 264.13598,232.42026 264.98726,232.39091 C 265.83905,232.36156 266.66086,234.68061 267.45269,234.68061 C 268.24577,234.68061 268.77408,232.15598 269.74326,232.39091 C 270.7112,232.62571 272.09129,235.73734 273.2653,236.08955 C 274.43931,236.44187 276.20033,234.76866 276.78733,234.50438 C 277.37559,234.24023 271.85648,248.94698 270.62377,249.1232 C 269.39106,249.2993 267.71747,250.35604 267.62879,249.47541 C 267.54136,248.59477 268.03969,244.83731 267.10049,244.19148 C 266.16128,243.54577 262.78562,247.15636 261.99303,245.60054 z M 265.51557,226.75478 C 265.33947,227.25373 262.25719,230.04251 261.81693,230.10121 C 261.37655,230.15991 262.25719,227.66476 262.87367,227.10698 C 263.49015,226.5492 265.69167,226.2557 265.51557,226.75478 z M 194.35932,275.19027 C 205.83716,281.64833 228.49909,283.4096 238.39164,278.71293 C 231.72813,278.0671 231.46397,275.86545 229.40908,275.5426 C 227.35431,275.21962 227.11938,276.92218 226.06264,276.77543 C 225.00591,276.62868 224.71228,274.80871 223.06841,274.66196 C 221.42455,274.51509 218.19551,277.33321 215.84712,276.95154 C 213.49872,276.56998 210.62201,272.92992 208.97815,272.37226 C 207.33428,271.81448 206.7765,272.51902 206.33612,272.54837 C 205.89586,272.57772 205.27938,276.24713 204.22265,275.8948 C 203.16591,275.5426 200.46518,272.01994 200.69999,271.66773 C 200.93491,271.3154 202.54943,269.55414 202.10905,269.55414 C 201.6688,269.55414 198.99742,271.96123 197.70588,272.90057 C 196.41422,273.8399 190.80744,273.3116 194.35932,275.19027 z "
       id="path2168" />
    <path
       style="fill:#000000"
       id="path3892"
       d="" />
    <path
       style="fill:url(#radialGradient4974);fill-opacity:1;stroke-width:0.505198;stroke-linecap:round;stroke-linejoin:round"
       d="M 227.22276,183.013 C 227.22276,184.02181 226.56401,184.84055 225.75235,184.84055 C 224.94069,184.84055 224.28194,184.02181 224.28194,183.013 C 224.28194,182.00419 224.94069,181.18545 225.75235,181.18545 C 226.56401,181.18545 227.22276,182.00419 227.22276,183.013 z "
       id="path2134" />
    <g
       id="g3291"
       transform="translate(126.77414,110.10663)">
      <text
         id="text2318"
         y="114.62397"
         x="51.516819"
         style="font-size:38.9786644px;font-style:normal;font-weight:bold;fill:#000000;fill-opacity:0.29411765;stroke:none;stroke-width:1px;stroke-linecap:butt;stroke-linejoin:miter;stroke-opacity:1;font-family:Courier New"
         xml:space="preserve"><tspan
           y="114.62397"
           x="51.516819"
           id="tspan2320"
           sodipodi:role="line">http</tspan></text>
      <text
         id="text2314"
         y="110.30797"
         x="47.13467"
         style="font-size:38.9786644px;font-style:normal;font-weight:bold;fill:#000000;fill-opacity:1;stroke:none;stroke-width:1px;stroke-linecap:butt;stroke-linejoin:miter;stroke-opacity:1;font-family:Courier New"
         xml:space="preserve"><tspan
           y="110.30797"
           x="47.13467"
           id="tspan2316"
           sodipodi:role="line">http</tspan></text>
    </g>
  </g>
</svg>
