<?xml version="1.0" encoding="UTF-8" standalone="no"?>
<!-- Created with Inkscape (http://www.inkscape.org/) -->

<svg
   xmlns:dc="http://purl.org/dc/elements/1.1/"
   xmlns:cc="http://creativecommons.org/ns#"
   xmlns:rdf="http://www.w3.org/1999/02/22-rdf-syntax-ns#"
   xmlns:svg="http://www.w3.org/2000/svg"
   xmlns="http://www.w3.org/2000/svg"
   xmlns:sodipodi="http://sodipodi.sourceforge.net/DTD/sodipodi-0.dtd"
   xmlns:inkscape="http://www.inkscape.org/namespaces/inkscape"
   width="65.292458mm"
   height="72.124451mm"
   viewBox="0 0 65.292458 72.124451"
   version="1.1"
   id="svg8"
   inkscape:version="0.92.1 r15371"
   sodipodi:docname="thumb.svg">
  <defs
     id="defs2" />
  <sodipodi:namedview
     id="base"
     pagecolor="#ffffff"
     bordercolor="#666666"
     borderopacity="1.0"
     inkscape:pageopacity="0.0"
     inkscape:pageshadow="2"
     inkscape:zoom="1.4"
     inkscape:cx="172.05428"
     inkscape:cy="27.786968"
     inkscape:document-units="mm"
     inkscape:current-layer="g4495"
     showgrid="false"
     fit-margin-top="0"
     fit-margin-left="0"
     fit-margin-right="0"
     fit-margin-bottom="0"
     inkscape:window-width="2560"
     inkscape:window-height="1378"
     inkscape:window-x="1912"
     inkscape:window-y="-8"
     inkscape:window-maximized="1" />
  <metadata
     id="metadata5">
    <rdf:RDF>
      <cc:Work
         rdf:about="">
        <dc:format>image/svg+xml</dc:format>
        <dc:type
           rdf:resource="http://purl.org/dc/dcmitype/StillImage" />
        <dc:title></dc:title>
        <cc:license
           rdf:resource="http://creativecommons.org/publicdomain/zero/1.0/" />
        <dc:description></dc:description>
        <dc:contributor>
          <cc:Agent>
            <dc:title></dc:title>
          </cc:Agent>
        </dc:contributor>
        <dc:source>Based on https://pixabay.com/de/abneigung-hand-daumen-nach-unten-157252/</dc:source>
        <dc:rights>
          <cc:Agent>
            <dc:title></dc:title>
          </cc:Agent>
        </dc:rights>
        <dc:creator>
          <cc:Agent>
            <dc:title>https://pixabay.com/de/users/OpenClipart-Vectors-30363/</dc:title>
          </cc:Agent>
        </dc:creator>
        <dc:subject>
          <rdf:Bag>
            <rdf:li>abneigung hand daumen nach unten nr rot</rdf:li>
          </rdf:Bag>
        </dc:subject>
      </cc:Work>
      <cc:License
         rdf:about="http://creativecommons.org/publicdomain/zero/1.0/">
        <cc:permits
           rdf:resource="http://creativecommons.org/ns#Reproduction" />
        <cc:permits
           rdf:resource="http://creativecommons.org/ns#Distribution" />
        <cc:permits
           rdf:resource="http://creativecommons.org/ns#DerivativeWorks" />
      </cc:License>
    </rdf:RDF>
  </metadata>
  <g
     inkscape:label="Ebene 1"
     inkscape:groupmode="layer"
     id="layer1"
     transform="translate(-4.0174573,-29.616346)">
    <g
       id="g4495"
       transform="matrix(0.26458333,0,0,0.26458333,-77.633258,-38.930289)"
       style="stroke:#550000;stroke-width:10;stroke-linecap:round;stroke-linejoin:round">
      <path
         id="path4485"
         d="m 526.25,406.09 c -8.3091,4.3029 -22.812,-1.7318 -33,2.5 -18.498,7.6837 -41.253,35.566 -49.618,42.47 -15.014,12.393 -28.861,17.609 -37.382,34.03 -4.3706,8.4232 -10.034,28.923 -19,38 -2.0015,2.0261 -6.6827,3.9173 -9.5,3.5 -7.0567,-1.0451 -11.159,-5.8395 -15.5,-11.5 -3.7296,-4.8627 -6.3704,-10.883 -6,-17 1.3169,-21.75 24.616,-36.167 31,-57 2.352,-7.6754 6.6939,-17.488 2,-24 -5.9372,-8.2374 -33.117,-6.499 -48,-14 -9.3469,-4.7107 -20.349,-9.6233 -25,-19 -3.703,-7.4654 -3.189,-17.301 0,-25 2.5256,-6.0973 8.7813,-7.7845 11,-14 2.2524,-6.31 -1.8267,-13.926 1,-20 3.2376,-6.9575 13.617,-9.7007 18,-16 3.1397,-4.5127 1.4879,-8.7706 5,-13 5.6221,-6.7703 13.756,-5.7987 20,-12 3.9149,-3.8882 6.743,-10.49 11,-14 6.3621,-5.2463 15.755,-6.1374 24,-6 9.7055,0.16171 15.327,4.1873 25,5 9.0236,0.75814 21.351,-2.6812 30,0 21.446,6.6479 31.758,30.285 51,44 7.4534,5.3126 20.253,-1.1855 27,5 11.981,10.985 12.22,29.897 10,46 -2.2874,16.593 -8.1263,34.298 -23,42 z"
         inkscape:connector-curvature="0"
         style="fill:#ff0000;fill-opacity:1;stroke:#070000;stroke-width:10.00063038;stroke-miterlimit:4;stroke-dasharray:none;stroke-opacity:1" />
      <path
         id="path4487"
         d="m 331.25,344.59 c 0,0 28.514,-6.7667 40.5,-2.5 15.511,5.5213 23.735,12.779 39.5,20.5 3.1469,1.5411 5.46,7.5955 3.5,10.5 -5.1309,7.6035 -16.863,11.694 -26,12.5 -11.839,1.0443 -24.625,-7.5217 -33.5,-10 -2.7711,-0.7738 -9.5,1.5 -9.5,1.5"
         inkscape:connector-curvature="0"
         style="fill:none;stroke:#000000;stroke-opacity:1" />
      <path
         id="path4489"
         d="m 349.25,311.09 c 0,0.34632 23.766,-1.126 38,3.5 12.962,4.2129 20.471,11.096 43.5,21 9.724,4.182 3.4543,8.1341 2,11.5 -3.0865,7.1435 -18,16.5 -18,16.5"
         inkscape:connector-curvature="0"
         style="fill:none;stroke:#000000;stroke-opacity:1" />
      <path
         id="path4491"
         d="m 372.25,285.09 c 0,0 19.985,0.47071 28.5,5 12.907,6.8652 28.261,12.859 41,19.5 3.5959,1.8745 3.1601,8.1143 2,12 -1.6871,5.6508 -12,13 -12,13"
         inkscape:connector-curvature="0"
         style="fill:none;stroke:#000000;stroke-opacity:1" />
      <path
         id="path4493"
         d="m 406.89,264.59 c 0,0 34.168,11.004 43.864,20 2.5918,2.4047 0.61803,9.1459 -0.5,12.5 -1.7888,5.3666 -10,10 -10,10"
         inkscape:connector-curvature="0"
         style="fill:none;stroke:#000000;stroke-opacity:1" />
    </g>
  </g>
</svg>
